<?xml version="1.0" standalone="no"?><!DOCTYPE svg PUBLIC "-//W3C//DTD SVG 1.1//EN" "http://www.w3.org/Graphics/SVG/1.1/DTD/svg11.dtd"><svg t="1738032621185" class="icon" viewBox="0 0 1024 1024" version="1.1" xmlns="http://www.w3.org/2000/svg" p-id="5396" width="16" height="16" xmlns:xlink="http://www.w3.org/1999/xlink"><path d="M587.264 610.816c-0.512-22.528-14.336-34.304-41.472-34.816h-34.304v69.632h34.304c27.136-0.512 40.96-11.776 41.472-34.816z m324.608-388.608h0.512l-1.536-1.536c-0.512-1.024-1.024-2.048-2.048-2.56L696.32 4.096c-1.024-1.024-1.536-1.536-2.56-2.048l-1.024-1.024v0.512c-1.536-0.512-2.56-1.024-4.096-1.024L122.88 0c-6.144 0-11.264 5.12-11.264 11.264v970.24c0 23.552 18.944 42.496 42.496 42.496H870.4c23.552 0 42.496-18.944 42.496-42.496V226.304c-0.512-1.536-0.512-3.072-1.024-4.096z m-76.288 756.224H188.416c-16.896 0-30.72-13.824-30.72-30.72v-106.496h642.048c6.656 0 11.776-5.12 11.776-11.776V462.336c0-6.656-5.12-11.776-11.776-11.776H157.184V76.8c0-16.896 13.824-31.232 31.232-30.72l472.576 0.512c8.192 0 15.872 3.072 22.016 9.216l1.024 1.024c5.632 5.632 8.704 13.312 9.216 21.504l1.024 101.888c0 23.04 18.944 41.984 42.496 41.984h99.328c8.192 0 15.872 3.072 22.016 9.216 5.632 5.632 9.216 13.824 9.216 22.016v694.272c-0.512 16.896-14.336 30.72-31.744 30.72zM204.8 768.512l86.528-232.96h62.976l87.04 232.96H383.488L366.08 716.8H277.504L261.12 768.512H204.8z m253.952 0v-232.96h95.744c56.32 1.024 85.504 25.6 87.552 73.216 0 51.2-30.72 76.8-92.16 76.8h-38.912v82.944H458.752z m210.432 0v-232.96H721.92v232.96h-52.736zM327.68 596.992c-2.56-6.656-4.608-13.312-5.632-19.968h-0.512c-1.536 7.168-3.584 13.824-5.632 20.48l-26.112 78.848h67.072L327.68 596.992z" fill="#94C248" p-id="5397"></path></svg>