<?xml version="1.0" standalone="no"?><!DOCTYPE svg PUBLIC "-//W3C//DTD SVG 1.1//EN" "http://www.w3.org/Graphics/SVG/1.1/DTD/svg11.dtd"><svg t="1731420737665" class="icon" viewBox="0 0 1024 1024" version="1.1" xmlns="http://www.w3.org/2000/svg" p-id="4553" id="mx_n_1731420737665" xmlns:xlink="http://www.w3.org/1999/xlink" width="16" height="16"><path d="M978.488889 608.711111c0 142.222222-130.844444 256-290.133333 256h-455.111112c-22.755556 0-45.511111-17.066667-45.511111-39.822222 0-22.755556 17.066667-39.822222 45.511111-39.822222h455.111112c108.088889 0 199.111111-79.644444 199.111111-176.355556 0-96.711111-91.022222-176.355556-199.111111-176.355555H199.111111l136.533333 119.466666c5.688889 5.688889 11.377778 11.377778 11.377778 22.755556s-5.688889 22.755556-17.066666 28.444444c-17.066667 11.377778-45.511111 11.377778-56.888889 0L62.577778 415.288889C51.2 409.6 45.511111 398.222222 45.511111 386.844444s5.688889-22.755556 11.377778-28.444444L273.066667 170.666667c17.066667-11.377778 45.511111-11.377778 56.888889 0 11.377778 11.377778 17.066667 17.066667 17.066666 28.444444s-5.688889 22.755556-17.066666 28.444445L193.422222 347.022222h494.933334c159.288889 0 290.133333 119.466667 290.133333 261.688889z" fill="#e63939" p-id="4554"></path></svg>