<?xml version="1.0" standalone="no"?><!DOCTYPE svg PUBLIC "-//W3C//DTD SVG 1.1//EN" "http://www.w3.org/Graphics/SVG/1.1/DTD/svg11.dtd"><svg t="1725698144302" class="icon" viewBox="0 0 1024 1024" version="1.1" xmlns="http://www.w3.org/2000/svg" p-id="4303" width="20" height="20" xmlns:xlink="http://www.w3.org/1999/xlink"><path d="M361.699556 921.6H91.022222V102.4h757.76v223.004444H796.444444v-170.666666H143.36v714.524444h218.339556V921.6z" fill="" p-id="4304"></path><path d="M242.346667 562.062222h159.288889V614.4h-159.288889zM242.346667 417.564444h244.963555v52.337778H242.346667zM242.346667 273.066667h455.111111v52.337777h-455.111111zM807.822222 731.591111H667.875556V591.644444h52.337777v87.608889H807.822222v52.337778z" fill="" p-id="4305"></path><path d="M705.422222 518.826667A175.217778 175.217778 0 1 1 530.204444 694.044444 175.445333 175.445333 0 0 1 705.422222 518.826667m0-52.337778a227.555556 227.555556 0 1 0 227.555556 227.555555 227.555556 227.555556 0 0 0-227.555556-227.555555z" fill="" p-id="4306"></path></svg>