<svg t="1701599095171" class="icon" viewBox="0 0 1025 1024" version="1.1" xmlns="http://www.w3.org/2000/svg" p-id="4679" width="200" height="200"><path d="M873.954326 150.045674a511.832695 511.832695 0 1 0 0 723.603472 508.63374 508.63374 0 0 0 0-723.603472zM831.728129 832.062739a447.853608 447.853608 0 1 1 0-633.392959 447.853608 447.853608 0 0 1 0 633.392959z" fill="" p-id="4680"></path><path d="M760.711342 263.288658A351.884978 351.884978 0 1 0 863.717672 512.167305a349.325814 349.325814 0 0 0-103.00633-248.878647z m-45.425151 45.425151a285.346727 285.346727 0 0 1 20.473308 383.874521L333.331042 288.240501a285.346727 285.346727 0 0 1 383.874521 20.473308z m-406.906992 406.906992a285.346727 285.346727 0 0 1-20.473308-383.874521l402.428456 402.428457a285.346727 285.346727 0 0 1-383.874521-20.473308z" fill="" p-id="4681"></path></svg>