<?xml version="1.0" standalone="no"?><!DOCTYPE svg PUBLIC "-//W3C//DTD SVG 1.1//EN" "http://www.w3.org/Graphics/SVG/1.1/DTD/svg11.dtd"><svg t="1726978278980" class="icon" viewBox="0 0 1024 1024" version="1.1" xmlns="http://www.w3.org/2000/svg" p-id="16538" width="16" height="16" xmlns:xlink="http://www.w3.org/1999/xlink"><path d="M692.755 573.253L502.81 684.396c-61.318-37.608-177.797-102.29-177.797-102.29L114.5 787.42l168.239 3.71 3.749 168.371L512.03 734.98c26.959 25.861 59.334 56.588 58.446 57.35L737.512 959.5l3.749-168.37 168.239-3.709-216.745-214.168z" fill="#FFC900" p-id="16539"></path><path d="M649.79 593.485l-146.979 90.91c-61.318-37.608-143.677-90.91-143.677-90.91L161.991 788.206l120.745 2.923 3.1 95.702 193.348-192.193c26.958 25.861 60.283 0.501 59.395 1.263L738.248 898.21l3.011-107.083 114.515-2.923L649.79 593.485z" fill="#FF3C07" p-id="16540"></path><path d="M622.742 696.741l64.85 10.693c2.014 0.35 4.335 0.549 6.701 0.549 9.09 0 17.493-2.948 24.305-7.941 9.231-6.787 15.532-17.332 16.647-29.383l9.506-62.636c2.159-13.841 11.08-25.203 23.217-30.731l57.353-28.738c9.841-4.911 17.284-13.612 20.693-24.06 1.282-3.804 2.022-8.186 2.022-12.74a40.983 40.983 0 0 0-4.707-19.13L813.24 434.44c-2.848-5.386-4.519-11.772-4.519-18.55a40.157 40.157 0 0 1 4.625-18.77l30.091-58.186c2.898-5.489 4.598-11.998 4.598-18.905 0-4.554-0.739-8.935-2.106-13.029-3.325-10.157-10.768-18.862-20.609-23.772l-58.729-29.408c-12.075-6.151-20.543-17.873-22.054-31.687l-9.576-63.301c-1.865-12.057-8.725-22.22-18.358-28.466-4.819-3.617-13.222-6.567-22.314-6.567-2.366 0-4.685 0.2-6.942 0.583l-64.607 10.662c-12.938 2.126-26.081-2.129-35.283-11.459l-46.186-46.812c-7.457-7.579-17.823-12.274-29.284-12.275-11.455 0.005-21.816 4.703-29.265 12.275l-46.185 46.811c-9.201 9.33-22.344 13.585-35.283 11.459l-64.85-10.697c-10.85-1.799-21.974 0.846-30.889 7.314-9.346 6.868-15.648 17.413-16.766 29.463l-9.506 62.631c-2.158 13.841-11.078 25.202-23.213 30.731l-57.355 28.739c-9.844 4.91-17.287 13.614-20.696 24.061-1.282 3.804-2.022 8.186-2.022 12.741a40.976 40.976 0 0 0 4.707 19.129l30.088 58.181c2.848 5.386 4.519 11.772 4.519 18.55a40.157 40.157 0 0 1-4.625 18.77l-30.09 58.189c-2.898 5.489-4.599 11.998-4.599 18.904 0 4.555 0.74 8.936 2.107 13.03 3.325 10.157 10.767 18.859 20.611 23.771l58.729 29.406c12.074 6.153 20.541 17.876 22.052 31.691l9.576 63.297c1.867 12.06 8.73 22.223 18.364 28.472 7.035 5.164 18.158 7.809 29.007 6.011l64.85-10.693c12.938-2.128 26.08 2.128 35.283 11.457l46.186 46.813c7.455 7.578 17.816 12.274 29.275 12.276 11.455-0.002 21.82-4.699 29.272-12.273l46.19-46.816c9.201-9.327 22.343-13.583 35.282-11.455l0.001 0.005z" fill="#FAC77D" p-id="16541"></path><path d="M511.992 653.499c-134.326 0-243.622-109.355-243.622-243.744 0-134.415 109.296-243.771 243.622-243.771 134.342 0 243.638 109.356 243.638 243.772 0 134.388-109.298 243.744-243.638 243.743z" fill="#E1963F" p-id="16542"></path><path d="M511.993 602.626c-106.291 0-192.777-86.532-192.777-192.873 0-106.364 86.486-192.896 192.777-192.896 106.303 0 192.791 86.533 192.791 192.896 0 106.341-86.487 192.873-192.791 192.873z" fill="#F8C171" p-id="16543"></path><path d="M463.01 449.336c4.286 13.936 8.036 19.564 16.339 25.461 9.106 6.433 20.895 9.648 34.554 9.648 31.072 0 50.626-16.081 50.626-41.543 0-26.533-19.018-41.006-54.644-41.006-7.5 0-14.196 0.537-21.428 1.341v-21.172c6.162 1.072 12.591 1.608 19.823 1.608 17.679 0 30.804-4.021 39.108-12.329 6.697-6.433 10.715-16.348 10.715-25.996 0-23.049-16.072-36.449-43.125-36.449-16.339 0-28.126 4.557-35.626 14.205-3.75 4.824-5.625 9.112-8.571 19.028l-22.233-4.824c4.553-13.669 7.768-19.833 14.464-26.801 11.785-12.864 30.001-19.565 53.305-19.565 38.84 0 63.482 20.369 63.482 52.53 0 16.348-6.964 30.82-18.749 39.13-6.964 5.092-12.857 7.236-25.178 9.648 15.535 1.607 23.838 4.555 32.947 11.523 11.785 9.112 17.946 23.317 17.946 40.469 0 36.182-27.858 58.694-72.589 58.694-27.055 0-47.145-7.505-60.002-21.978-5.625-6.433-8.84-12.328-13.661-25.996l22.497-5.626z" fill="#924006" p-id="16544"></path></svg>