<?xml version="1.0" standalone="no"?><!DOCTYPE svg PUBLIC "-//W3C//DTD SVG 1.1//EN" "http://www.w3.org/Graphics/SVG/1.1/DTD/svg11.dtd"><svg t="1728104142593" class="icon" viewBox="0 0 1024 1024" version="1.1" xmlns="http://www.w3.org/2000/svg" p-id="4573" id="mx_n_1728104142594" width="16" height="16" xmlns:xlink="http://www.w3.org/1999/xlink"><path d="M710.6 91.5l157 157c9.9 9.9 2.9 26.9-11.1 26.9h-157c-8.7 0-15.7-7-15.7-15.7v-157c-0.1-14 16.9-21.1 26.8-11.2z" fill="" p-id="4574"></path><path d="M855.3 320.9h-194c-11.3 0-20.4-9.1-20.4-20.4V105.7c0-22.6-18.3-40.9-40.9-40.9H168.1c-22.2 0-40.1 18-40.1 40.1v815.4c0 22.2 18 40.1 40.1 40.1h411.5c-44.8-31.6-79.7-76.3-99-128.5H287.9c-17.5 0-31.9-14.4-31.9-31.9s14.4-31.9 31.9-31.9h177.5c-1.1-10.1-1.7-20.4-1.7-30.8 0-34.6 6.5-67.7 18.2-98.1h-194c-17.5 0-31.9-14.4-31.9-31.9s14.4-31.9 31.9-31.9H517c49.7-67.2 129.4-110.7 219.4-110.7 59.6 0 114.7 19.1 159.6 51.6V361.6c0-22.5-18.2-40.7-40.7-40.7z m-87.2 94.2c0 17.5-14.4 31.9-31.9 31.9H287.9c-17.5 0-31.9-14.4-31.9-31.9s14.4-31.9 31.9-31.9h448.3c17.6 0 31.9 14.3 31.9 31.9z" fill="" p-id="4575"></path><path d="M895.7 587.2c-41.2-41.2-96-63.9-154.3-63.9S628.3 546 587.1 587.2c-41.2 41.2-63.9 96-63.9 154.3s22.7 113.1 63.9 154.3c41.2 41.2 96 63.9 154.3 63.9s113.1-22.7 154.3-63.9c41.2-41.2 63.9-96 63.9-154.3s-22.7-113.1-63.9-154.3z m-59.8 119.5c12.2 0 22.3 10 22.3 22.3 0 12.2-10 22.3-22.3 22.3h-72.2v39.4h57.8c12.2 0 22.3 10 22.3 22.3 0 12.2-10 22.3-22.3 22.3h-57.8v57c0 12.2-10 22.3-22.3 22.3-12.2 0-22.3-10-22.3-22.3v-57h-57.8c-12.2 0-22.3-10-22.3-22.3 0-12.2 10-22.3 22.3-22.3h57.8v-39.4H647c-12.2 0-22.3-10-22.3-22.3 0-12.2 10-22.3 22.3-22.3h36.3l-58-58c-8.7-8.7-8.7-22.8 0-31.5s22.8-8.7 31.5 0l84.6 84.6 84.6-84.6c8.7-8.7 22.8-8.7 31.5 0s8.7 22.8 0 31.5l-58 58h36.4z" fill="" p-id="4576"></path></svg>