<svg t="1701597643265" class="icon" viewBox="0 0 1024 1024" version="1.1" xmlns="http://www.w3.org/2000/svg" p-id="4501" width="200" height="200"><path d="M920.948364 937.192727v-60.509091a131.118545 131.118545 0 0 0-130.978909-130.978909H768a131.165091 131.165091 0 0 0-130.978909 130.978909v60.509091a28.253091 28.253091 0 0 1-56.506182 0v-60.509091a187.671273 187.671273 0 0 1 103.610182-167.563636 129.536 129.536 0 1 1 182.458182-3.444364A187.717818 187.717818 0 0 1 977.454545 876.637091v60.509091a28.253091 28.253091 0 0 1-56.506181 0z m-220.253091-321.815272a73.029818 73.029818 0 1 0 73.029818-73.029819 73.122909 73.122909 0 0 0-73.029818 73.029819zM74.798545 917.085091A28.253091 28.253091 0 0 1 46.545455 888.785455V86.853818a28.253091 28.253091 0 0 1 28.25309-28.253091h783.825455a28.253091 28.253091 0 0 1 28.253091 28.253091v325.818182a28.299636 28.299636 0 1 1-56.552727 0v-297.890909H103.051636v745.797818h388.235637a28.253091 28.253091 0 1 1 0 56.506182z m370.781091-171.845818v-104.820364a28.299636 28.299636 0 1 1 56.552728 0v104.727273a28.299636 28.299636 0 1 1-56.552728 0z m-119.342545 0v-244.456728a28.253091 28.253091 0 1 1 56.506182 0v244.456728a28.253091 28.253091 0 1 1-56.506182 0z m-119.342546 0v-161.698909a28.253091 28.253091 0 1 1 56.506182 0v161.652363a28.253091 28.253091 0 1 1-56.506182 0z m-18.618181-320.791273a28.299636 28.299636 0 0 1 8.192-39.144727l142.289454-93.090909a28.206545 28.206545 0 0 1 24.808727-3.072l142.75491 49.943272 180.130909-107.054545a28.253091 28.253091 0 1 1 28.858181 48.593454l-191.441454 113.803637a27.927273 27.927273 0 0 1-23.784727 2.373818L358.027636 347.182545 227.374545 432.546909a27.927273 27.927273 0 0 1-15.406545 4.654546 28.253091 28.253091 0 0 1-23.738182-12.8z" fill="" p-id="4502"></path></svg>