<svg t="1701582813975" class="icon" viewBox="0 0 1024 1024" version="1.1" xmlns="http://www.w3.org/2000/svg" p-id="26741" width="200" height="200"><path d="M943.50000001 179.69999999H643.2v55.60000002h88.50000001v87.89999999h-88.50000001v28h88.50000001v88h-88.50000001V468h88.50000001v83.2h-88.50000001v33.4h88.50000001V668h-88.50000001v33.4h88.50000001v83.90000001h-88.50000001v61.19999998h300.30000001c4.70000001-1.4 8.70000001-7 11.89999999-16.69999999 3.2-9.8 4.80000001-17.70000001 4.8-23.8V189.8c0-4.80000001-1.60000001-7.70000001-4.8-8.70000001-3.90000001-1-7.90000001-1.50000001-11.90000001-1.39999998z m-39.00000003 605.50000001h-143.99999997v-83.8h144.09999999l-0.09999999 83.8z m0-117.2h-143.99999997v-83.50000002h144.09999999l-0.09999999 83.50000002z m0-116.8h-143.99999997v-82.90000001h144.09999999l-0.09999999 82.90000001z m0-112h-143.99999997v-87.90000001h144.09999999l-0.09999999 87.90000001z m0-116.50000001h-143.99999997v-87.39999998h144.09999999v88l-0.09999999-0.6zM63.8 165.8v694.70000001L592.70000001 952.00000001V71.99999999L63.8 166.09999999v-0.29999999z m313.50000001 525.50000001c-2-5.50000001-11.50000001-28.6-28.30000001-69.60000002-9.70000001-23.90000001-19.70000001-47.8-29.8-71.6h-0.90000001l-56.69999999 135.00000002-75.8-5.10000002 89.8-167.99999999-82.4-168.00000001 77.30000001-4.1 51.09999998 131.50000001h1.00000001l57.69999999-137.50000001 79.90000001-4.99999998-95.10000001 181.89999999 98 185.50000001-85.8-5.00000002z" fill="" p-id="26742"></path></svg>