<svg t="1706287540856" class="icon" viewBox="0 0 1024 1024" version="1.1" xmlns="http://www.w3.org/2000/svg" p-id="4415" width="" height=""><path d="M195.9 378.2c-1.2 0-2.4 0.2-3.6 0.5-7.5 2-11.9 9.7-9.9 17.1 1.7 6.3 7.3 10.4 13.5 10.4 1.2 0 2.4-0.2 3.6-0.5 7.5-2 11.9-9.7 9.9-17.1C207.7 382.4 202.1 378.2 195.9 378.2zM266 225.4c7.5-2 11.9-9.6 9.9-17.1-2-7.5-9.6-11.9-17.1-9.9l-53.1 14.2-0.3 0.1c-18.8 5-34.1 16.9-43.1 33.5-8.1 14.9-10.4 32.1-6.7 48.7 0 0.8 0.2 1.7 0.4 2.5l14.2 53.1c1.7 6.3 7.3 10.4 13.5 10.4 1.2 0 2.4-0.2 3.5-0.6 7.5-2 11.9-9.6 9.9-17.1l-13.5-50.6c-0.1-0.7-0.2-1.4-0.4-2.1-2.7-10.4-1.4-21.7 3.6-31 3.8-6.9 11.3-15.9 25.8-19.8L266 225.4zM885.2 268.5l-310.1-83.1c-8.7-2.3-17.5-3.4-26.2-3.4-44.5 0-85.3 29.7-97.4 74.8l-132.1 493c-14.4 53.8 17.5 109.1 71.3 123.6l310.1 83.1c8.7 2.3 17.5 3.5 26.2 3.5 44.5 0 85.3-29.7 97.4-74.8l132.1-493.1C970.9 338.3 939 283 885.2 268.5zM902.4 377.7 770.3 870.6c-5.3 19.6-23.1 33.3-43.3 33.3-3.9 0-7.8-0.5-11.7-1.6l-310.1-83.1c-11.6-3.1-21.3-10.5-27.3-20.9-6-10.4-7.6-22.5-4.5-34.1l132.1-493c5.4-19.5 23.2-33.2 43.4-33.2 3.9 0 7.8 0.5 11.7 1.6l310.1 83.1C894.6 329.1 908.9 353.8 902.4 377.7zM507.3 409.8c-1.2-0.3-2.4-0.5-3.6-0.5-6.2 0-11.8 4.1-13.5 10.4-2 7.5 2.4 15.1 9.9 17.1 1.2 0.3 2.4 0.5 3.6 0.5 6.2 0 11.8-4.1 13.5-10.4C519.2 419.4 514.8 411.8 507.3 409.8zM512.2 391.4c1.2 0.3 2.4 0.5 3.6 0.5 6.2 0 11.9-4.1 13.6-10.3l13.5-50.6c0.3-0.6 0.5-1.3 0.7-2 2.8-10.4 9.6-19.6 18.6-25.1 6.7-4.1 17.7-8.2 32.2-4.3l53.5 14.3c7.4 2 15.1-2.4 17.1-9.9 2-7.4-2.4-15.1-9.9-17.1l-53.4-14.3c-18.8-5.1-38-2.4-54.1 7.4-14.5 8.9-25.1 22.5-30.2 38.8-0.4 0.8-0.7 1.6-0.9 2.4l-14.2 53.1C500.4 381.7 504.7 389.4 512.2 391.4zM288.3 785.1c-16.5-3.3-30.1-15.7-34.6-32.4l-132.1-493c-3.1-11.6-1.5-23.7 4.5-34.1 6-10.4 15.7-17.8 27.3-20.9l310.1-83.1c3.9-1 7.8-1.6 11.7-1.6 20.2 0 38 13.7 43.3 33.3l1.1 4.1c9.5-2.3 19.4-3.4 29.5-3.4 9.5 0 19 1.1 28.4 3.2l-4.9-18.4C560.4 93.7 519.7 64 475.2 64c-8.6 0-17.4 1.1-26.2 3.5l-310.1 83.1C85 165.1 53.1 220.3 67.5 274.1l132.1 493c12.1 45.1 52.8 74.8 97.4 74.8 3 0 6-0.1 9-0.4-0.2-0.4-0.5-0.8-0.7-1.2C295.4 823.1 289.6 804.3 288.3 785.1zM677.2 459.2c-22.4 21.3-53.1 43.1-104.8 63.6-23.2 9.2-39.8 22.4-48 38.2-6.7 12.9-7.6 27.4-2.5 40.9 10 26.6 42.8 46.9 83.9 32.3 5.3-1.9 11.1-0.4 14.9 3.6 3.8 4.1 4.8 10 2.6 15.2-10.9 24.8-28.3 45.4-48.1 57.6l64.7 17.3c-11-20.4-15.8-47-12.8-74 0.6-5.6 4.5-10.2 9.8-11.8 5.3-1.6 11.1 0.1 14.8 4.3 21.1 24.8 59.4 38.2 88.8 14 11.1-9.1 17.6-22.1 18.2-36.6 0.8-17.8-7-37.5-22.5-57.1C701.7 523 686 488.8 677.2 459.2z"  p-id="4416"></path></svg>