<?xml version="1.0" standalone="no"?><!DOCTYPE svg PUBLIC "-//W3C//DTD SVG 1.1//EN" "http://www.w3.org/Graphics/SVG/1.1/DTD/svg11.dtd"><svg t="1738556937360" class="icon" viewBox="0 0 1024 1024" version="1.1" xmlns="http://www.w3.org/2000/svg" p-id="5921" id="mx_n_1738556937362" width="16" height="16" xmlns:xlink="http://www.w3.org/1999/xlink"><path d="M810.666667 128a85.333333 85.333333 0 0 1 85.333333 85.333333v597.333334a85.333333 85.333333 0 0 1-85.333333 85.333333H213.333333a85.333333 85.333333 0 0 1-85.333333-85.333333V213.333333a85.333333 85.333333 0 0 1 85.333333-85.333333h597.333334zM405.333333 384h-42.666666l-6.997334 0.213333A106.666667 106.666667 0 0 0 256 490.666667V768h277.333333l7.509334-0.170667c53.632-2.176 77.824-28.8 77.824-85.162666v-64h-42.666667V682.666667l-0.085333 5.973333c-0.853333 30.208-9.301333 36.693333-42.581334 36.693333H298.666667v-234.666666l0.298666-6.144A64 64 0 0 1 362.666667 426.666667h42.666666V384zM768 256h-256a85.333333 85.333333 0 0 0-85.333333 85.333333v256h256a85.333333 85.333333 0 0 0 85.333333-85.333333V256z m-42.666667 42.666667v213.333333l-0.298666 4.992A42.666667 42.666667 0 0 1 682.666667 554.666667h-213.333334V341.333333l0.298667-4.992A42.666667 42.666667 0 0 1 512 298.666667h213.333333z m-64 106.666666a21.333333 21.333333 0 0 0-21.333333 21.333334v85.333333l0.341333 3.84A21.333333 21.333333 0 0 0 682.666667 512v-85.333333l-0.341334-3.84a21.333333 21.333333 0 0 0-20.992-17.493334z" fill="" p-id="5922"></path></svg>