<?xml version="1.0" standalone="no"?><!DOCTYPE svg PUBLIC "-//W3C//DTD SVG 1.1//EN" "http://www.w3.org/Graphics/SVG/1.1/DTD/svg11.dtd"><svg t="1732463565951" class="icon" viewBox="0 0 1024 1024" version="1.1" xmlns="http://www.w3.org/2000/svg" p-id="10041" xmlns:xlink="http://www.w3.org/1999/xlink" width="25" height="25"><path d="M895.1 181H128.9c-36 0-65.2 29.6-65.2 66.2v529.3c0 36.6 29.2 66.2 65.2 66.2h766.2c36 0 65.2-29.6 65.2-66.2V247.1c0.1-36.5-29.1-66.1-65.2-66.1m-16.3 529.3c0 27.4-21.9 49.6-48.9 49.6H194.1c-27 0-48.9-22.2-48.9-49.6v-397c0-27.4 21.9-49.6 48.9-49.6h635.8c27 0 48.9 22.2 48.9 49.6v397m0 0z" p-id="10042"></path><path d="M316.4 520.1c54 0 97.8-44.4 97.8-99.2 0-54.8-43.8-99.3-97.8-99.3s-97.8 44.4-97.8 99.3c0 54.7 43.8 99.2 97.8 99.2m0 0zM805.5 611H544.6c-18 0-32.6 14.8-32.6 33.1s14.6 33.1 32.6 33.1h260.9c18 0 32.6-14.8 32.6-33.1 0-18.2-14.6-33.1-32.6-33.1m0 0zM397.9 544.9h-163c-27 0-48.9 22.2-48.9 49.6V702h260.8V594.5c0-27.4-21.9-49.6-48.9-49.6m0 0zM805.5 478.7H544.6c-18 0-32.6 14.8-32.6 33.1s14.6 33.1 32.6 33.1h260.9c18 0 32.6-14.8 32.6-33.1s-14.6-33.1-32.6-33.1m0 0zM805.5 346.4H544.6c-18 0-32.6 14.8-32.6 33.1s14.6 33.1 32.6 33.1h260.9c18 0 32.6-14.8 32.6-33.1s-14.6-33.1-32.6-33.1m0 0z" p-id="10043"></path></svg>