<svg t="1706287421456" class="icon" viewBox="0 0 1024 1024" version="1.1" xmlns="http://www.w3.org/2000/svg" p-id="2310" width="200" height="200"><path d="M837.4784 0A186.88 186.88 0 0 1 1024 186.5216V837.632A186.6752 186.6752 0 0 1 837.4784 1024H186.5216A186.88 186.88 0 0 1 0 837.4784V186.5216A186.7776 186.7776 0 0 1 186.5216 0h650.9568z m0 84.7872H186.5216c-53.4528 0-97.4848 41.5232-101.5808 93.7984l-0.3072 7.936v650.9568c0 53.248 41.5744 97.3312 93.952 101.376l7.936 0.3584h650.9568c53.4528 0 97.4848-41.472 101.5808-93.696l0.3072-7.8848V186.5216c0-53.248-41.5744-97.3312-93.952-101.376l-7.936-0.3584zM446.976 388.7104l135.8848 219.3408 58.5216-107.52c8.96-18.3296 26.7776-30.208 46.5408-31.3856 20.1728-1.0752 39.424 9.216 50.3296 26.7264l140.4416 226.6624a40.448 40.448 0 0 1-12.6464 55.5008 39.936 39.936 0 0 1-55.1936-12.8l-118.0672-190.6176-60.9792 112.1792 14.592 23.6544a40.0896 40.0896 0 1 1-68.096 42.2912l-39.2192-63.3856-143.3088-231.3728-159.5904 292.864a40.6016 40.6016 0 0 1-35.328 20.992 40.3456 40.3456 0 0 1-35.1744-59.5968l173.056-318.1056a62.3616 62.3616 0 0 1 52.1216-35.3792c22.528-1.3312 43.9296 10.1888 56.1152 29.952z m171.776-208.7936a120.32 120.32 0 0 1 119.8592 120.4736 120.32 120.32 0 0 1-119.808 120.4736 120.32 120.32 0 0 1-119.9104-120.4736 120.32 120.32 0 0 1 119.8592-120.4736z m0 84.7872a35.6352 35.6352 0 0 0 0 71.3216 35.6352 35.6352 0 0 0 0-71.3216z" p-id="2311"></path></svg>