<svg t="1707197330960" class="icon" viewBox="0 0 1024 1024" version="1.1" xmlns="http://www.w3.org/2000/svg" p-id="7411" width="16" height="16"><path d="M658.285714 48.761905v-0.048762C658.285714 21.820952 679.936 0 707.047619 0c26.940952 0 48.761905 21.625905 48.761905 48.713143V48.761905h97.475047A97.450667 97.450667 0 0 1 950.857143 146.285714v780.190476c0 53.906286-43.544381 97.52381-97.572572 97.52381H170.715429A97.450667 97.450667 0 0 1 73.142857 926.47619V146.285714c0-53.906286 43.544381-97.52381 97.572572-97.523809H268.190476v-0.048762C268.190476 21.820952 289.840762 0 316.952381 0c26.940952 0 48.761905 21.625905 48.761905 48.713143V48.761905h97.523809v-0.048762C463.238095 21.820952 484.888381 0 512 0c26.940952 0 48.761905 21.625905 48.761905 48.713143V48.761905h97.523809z m0 97.523809l-97.523809-0.024381v0.073143A48.615619 48.615619 0 0 1 512 195.047619c-26.940952 0-48.761905-21.625905-48.761905-48.713143v-0.073143h-97.523809v0.073143A48.615619 48.615619 0 0 1 316.952381 195.047619c-26.940952 0-48.761905-21.625905-48.761905-48.713143v-0.073143H170.666667S170.617905 926.47619 170.715429 926.47619c0 0 682.617905 0.073143 682.617904 0 0 0 0.048762-780.190476-0.048762-780.190476H755.809524v0.048762A48.615619 48.615619 0 0 1 707.047619 195.047619c-26.940952 0-48.761905-21.625905-48.761905-48.713143v-0.073143z m-146.285714 268.190476c0-26.940952 21.991619-48.761905 48.981333-48.761904h194.608762a48.761905 48.761905 0 1 1 0 97.523809H561.005714A48.761905 48.761905 0 0 1 512 414.47619z m0 268.190477c0-26.940952 21.991619-48.761905 48.981333-48.761905h194.608762a48.761905 48.761905 0 1 1 0 97.523809H561.005714A48.761905 48.761905 0 0 1 512 682.666667z m-229.522286-233.71581l-48.761904-48.761905a48.761905 48.761905 0 0 1 68.949333-68.949333l14.287238 14.287238 63.049143-63.049143a48.761905 48.761905 0 0 1 68.949333 68.949334l-97.523809 97.523809a48.761905 48.761905 0 0 1-68.949334 0z m0 268.190476l-48.761904-48.761904a48.761905 48.761905 0 0 1 68.949333-68.949334l14.384762 14.384762 62.951619-63.146667a48.761905 48.761905 0 0 1 68.949333 68.949334l-97.523809 97.523809a48.761905 48.761905 0 0 1-68.949334 0z" p-id="7412" fill=""></path></svg>