<?xml version="1.0" standalone="no"?><!DOCTYPE svg PUBLIC "-//W3C//DTD SVG 1.1//EN" "http://www.w3.org/Graphics/SVG/1.1/DTD/svg11.dtd"><svg t="1726978181250" class="icon" viewBox="0 0 1024 1024" version="1.1" xmlns="http://www.w3.org/2000/svg" p-id="13906" id="mx_n_1726978181251" width="16" height="16" xmlns:xlink="http://www.w3.org/1999/xlink"><path d="M692.9 573.3L502.8 684.6c-61.4-37.6-178-102.4-178-102.4L114.1 787.7l168.4 3.7 3.8 168.5L512 735.2c27 25.9 59.4 56.6 58.5 57.4l167.2 167.3 3.8-168.5 168.4-3.7-217-214.4z m0 0" fill="#FFD31A" p-id="13907"></path><path d="M649.9 593.6l-147.1 91c-61.4-37.6-143.8-91-143.8-91L161.6 788.5l120.9 2.9 3.1 95.8 193.5-192.4c27 25.9 60.3 0.5 59.5 1.3l199.9 202.5 3-107.2 114.6-2.9-206.2-194.9z m0 0" fill="#EF4B4B" p-id="13908"></path><path d="M622.6 696.8l64.9 10.7c2 0.4 4.3 0.6 6.7 0.6 8.7 0 17.3-2.8 24.3-7.9 9.2-6.8 15.5-17.4 16.7-29.4l9.5-62.7c2.2-13.9 11.1-25.2 23.2-30.8l57.4-28.8c9.9-4.9 17.3-13.6 20.7-24.1 1.3-3.8 2-8.2 2-12.8 0-6.7-1.6-13.2-4.7-19.2l-30.1-58.2c-2.8-5.4-4.5-11.8-4.5-18.6 0-6.8 1.7-13.2 4.6-18.8l30.1-58.2c2.9-5.5 4.6-12 4.6-18.9 0-4.6-0.7-8.9-2.1-13-3.3-10.2-10.8-18.9-20.6-23.8l-58.8-29.4c-12.1-6.2-20.6-17.9-22.1-31.7l-9.6-63.4c-1.9-12.1-8.7-22.2-18.4-28.5-4.8-3.6-13.2-6.6-22.3-6.6-2.4 0-4.7 0.2-7 0.6l-64.7 10.7c-2 0.3-4.3 0.5-6.6 0.5-11.2 0-21.4-4.6-28.7-12l-46.2-46.9c-7.5-7.6-17.8-12.3-29.3-12.3s-21.8 4.7-29.3 12.3l-46.2 46.9c-7.3 7.4-17.5 12-28.7 12-2.3 0-4.6-0.2-6.8-0.6L336 123.9c-2-0.4-4.3-0.6-6.7-0.6-8.7 0-17.3 2.8-24.3 8-9.2 6.8-15.5 17.3-16.7 29.4l-9.5 62.7c-2.2 13.9-11.1 25.2-23.2 30.8L198.2 283c-9.9 4.9-17.3 13.6-20.7 24.1-1.3 3.8-2 8.2-2 12.8 0 6.7 1.6 13.2 4.7 19.1l30.1 58.2c2.8 5.4 4.5 11.8 4.5 18.6 0 6.6-1.6 13-4.6 18.8L180 492.7c-2.9 5.5-4.6 12-4.6 18.9 0 4.6 0.7 8.9 2.1 13 3.3 10.2 10.8 18.9 20.6 23.8l58.8 29.4c12.1 6.2 20.6 17.9 22.1 31.7l9.6 63.4c1.9 12.1 8.7 22.2 18.4 28.5 4.8 3.6 13.2 6.6 22.3 6.6 2.3 0 4.7-0.2 6.9-0.6l64.7-10.7c2-0.3 4.3-0.5 6.6-0.5 11.2 0 21.4 4.6 28.7 12l46.2 46.9c7.5 7.6 17.8 12.3 29.3 12.3s21.8-4.7 29.3-12.3l46.2-46.9c7.3-7.4 17.5-12 28.7-12 2.3 0 4.6 0.2 6.8 0.6h-0.1z m0 0" fill="#FFD31A" p-id="13909"></path><path d="M511.8 659.7c-134.5 0-243.9-109.5-243.9-244s109.4-244 243.9-244 243.9 109.5 243.9 244-109.4 244-243.9 244z m0 0" fill="#D8A72B" p-id="13910"></path><path d="M511.8 222.6c-106.4 0-193 86.6-193 193.1 0 106.4 86.6 193.1 193 193.1s193-86.6 193-193.1-86.6-193.1-193-193.1z m72.9 305.3l-72.9-38.3-72.9 38.3 13.9-81.2-59-57.5 81.5-11.8 36.5-73.9 36.5 73.9 81.5 11.8-59 57.5 13.9 81.2z" fill="#FFD31A" p-id="13911"></path></svg>