<svg t="1701582084764" class="icon" viewBox="0 0 1024 1024" version="1.1" xmlns="http://www.w3.org/2000/svg" p-id="890" width="32" height="32"><path d="M797.013333 824.576h-142.336v-132.693333a142.805333 142.805333 0 0 0-142.336-143.061334 142.848 142.848 0 0 0-142.336 143.018667v132.650667H227.669333V349.738667L512 162.901333l285.013333 187.306667v474.368z m-213.504 0l-142.336-0.042667v-132.693333c0-39.466667 31.914667-71.594667 71.168-71.594667 39.253333 0 71.168 32.128 71.168 71.594667v132.693333z m339.072-477.184l-89.984-59.136V173.696a35.626667 35.626667 0 0 0-35.584-35.669333 35.626667 35.626667 0 0 0-35.584 35.669333v67.84l-229.546666-150.997333a34.688 34.688 0 0 0-20.181334-5.12 34.56 34.56 0 0 0-19.541333 5.12l-390.741333 256.853333a35.754667 35.754667 0 0 0-10.24 49.450667 35.498667 35.498667 0 0 0 49.237333 10.282666l16.085333-10.581333v438.570667c0 33.536 30.293333 60.885333 67.370667 60.885333H800.853333c37.12 0 67.328-27.349333 67.328-60.885333V397.013333l15.445334 10.112a35.456 35.456 0 0 0 54.997333-27.861333 35.84 35.84 0 0 0-16.042667-31.872z" fill="" p-id="891"></path></svg>