<?xml version="1.0" standalone="no"?><!DOCTYPE svg PUBLIC "-//W3C//DTD SVG 1.1//EN" "http://www.w3.org/Graphics/SVG/1.1/DTD/svg11.dtd"><svg t="1737723864942" class="icon" viewBox="0 0 1024 1024" version="1.1" xmlns="http://www.w3.org/2000/svg" p-id="5466" id="mx_n_1737723864943" width="16" height="16" xmlns:xlink="http://www.w3.org/1999/xlink"><path d="M341.777067 452.1984a17.066667 17.066667 0 0 1-15.496534-9.9328L200.6016 168.789333l-125.678933 273.476267a17.066667 17.066667 0 0 1-15.496534 9.898667h-18.773333a160.8704 160.8704 0 0 0 319.931733 0h-18.807466z m10.922666-34.133333h25.838934a17.066667 17.066667 0 0 1 17.066666 17.066666 195.003733 195.003733 0 1 1-390.007466 0 17.066667 17.066667 0 0 1 17.066666-17.066666h25.8048l136.635734-297.2672a17.066667 17.066667 0 0 1 30.993066 0l136.6016 297.2672zM961.160533 452.1984a17.066667 17.066667 0 0 1-15.530666-9.9328l-125.6448-273.476267-125.678934 273.476267a17.066667 17.066667 0 0 1-15.496533 9.898667h-18.773333a160.8704 160.8704 0 0 0 319.8976 0h-18.773334z m36.7616-34.133333a17.066667 17.066667 0 0 1 17.066667 17.066666 195.003733 195.003733 0 1 1-390.007467 0 17.066667 17.066667 0 0 1 17.066667-17.066666h25.8048l136.6016-297.2672a17.066667 17.066667 0 0 1 31.061333 0l136.567467 297.2672h25.838933z" fill="#CCCCCC" p-id="5467"></path><path d="M200.567467 144.9984a17.066667 17.066667 0 1 1 0-34.133333h619.4176a17.066667 17.066667 0 1 1 0 34.133333H200.567467zM251.767467 870.263467a17.066667 17.066667 0 1 1 0-34.133334h517.0176a17.066667 17.066667 0 1 1 0 34.133334H251.767467zM61.5424 452.164267a17.066667 17.066667 0 0 1 0-34.133334H248.149333a17.066667 17.066667 0 1 1 0 34.133334H61.5424zM662.596267 452.164267a17.066667 17.066667 0 0 1 0-34.133334h205.9264a17.066667 17.066667 0 1 1 0 34.133334h-205.9264zM127.863467 948.155733a17.066667 17.066667 0 0 1 0-34.133333H897.365333a17.066667 17.066667 0 1 1 0 34.133333H127.863467z" fill="#CCCCCC" p-id="5468"></path><path d="M494.933333 127.931733a17.066667 17.066667 0 1 1 34.133334 0v725.265067a17.066667 17.066667 0 1 1-34.133334 0V127.931733z" fill="#CCCCCC" p-id="5469"></path></svg>