<?xml version="1.0" standalone="no"?><!DOCTYPE svg PUBLIC "-//W3C//DTD SVG 1.1//EN" "http://www.w3.org/Graphics/SVG/1.1/DTD/svg11.dtd"><svg t="1740060176066" class="icon" viewBox="0 0 1024 1024" version="1.1" xmlns="http://www.w3.org/2000/svg" p-id="6056" id="mx_n_1740060176067" width="20" height="20" xmlns:xlink="http://www.w3.org/1999/xlink"><path d="M512 1024C229.689224 1024 0 794.322824 0 512S229.689224 0 512 0s512 229.677176 512 512-229.677176 512-512 512z m0-948.645647C271.239529 75.354353 75.354353 271.227482 75.354353 512S271.239529 948.657694 512 948.657694 948.657694 752.772518 948.657694 512 752.772518 75.354353 512 75.354353zM296.478118 788.865506a43.851294 43.851294 0 0 1-8.6016-1.072188l-0.469836-0.096377h-0.144564a35.562918 35.562918 0 0 1-22.166589-16.685176 36.864 36.864 0 0 1-3.915294-27.708236 264.216094 264.216094 0 0 1 142.516706-172.272941l5.674165-2.686494-5.156141-3.614118a194.933459 194.933459 0 0 1-61.536377-69.933176 199.2704 199.2704 0 0 1-22.130447-91.449224c0-109.037929 88.702494-197.740424 197.728377-197.740423s197.728376 88.582024 197.728376 197.619953a196.632094 196.632094 0 0 1-83.823435 161.430588l-5.047718 3.614118 5.565741 2.686494a266.384565 266.384565 0 0 1 142.070965 172.272941 35.0208 35.0208 0 0 1-3.614118 27.419106A36.358024 36.358024 0 0 1 748.122353 787.576471a37.924141 37.924141 0 0 1-9.035294 1.108329 36.285741 36.285741 0 0 1-35.406306-27.2384 192.126494 192.126494 0 0 0-371.868612 0 36.538729 36.538729 0 0 1-35.334023 27.419106z m221.91887-510.409788a124.650918 124.650918 0 1 0 124.650918 124.650917 124.795482 124.795482 0 0 0-124.650918-124.650917z" p-id="6057"></path></svg>