<?xml version="1.0" standalone="no"?><!DOCTYPE svg PUBLIC "-//W3C//DTD SVG 1.1//EN" "http://www.w3.org/Graphics/SVG/1.1/DTD/svg11.dtd"><svg t="1732072793285" class="icon" viewBox="0 0 1024 1024" version="1.1" xmlns="http://www.w3.org/2000/svg" p-id="4430" id="mx_n_1732072793285" width="16" height="16" xmlns:xlink="http://www.w3.org/1999/xlink"><path d="M693.390222 3.925333c-144.497778 0-261.688889 41.415111-261.688889 92.501334v155.534222c0 2.901333 0.483556 5.774222 1.28 8.618667 12.743111 45.056 124.444444 80.298667 260.408889 80.298666 135.992889 0 247.694222-35.271111 260.437334-80.298666 0.796444-2.844444 1.28-5.717333 1.28-8.618667V96.426667c0-51.086222-117.191111-92.501333-261.688889-92.501334z m215.04 104.760889c-11.036444 8.021333-27.420444 15.729778-47.36 22.300445-45.198222 14.904889-104.732444 23.125333-167.68 23.125333-62.919111 0-122.453333-8.220444-167.651555-23.125333-19.911111-6.570667-36.323556-14.279111-47.36-22.300445-8.504889-6.172444-11.377778-10.808889-11.832889-12.259555 0.455111-1.450667 3.328-6.087111 11.832889-12.288 11.036444-7.992889 27.420444-15.729778 47.36-22.300445 45.198222-14.904889 104.732444-23.125333 167.651555-23.125333 62.947556 0 122.481778 8.220444 167.68 23.125333 19.939556 6.570667 36.323556 14.307556 47.36 22.300445 8.504889 6.200889 11.377778 10.808889 11.832889 12.288-0.455111 1.422222-3.328 6.087111-11.832889 12.231111z m-95.715555 240.099556c-35.811556 6.485333-76.288 10.24-119.296 10.24a674.133333 674.133333 0 0 1-119.296-10.24c-84.48-15.36-142.421333-40.590222-142.421334-76.487111v61.041777a693.134222 693.134222 0 0 0-102.513777-7.367111c-144.526222 0-261.688889 41.415111-261.688889 92.501334v155.534222c0 2.901333 0.455111 5.774222 1.251555 8.618667 12.743111 45.056 124.444444 80.298667 260.437334 80.298666 36.408889 0 71.025778-2.531556 102.513777-7.111111a575.146667 575.146667 0 0 0 36.892445-6.542222c66.702222-14.307556 113.066667-38.570667 121.002666-66.645333 0.796444-2.844444 1.28-5.688889 1.28-8.618667v20.849778c0 28.956444-37.745778 51.000889-96.768 66.503111-8.647111 2.275556-17.749333 4.380444-27.249777 6.371555a701.070222 701.070222 0 0 1-35.157334 6.371556 689.237333 689.237333 0 0 1-102.513777 7.452444c-43.036444 0-83.512889-3.726222-119.296-10.24-84.48-15.331556-142.421333-40.590222-142.421334-76.458666v155.534222c0 2.901333 0.483556 5.774222 1.28 8.618667 12.743111 45.056 124.444444 80.298667 260.437334 80.298666 51.512889 0 99.555556-5.063111 140.032-13.795555 66.360889-14.336 112.469333-38.542222 120.376888-66.503111 0.796444-2.844444 1.28-5.688889 1.28-8.618667v20.821333c0 28.871111-37.432889 50.830222-96.028444 66.332445-14.279111 3.754667-29.809778 7.168-46.364444 10.154666-35.811556 6.513778-76.288 10.24-119.296 10.24-43.036444 0-83.512889-3.726222-119.296-10.24-84.48-15.36-142.421333-40.590222-142.421334-76.487111v155.562667c0 2.901333 0.483556 5.774222 1.28 8.590222 12.743111 45.056 124.444444 80.327111 260.437334 80.327111 135.964444 0 247.665778-35.271111 260.408888-80.327111 0.796444-2.844444 1.28-5.688889 1.28-8.590222v-65.308445c31.488 4.551111 66.133333 7.082667 102.542223 7.082667 135.964444 0 247.665778-35.242667 260.408889-80.298667 0.796444-2.844444 1.28-5.688889 1.28-8.618666v-155.534222c0 35.896889-57.912889 61.155556-142.392889 76.487111-35.811556 6.485333-76.288 10.24-119.296 10.24a689.493333 689.493333 0 0 1-102.542223-7.480889v-17.777778c31.488 4.551111 66.133333 7.111111 102.542223 7.111111 135.964444 0 247.665778-35.271111 260.408889-80.327111 0.796444-2.844444 1.28-5.688889 1.28-8.590222v-155.562667c0 35.896889-57.912889 61.155556-142.392889 76.487111-35.811556 6.485333-76.288 10.24-119.296 10.24a689.493333 689.493333 0 0 1-102.542223-7.452444v-17.806222c31.488 4.551111 66.133333 7.111111 102.542223 7.111111 135.964444 0 247.665778-35.271111 260.408889-80.327111 0.796444-2.844444 1.28-5.688889 1.28-8.590223V272.298667c0 35.896889-57.912889 61.155556-142.392889 76.487111z m-268.515556 81.92c-11.036444 8.049778-27.420444 15.758222-47.36 22.328889-12.999111 4.266667-27.164444 8.021333-42.268444 11.178666a486.513778 486.513778 0 0 1-22.869334 4.181334c-31.715556 5.091556-66.56 7.765333-102.513777 7.765333-62.947556 0-122.481778-8.220444-167.68-23.125333-19.911111-6.570667-36.323556-14.279111-47.36-22.300445-8.504889-6.172444-11.377778-10.808889-11.832889-12.259555 0.455111-1.450667 3.328-6.087111 11.832889-12.259556 11.036444-8.021333 27.420444-15.758222 47.36-22.328889 45.198222-14.904889 104.732444-23.125333 167.68-23.125333 35.953778 0 70.826667 2.702222 102.513777 7.765333a423.537778 423.537778 0 0 1 65.137778 15.36c19.911111 6.570667 36.323556 14.307556 47.36 22.300445 8.504889 6.200889 11.377778 10.808889 11.832889 12.288-0.455111 1.422222-3.328 6.087111-11.832889 12.231111z" fill="" p-id="4431"></path></svg>