<?xml version="1.0" standalone="no"?><!DOCTYPE svg PUBLIC "-//W3C//DTD SVG 1.1//EN" "http://www.w3.org/Graphics/SVG/1.1/DTD/svg11.dtd"><svg height="1024" node-id="1" sillyvg="true" template-height="1024" template-width="1024" version="1.1" viewBox="0 0 1024 1024" width="1024" xmlns="http://www.w3.org/2000/svg" xmlns:xlink="http://www.w3.org/1999/xlink"><defs node-id="222"><linearGradient gradientUnits="objectBoundingBox" id="SVGID_1_" node-id="5" spreadMethod="pad" x1="78.8052" x2="917.7887" y1="512" y2="512"><stop offset="0" stop-color="#dae2ef"></stop><stop offset="1" stop-color="#f2f2f2"></stop></linearGradient><linearGradient gradientUnits="objectBoundingBox" id="SVGID_2_" node-id="10" spreadMethod="pad" x1="398.4456" x2="550.6326" y1="1699.3845" y2="1699.3845"><stop offset="0" stop-color="#c7d3dd"></stop><stop offset="1" stop-color="#b6c4ce"></stop></linearGradient><linearGradient gradientUnits="objectBoundingBox" id="SVGID_3_" node-id="37" spreadMethod="pad" x1="724.4975" x2="966.4609" y1="605.5641" y2="605.5641"><stop offset="0" stop-color="#b7c5ce"></stop><stop offset="1" stop-color="#b6c4ce"></stop></linearGradient><linearGradient gradientUnits="objectBoundingBox" id="SVGID_4_" node-id="69" spreadMethod="pad" x1="131.5349" x2="865.059" y1="823.6009" y2="823.6009"><stop offset="0" stop-color="#cfdee5"></stop><stop offset="1" stop-color="#c7d3dd"></stop></linearGradient><linearGradient gradientUnits="objectBoundingBox" id="SVGID_5_" node-id="75" spreadMethod="pad" x1="738.9312" x2="812.2634" y1="735.6428" y2="735.6428"><stop offset="0" stop-color="#f2f4f7"></stop><stop offset="1" stop-color="#f2f2f2"></stop></linearGradient><linearGradient gradientUnits="objectBoundingBox" id="SVGID_6_" node-id="79" spreadMethod="pad" x1="604.8681" x2="738.9312" y1="743.8785" y2="743.8785"><stop offset="0" stop-color="#f2f4f7"></stop><stop offset="1" stop-color="#f2f2f2"></stop></linearGradient><linearGradient gradientUnits="objectBoundingBox" id="SVGID_7_" node-id="85" spreadMethod="pad" x1="632.4385" x2="674.5279" y1="856.2589" y2="856.2589"><stop offset="0" stop-color="#f2f4f7"></stop><stop offset="1" stop-color="#f2f2f2"></stop></linearGradient><linearGradient gradientUnits="objectBoundingBox" id="SVGID_8_" node-id="89" spreadMethod="pad" x1="555.4922" x2="632.4385" y1="860.9858" y2="860.9858"><stop offset="0" stop-color="#f2f4f7"></stop><stop offset="1" stop-color="#f2f2f2"></stop></linearGradient><linearGradient gradientUnits="objectBoundingBox" id="SVGID_9_" node-id="94" spreadMethod="pad" x1="198.0702" x2="501.0755" y1="730.7634" y2="730.7634"><stop offset="0" stop-color="#d3dae5"></stop><stop offset="1" stop-color="#f2f2f2"></stop></linearGradient><linearGradient gradientUnits="objectBoundingBox" id="SVGID_10_" node-id="98" spreadMethod="pad" x1="384.4579" x2="501.0755" y1="809.8138" y2="809.8138"><stop offset="0" stop-color="#f2f4f7"></stop><stop offset="1" stop-color="#f2f2f2"></stop></linearGradient><linearGradient gradientUnits="objectBoundingBox" id="SVGID_11_" node-id="102" spreadMethod="pad" x1="198.0702" x2="384.4579" y1="824.4933" y2="824.4933"><stop offset="0" stop-color="#edf2f9"></stop><stop offset="1" stop-color="#f2f2f2"></stop></linearGradient><linearGradient gradientUnits="objectBoundingBox" id="SVGID_12_" node-id="107" spreadMethod="pad" x1="-93.0475" x2="198.6187" y1="777.9648" y2="777.9648"><stop offset="0" stop-color="#c7d3dd"></stop><stop offset="1" stop-color="#b6c4ce"></stop></linearGradient><linearGradient gradientUnits="objectBoundingBox" id="SVGID_13_" node-id="140" spreadMethod="pad" x1="-99.1968" x2="104.9187" y1="1826.3339" y2="1826.3339"><stop offset="0" stop-color="#b7c5ce"></stop><stop offset="1" stop-color="#b6c4ce"></stop></linearGradient><linearGradient gradientUnits="objectBoundingBox" id="SVGID_14_" node-id="173" spreadMethod="pad" x1="143.1094" x2="422.1132" y1="612.1638" y2="612.1638"><stop offset="0" stop-color="#d3dae5"></stop><stop offset="1" stop-color="#f2f2f2"></stop></linearGradient><linearGradient gradientUnits="objectBoundingBox" id="SVGID_15_" node-id="177" spreadMethod="pad" x1="323.4612" x2="422.1132" y1="677.5678" y2="677.5678"><stop offset="0" stop-color="#f2f4f7"></stop><stop offset="1" stop-color="#f2f2f2"></stop></linearGradient><linearGradient gradientUnits="objectBoundingBox" id="SVGID_16_" node-id="181" spreadMethod="pad" x1="143.1094" x2="323.4612" y1="688.6471" y2="688.6471"><stop offset="0" stop-color="#edf2f9"></stop><stop offset="1" stop-color="#f2f2f2"></stop></linearGradient><linearGradient gradientUnits="objectBoundingBox" id="SVGID_17_" node-id="189" spreadMethod="pad" x1="595.0558" x2="661.4502" y1="413.9174" y2="413.9174"><stop offset="0" stop-color="#c7d3dd"></stop><stop offset="1" stop-color="#b6c4ce"></stop></linearGradient><linearGradient gradientUnits="objectBoundingBox" id="SVGID_18_" node-id="193" spreadMethod="pad" x1="392.8548" x2="444.1595" y1="285.6555" y2="285.6555"><stop offset="0" stop-color="#c7d3dd"></stop><stop offset="1" stop-color="#b6c4ce"></stop></linearGradient><linearGradient gradientUnits="objectBoundingBox" id="SVGID_19_" node-id="197" spreadMethod="pad" x1="362.6755" x2="383.801" y1="333.9424" y2="333.9424"><stop offset="0" stop-color="#c7d3dd"></stop><stop offset="1" stop-color="#b6c4ce"></stop></linearGradient><linearGradient gradientUnits="objectBoundingBox" id="SVGID_20_" node-id="201" spreadMethod="pad" x1="973.3026" x2="1017.5655" y1="589.9631" y2="589.9631"><stop offset="0" stop-color="#c7d3dd"></stop><stop offset="1" stop-color="#b6c4ce"></stop></linearGradient><linearGradient gradientUnits="objectBoundingBox" id="SVGID_21_" node-id="205" spreadMethod="pad" x1="34.7275" x2="70.9427" y1="328.4095" y2="328.4095"><stop offset="0" stop-color="#c7d3dd"></stop><stop offset="1" stop-color="#b6c4ce"></stop></linearGradient><linearGradient gradientUnits="objectBoundingBox" id="SVGID_22_" node-id="209" spreadMethod="pad" x1="6.4345" x2="24.7935" y1="456.0426" y2="456.0426"><stop offset="0" stop-color="#c7d3dd"></stop><stop offset="1" stop-color="#b6c4ce"></stop></linearGradient><linearGradient gradientUnits="objectBoundingBox" id="SVGID_23_" node-id="213" spreadMethod="pad" x1="20.0151" x2="33.8473" y1="491.126" y2="491.126"><stop offset="0" stop-color="#c7d3dd"></stop><stop offset="1" stop-color="#b6c4ce"></stop></linearGradient><linearGradient gradientUnits="objectBoundingBox" id="SVGID_24_" node-id="217" spreadMethod="pad" x1="689.6176" x2="725.8326" y1="388.768" y2="388.768"><stop offset="0" stop-color="#c7d3dd"></stop><stop offset="1" stop-color="#b6c4ce"></stop></linearGradient></defs><path d="M 917.80 512.00 L 917.60 526.00 L 916.90 539.80 L 915.70 553.50 L 914.20 567.20 L 912.10 580.70 L 909.70 594.20 L 906.10 610.30 L 902.00 626.20 L 897.20 641.80 L 891.80 657.30 L 885.90 672.50 L 879.30 687.60 L 872.20 702.30 L 864.50 716.70 L 856.20 730.90 L 847.30 744.70 L 839.50 756.00 L 831.40 767.00 L 822.80 777.80 L 813.90 788.30 L 804.60 798.60 L 794.90 808.60 L 784.90 818.30 L 774.60 827.60 L 764.10 836.50 L 753.30 845.10 L 742.30 853.20 L 731.00 861.00 L 717.20 869.90 L 703.00 878.20 L 688.60 885.90 L 673.90 893.00 L 658.80 899.60 L 643.60 905.50 L 628.10 910.90 L 612.50 915.70 L 596.60 919.80 L 580.50 923.40 L 567.00 925.80 L 553.50 927.90 L 539.80 929.40 L 526.10 930.60 L 512.30 931.30 L 498.30 931.50 L 484.30 931.30 L 470.50 930.60 L 456.80 929.40 L 443.10 927.90 L 429.60 925.80 L 416.10 923.40 L 400.00 919.80 L 384.10 915.70 L 368.50 910.90 L 353.00 905.50 L 337.80 899.60 L 322.70 893.00 L 308.00 885.90 L 293.60 878.20 L 279.40 869.90 L 265.60 861.00 L 254.30 853.20 L 243.30 845.10 L 232.50 836.50 L 222.00 827.60 L 211.70 818.30 L 201.70 808.60 L 192.00 798.60 L 182.70 788.30 L 173.80 777.80 L 165.20 767.00 L 157.10 756.00 L 149.30 744.70 L 140.40 730.90 L 132.10 716.70 L 124.40 702.30 L 117.30 687.60 L 110.70 672.50 L 104.80 657.30 L 99.40 641.80 L 94.60 626.20 L 90.50 610.30 L 86.90 594.20 L 84.50 580.70 L 82.40 567.20 L 80.90 553.50 L 79.70 539.80 L 79.00 526.00 L 78.80 512.00 L 79.00 498.00 L 79.70 484.20 L 80.90 470.50 L 82.40 456.80 L 84.50 443.30 L 86.90 429.80 L 90.50 413.70 L 94.60 397.80 L 99.40 382.20 L 104.80 366.70 L 110.70 351.50 L 117.30 336.40 L 124.40 321.70 L 132.10 307.30 L 140.40 293.10 L 149.30 279.30 L 157.10 268.00 L 165.20 257.00 L 173.80 246.20 L 182.70 235.70 L 192.00 225.40 L 201.70 215.40 L 211.70 205.70 L 222.00 196.40 L 232.50 187.50 L 243.30 178.90 L 254.30 170.80 L 265.60 163.00 L 279.40 154.10 L 293.60 145.80 L 308.00 138.10 L 322.70 131.00 L 337.80 124.40 L 353.00 118.50 L 368.50 113.10 L 384.10 108.30 L 400.00 104.20 L 416.10 100.60 L 429.60 98.20 L 443.10 96.10 L 456.80 94.60 L 470.50 93.40 L 484.30 92.70 L 498.30 92.50 L 512.30 92.70 L 526.10 93.40 L 539.80 94.60 L 553.50 96.10 L 567.00 98.20 L 580.50 100.60 L 596.60 104.20 L 612.50 108.30 L 628.10 113.10 L 643.60 118.50 L 658.80 124.40 L 673.90 131.00 L 688.60 138.10 L 703.00 145.80 L 717.20 154.10 L 731.00 163.00 L 742.30 170.80 L 753.30 178.90 L 764.10 187.50 L 774.60 196.40 L 784.90 205.70 L 794.90 215.40 L 804.60 225.40 L 813.90 235.70 L 822.80 246.20 L 831.40 257.00 L 839.50 268.00 L 847.30 279.30 L 856.20 293.10 L 864.50 307.30 L 872.20 321.70 L 879.30 336.40 L 885.90 351.50 L 891.80 366.70 L 897.20 382.20 L 902.00 397.80 L 906.10 413.70 L 909.70 429.80 L 912.10 443.30 L 914.20 456.80 L 915.70 470.50 L 916.90 484.20 L 917.60 498.00 L 917.80 512.00 Z" fill="url(#SVGID_1_)" fill-rule="nonzero" node-id="371" stroke="none" target-height="839" target-width="839" target-x="78.8" target-y="92.5"></path><g node-id="682"><path d="M 775.90 569.80 L 775.10 568.00 L 774.70 565.80 L 774.70 563.00 L 775.20 558.70 L 781.70 531.10 L 782.20 527.30 L 782.40 520.20 L 782.00 516.90 L 781.10 513.80 L 779.80 511.00 L 778.50 509.10 L 774.70 505.90 L 772.20 504.50 L 769.70 503.70 L 767.20 503.60 L 764.60 504.10 L 759.50 506.60 L 756.80 508.60 L 752.90 512.10 L 748.90 516.30 L 733.60 534.50 L 730.00 538.50 L 726.60 541.60 L 722.20 544.40 L 720.30 545.00 L 716.60 545.30 L 711.80 544.90 L 689.90 541.80 L 684.40 541.50 L 679.40 541.80 L 676.30 542.30 L 673.60 543.30 L 671.30 544.70 L 669.80 546.00 L 668.50 547.70 L 666.80 552.20 L 666.50 555.10 L 666.90 557.60 L 667.70 559.80 L 669.00 561.80 L 670.80 563.70 L 672.90 565.40 L 676.50 567.70 L 689.10 574.00 L 693.10 576.10 L 696.50 578.40 L 698.50 580.10 L 700.00 582.00 L 701.10 583.90 L 701.70 586.00 L 701.80 588.50 L 701.20 591.30 L 700.00 594.00 L 698.50 596.00 L 696.70 597.50 L 694.60 598.70 L 689.60 600.00 L 685.50 600.30 L 667.30 599.40 L 660.60 599.90 L 656.30 601.60 L 654.60 602.90 L 653.20 604.70 L 652.10 607.10 L 651.70 609.00 L 652.10 612.50 L 654.10 616.10 L 656.00 618.00 L 662.30 622.50 L 680.80 632.70 L 684.60 635.30 L 686.90 637.30 L 688.60 639.30 L 689.90 641.40 L 690.70 644.80 L 690.00 648.70 L 689.00 650.60 L 687.90 652.10 L 686.40 653.20 L 684.70 654.00 L 682.20 654.60 L 679.20 654.90 L 675.80 654.80 L 670.50 654.10 L 646.50 649.10 L 641.00 648.50 L 637.30 648.40 L 634.10 648.80 L 631.20 649.50 L 629.20 650.40 L 627.40 651.60 L 625.90 653.20 L 624.60 655.10 L 623.70 657.30 L 623.20 659.30 L 623.50 662.90 L 624.40 665.20 L 625.80 667.50 L 627.70 669.80 L 631.20 673.00 L 648.90 685.90 L 652.80 689.30 L 655.10 691.80 L 656.90 694.40 L 658.40 697.00 L 659.50 701.30 L 659.20 706.10 L 655.80 718.70 L 646.90 745.80 L 638.60 768.10 L 661.70 778.40 L 672.80 757.30 L 687.00 732.70 L 694.20 721.80 L 695.80 719.90 L 699.50 717.20 L 704.50 715.70 L 707.70 715.40 L 711.20 715.50 L 716.50 716.10 L 738.30 720.90 L 743.00 721.50 L 746.10 721.40 L 748.80 721.00 L 751.20 720.20 L 752.70 719.20 L 754.10 717.90 L 755.30 716.20 L 756.30 714.10 L 756.90 711.80 L 757.00 709.60 L 756.80 707.50 L 756.10 705.50 L 754.70 702.80 L 752.80 700.20 L 750.30 697.50 L 746.20 693.80 L 726.40 679.20 L 722.40 675.70 L 720.00 673.20 L 718.30 670.80 L 717.10 668.50 L 716.60 666.70 L 716.40 664.80 L 716.70 663.00 L 717.50 661.00 L 720.00 657.90 L 723.10 656.20 L 725.40 655.80 L 728.10 655.70 L 731.10 656.10 L 735.60 657.20 L 755.50 664.20 L 763.10 666.00 L 765.70 666.00 L 769.80 665.20 L 772.60 663.20 L 773.80 661.60 L 774.90 659.20 L 775.30 657.00 L 775.10 654.80 L 773.50 650.50 L 769.50 645.20 L 756.70 632.20 L 754.10 628.90 L 751.80 624.30 L 751.30 622.00 L 751.20 619.60 L 751.70 617.20 L 752.90 614.50 L 754.60 612.20 L 756.40 610.60 L 758.40 609.60 L 760.60 609.10 L 763.00 609.10 L 765.60 609.40 L 773.80 612.00 L 786.90 617.20 L 793.80 618.80 L 798.70 618.50 L 800.90 617.60 L 803.00 616.20 L 805.00 614.10 L 807.30 609.80 L 807.70 605.80 L 807.30 603.20 L 806.30 600.50 L 804.70 597.80 L 801.70 594.00 L 797.90 590.10 L 781.50 576.10 L 778.10 572.70 L 775.90 569.80 Z" fill="url(#SVGID_2_)" fill-rule="nonzero" group-id="1" node-id="375" stroke="none" target-height="274.80002" target-width="184.5" target-x="623.2" target-y="503.6"></path><g node-id="691"><path d="M 759.40 532.70 L 747.40 561.70 L 735.00 590.60 L 709.40 648.00 L 689.60 690.70 L 669.30 733.20 L 655.30 761.30 L 667.30 732.30 L 692.40 674.70 L 725.00 603.40 L 745.40 560.80 L 759.40 532.70 Z" fill="#ffffff" fill-rule="nonzero" group-id="1,10" node-id="379" stroke="none" target-height="228.59998" target-width="104.10004" target-x="655.3" target-y="532.7"></path></g><g node-id="692"><path d="M 736.30 581.90 L 747.00 577.90 L 752.50 576.30 L 758.10 575.30 L 752.70 577.00 L 747.60 579.30 L 737.70 584.70 L 736.30 581.90 Z" fill="#ffffff" fill-rule="nonzero" group-id="1,11" node-id="384" stroke="none" target-height="9.400024" target-width="21.799988" target-x="736.3" target-y="575.3"></path></g><g node-id="693"><path d="M 727.50 601.10 L 738.20 597.10 L 743.70 595.50 L 749.30 594.50 L 743.90 596.20 L 738.80 598.50 L 728.90 603.90 L 727.50 601.10 Z" fill="#ffffff" fill-rule="nonzero" group-id="1,12" node-id="389" stroke="none" target-height="9.400024" target-width="21.799988" target-x="727.5" target-y="594.5"></path></g><g node-id="694"><path d="M 719.70 619.90 L 730.40 615.90 L 735.90 614.30 L 741.50 613.30 L 736.10 615.00 L 731.00 617.30 L 721.10 622.70 L 719.70 619.90 Z" fill="#ffffff" fill-rule="nonzero" group-id="1,13" node-id="394" stroke="none" target-height="9.400024" target-width="21.799988" target-x="719.7" target-y="613.3"></path></g><g node-id="695"><path d="M 710.70 639.50 L 724.00 634.30 L 729.60 633.00 L 732.50 633.00 L 729.70 633.40 L 727.00 634.20 L 721.90 636.60 L 712.10 642.20 L 710.70 639.50 Z" fill="#ffffff" fill-rule="nonzero" group-id="1,14" node-id="399" stroke="none" target-height="9.200012" target-width="21.799988" target-x="710.7" target-y="633"></path></g><g node-id="696"><path d="M 703.90 655.30 L 714.60 651.30 L 720.10 649.70 L 725.70 648.70 L 720.30 650.40 L 715.20 652.70 L 705.30 658.10 L 703.90 655.30 Z" fill="#ffffff" fill-rule="nonzero" group-id="1,15" node-id="404" stroke="none" target-height="9.399963" target-width="21.799988" target-x="703.9" target-y="648.7"></path></g><g node-id="697"><path d="M 693.40 676.50 L 704.10 672.50 L 709.60 670.90 L 715.20 669.90 L 709.80 671.60 L 704.70 673.90 L 694.80 679.30 L 693.40 676.50 Z" fill="#ffffff" fill-rule="nonzero" group-id="1,16" node-id="409" stroke="none" target-height="9.399963" target-width="21.799988" target-x="693.4" target-y="669.9"></path></g><g node-id="698"><path d="M 730.60 592.30 L 731.20 587.70 L 730.90 583.20 L 729.60 578.80 L 727.30 574.70 L 728.90 576.50 L 731.40 580.60 L 733.00 585.30 L 733.40 587.70 L 733.60 592.60 L 730.60 592.30 Z" fill="#ffffff" fill-rule="nonzero" group-id="1,17" node-id="414" stroke="none" target-height="17.899963" target-width="6.299988" target-x="727.3" target-y="574.7"></path></g><g node-id="699"><path d="M 721.00 613.20 L 721.60 608.60 L 721.30 604.10 L 720.00 599.70 L 717.70 595.60 L 719.30 597.40 L 721.80 601.50 L 723.40 606.20 L 723.80 608.60 L 724.00 613.50 L 721.00 613.20 Z" fill="#ffffff" fill-rule="nonzero" group-id="1,18" node-id="419" stroke="none" target-height="17.900024" target-width="6.299988" target-x="717.7" target-y="595.6"></path></g><g node-id="700"><path d="M 711.50 633.10 L 712.10 628.50 L 711.80 624.00 L 710.50 619.60 L 708.20 615.50 L 709.80 617.30 L 712.30 621.40 L 713.90 626.10 L 714.30 628.50 L 714.50 633.40 L 711.50 633.10 Z" fill="#ffffff" fill-rule="nonzero" group-id="1,19" node-id="424" stroke="none" target-height="17.900024" target-width="6.299988" target-x="708.2" target-y="615.5"></path></g><path d="M 704.20 651.90 L 704.80 647.30 L 704.50 642.80 L 703.20 638.40 L 700.90 634.30 L 702.50 636.10 L 705.00 640.20 L 706.60 644.90 L 707.00 647.30 L 707.20 652.20 L 704.20 651.90 Z" fill="#ffffff" fill-rule="nonzero" group-id="1,20" node-id="429" stroke="none" target-height="17.900024" target-width="6.299988" target-x="700.9" target-y="634.3"></path></g><g node-id="683"><path d="M 724.50 767.80 L 729.80 745.70 L 740.40 706.60 L 750.60 672.90 L 756.60 654.50 L 770.20 616.40 L 777.80 597.10 L 785.90 577.80 L 791.60 565.00 L 803.70 540.60 L 810.20 528.70 L 816.80 517.40 L 823.50 506.70 L 830.70 496.40 L 837.90 486.90 L 845.20 478.30 L 851.10 472.00 L 857.00 466.40 L 862.80 461.50 L 868.70 457.10 L 875.00 453.10 L 881.30 449.80 L 887.60 447.10 L 894.00 445.20 L 899.20 444.10 L 904.40 443.40 L 909.80 443.30 L 915.20 443.60 L 920.80 444.50 L 928.10 446.30 L 934.50 448.40 L 940.20 450.80 L 945.10 453.50 L 949.30 456.40 L 953.40 459.90 L 956.80 463.70 L 959.70 467.70 L 962.00 472.00 L 963.90 476.60 L 965.20 481.40 L 966.00 486.40 L 966.40 491.80 L 966.30 497.60 L 965.70 503.70 L 964.30 511.10 L 962.30 518.90 L 959.60 527.30 L 956.00 536.30 L 952.00 544.80 L 947.40 553.70 L 942.10 563.10 L 936.00 572.90 L 922.80 592.00 L 906.90 612.20 L 895.60 625.50 L 883.30 639.00 L 870.00 652.80 L 856.30 666.20 L 841.80 679.60 L 826.50 693.20 L 810.80 706.30 L 794.50 719.20 L 777.60 732.00 L 760.30 744.30 L 742.60 756.20 L 724.50 767.80 Z" fill="url(#SVGID_3_)" fill-rule="nonzero" group-id="2" node-id="435" stroke="none" target-height="324.5" target-width="241.90002" target-x="724.5" target-y="443.3"></path><g node-id="702"><path d="M 751.30 730.60 L 759.10 712.40 L 767.50 694.40 L 776.40 676.60 L 785.60 659.10 L 795.30 641.80 L 805.40 624.70 L 816.00 607.90 L 827.00 591.40 L 834.70 580.60 L 850.90 559.60 L 863.90 544.50 L 877.70 530.20 L 885.00 523.40 L 892.50 516.80 L 900.30 510.70 L 908.40 504.90 L 914.00 501.30 L 925.70 495.00 L 931.80 492.30 L 938.00 490.10 L 944.30 488.30 L 938.10 490.60 L 926.20 496.20 L 915.00 502.90 L 901.80 512.70 L 894.30 519.10 L 880.10 532.70 L 871.10 542.30 L 862.50 552.10 L 854.10 562.30 L 842.10 577.90 L 825.00 602.00 L 808.80 626.80 L 798.50 643.60 L 788.40 660.70 L 775.70 683.80 L 751.30 730.60 Z" fill="#ffffff" fill-rule="nonzero" group-id="2,21" node-id="439" stroke="none" target-height="242.29999" target-width="193" target-x="751.3" target-y="488.3"></path></g><path d="M 889.60 515.40 L 892.30 507.20 L 892.70 502.70 L 892.20 501.20 L 891.40 500.40 L 890.70 500.30 L 889.30 501.80 L 888.80 503.30 L 888.40 508.30 L 889.60 515.40 Z" fill="#ffffff" fill-rule="nonzero" group-id="2" node-id="442" stroke="none" target-height="15.100037" target-width="4.299988" target-x="888.4" target-y="500.3"></path><path d="M 877.00 527.40 L 877.70 518.80 L 877.00 514.40 L 876.20 513.00 L 875.30 512.30 L 874.60 512.40 L 873.60 514.10 L 873.50 515.70 L 874.30 520.70 L 877.00 527.40 Z" fill="#ffffff" fill-rule="nonzero" group-id="2" node-id="444" stroke="none" target-height="15.100037" target-width="4.200012" target-x="873.5" target-y="512.3"></path><path d="M 861.50 542.30 L 863.40 533.80 L 863.30 529.30 L 862.70 527.90 L 861.80 527.10 L 861.10 527.10 L 860.30 527.70 L 859.80 528.70 L 859.50 530.30 L 859.60 535.40 L 861.50 542.30 Z" fill="#ffffff" fill-rule="nonzero" group-id="2" node-id="446" stroke="none" target-height="15.200012" target-width="3.9000244" target-x="859.5" target-y="527.1"></path><path d="M 848.80 557.30 L 850.10 548.70 L 849.70 544.20 L 849.00 542.80 L 848.10 542.10 L 847.40 542.10 L 846.70 542.80 L 846.20 543.80 L 846.00 545.50 L 846.40 550.50 L 848.80 557.30 Z" fill="#ffffff" fill-rule="nonzero" group-id="2" node-id="448" stroke="none" target-height="15.200012" target-width="4.0999756" target-x="846" target-y="542.1"></path><path d="M 836.70 574.20 L 837.80 565.60 L 837.30 561.10 L 836.50 559.70 L 835.50 559.00 L 834.80 559.10 L 834.20 559.70 L 833.80 560.80 L 833.60 562.50 L 834.20 567.50 L 836.70 574.20 Z" fill="#ffffff" fill-rule="nonzero" group-id="2" node-id="450" stroke="none" target-height="15.200012" target-width="4.200012" target-x="833.6" target-y="559"></path><path d="M 823.50 589.60 L 825.00 581.10 L 824.80 576.50 L 824.10 575.10 L 823.20 574.40 L 822.50 574.40 L 821.80 575.00 L 821.40 576.10 L 821.10 577.70 L 821.40 582.80 L 823.50 589.60 Z" fill="#ffffff" fill-rule="nonzero" group-id="2" node-id="452" stroke="none" target-height="15.199951" target-width="3.9000244" target-x="821.1" target-y="574.4"></path><path d="M 811.80 608.20 L 813.20 599.70 L 812.90 595.10 L 812.20 593.70 L 811.30 593.00 L 810.60 593.00 L 809.90 593.60 L 809.40 594.60 L 809.20 596.30 L 809.60 601.30 L 811.80 608.20 Z" fill="#ffffff" fill-rule="nonzero" group-id="2" node-id="454" stroke="none" target-height="15.200012" target-width="4" target-x="809.2" target-y="593"></path><path d="M 801.20 625.20 L 802.80 616.70 L 802.60 612.20 L 801.90 610.80 L 801.00 610.10 L 800.30 610.10 L 799.60 610.70 L 799.10 611.70 L 798.80 613.30 L 799.10 618.40 L 801.20 625.20 Z" fill="#ffffff" fill-rule="nonzero" group-id="2" node-id="456" stroke="none" target-height="15.100037" target-width="4" target-x="798.8" target-y="610.1"></path><path d="M 793.90 640.50 L 793.90 631.80 L 792.90 627.50 L 792.00 626.20 L 791.00 625.60 L 790.30 625.70 L 789.70 626.50 L 789.40 627.50 L 789.40 629.20 L 790.60 634.10 L 793.90 640.50 Z" fill="#ffffff" fill-rule="nonzero" group-id="2" node-id="458" stroke="none" target-height="14.900024" target-width="4.5" target-x="789.4" target-y="625.6"></path><path d="M 783.90 656.40 L 785.30 647.90 L 785.00 643.30 L 784.30 641.90 L 783.40 641.20 L 782.70 641.20 L 782.00 641.90 L 781.50 642.90 L 781.30 644.60 L 781.70 649.60 L 783.90 656.40 Z" fill="#ffffff" fill-rule="nonzero" group-id="2" node-id="460" stroke="none" target-height="15.200012" target-width="4" target-x="781.3" target-y="641.2"></path><path d="M 774.90 673.80 L 776.10 665.20 L 775.70 660.70 L 775.00 659.30 L 774.00 658.60 L 773.30 658.70 L 772.60 659.30 L 772.20 660.40 L 772.00 662.00 L 772.50 667.00 L 774.90 673.80 Z" fill="#ffffff" fill-rule="nonzero" group-id="2" node-id="462" stroke="none" target-height="15.200012" target-width="4.0999756" target-x="772" target-y="658.6"></path><path d="M 765.70 693.00 L 767.30 684.50 L 767.20 680.00 L 766.50 678.60 L 765.60 677.90 L 764.90 677.80 L 764.20 678.40 L 763.70 679.40 L 763.40 681.10 L 763.60 686.10 L 765.70 693.00 Z" fill="#ffffff" fill-rule="nonzero" group-id="2" node-id="464" stroke="none" target-height="15.200012" target-width="3.8999634" target-x="763.4" target-y="677.8"></path><path d="M 757.20 710.20 L 758.30 701.60 L 757.90 697.10 L 757.20 695.70 L 756.20 695.00 L 755.50 695.10 L 754.90 695.70 L 754.40 696.80 L 754.20 698.40 L 754.80 703.40 L 757.20 710.20 Z" fill="#ffffff" fill-rule="nonzero" group-id="2" node-id="466" stroke="none" target-height="15.200012" target-width="4.0999756" target-x="754.2" target-y="695"></path><path d="M 912.30 511.30 L 920.50 508.70 L 925.00 508.30 L 926.50 508.80 L 927.30 509.60 L 927.40 510.30 L 926.90 511.10 L 925.90 511.70 L 924.40 512.20 L 919.40 512.50 L 912.30 511.30 Z" fill="#ffffff" fill-rule="nonzero" group-id="2" node-id="468" stroke="none" target-height="4.200012" target-width="15.100037" target-x="912.3" target-y="508.3"></path><path d="M 893.40 526.20 L 901.60 523.60 L 906.10 523.20 L 907.60 523.70 L 908.40 524.50 L 908.60 525.20 L 908.10 526.00 L 907.10 526.60 L 905.50 527.10 L 900.50 527.40 L 893.40 526.20 Z" fill="#ffffff" fill-rule="nonzero" group-id="2" node-id="470" stroke="none" target-height="4.200012" target-width="15.199951" target-x="893.4" target-y="523.2"></path><path d="M 878.20 540.50 L 886.40 537.90 L 890.90 537.50 L 892.40 538.00 L 893.20 538.80 L 893.40 539.50 L 892.80 540.20 L 891.90 540.80 L 890.30 541.30 L 885.30 541.70 L 878.20 540.50 Z" fill="#ffffff" fill-rule="nonzero" group-id="2" node-id="472" stroke="none" target-height="4.200012" target-width="15.200012" target-x="878.2" target-y="537.5"></path><path d="M 863.00 556.70 L 871.20 554.10 L 875.70 553.70 L 877.20 554.20 L 878.00 555.00 L 878.20 555.70 L 877.70 556.50 L 876.70 557.10 L 875.10 557.60 L 870.10 557.90 L 863.00 556.70 Z" fill="#ffffff" fill-rule="nonzero" group-id="2" node-id="474" stroke="none" target-height="4.200012" target-width="15.200012" target-x="863" target-y="553.7"></path><path d="M 851.50 572.50 L 859.70 569.90 L 864.20 569.50 L 865.70 570.00 L 866.50 570.80 L 866.70 571.50 L 866.10 572.30 L 865.20 572.90 L 863.60 573.40 L 858.60 573.70 L 851.50 572.50 Z" fill="#ffffff" fill-rule="nonzero" group-id="2" node-id="476" stroke="none" target-height="4.200012" target-width="15.200012" target-x="851.5" target-y="569.5"></path><path d="M 839.70 588.10 L 847.90 585.50 L 852.40 585.10 L 853.90 585.60 L 854.70 586.40 L 854.90 587.10 L 853.40 588.40 L 851.80 588.90 L 846.80 589.30 L 839.70 588.10 Z" fill="#ffffff" fill-rule="nonzero" group-id="2" node-id="478" stroke="none" target-height="4.200012" target-width="15.200012" target-x="839.7" target-y="585.1"></path><path d="M 824.80 607.50 L 833.00 604.90 L 837.50 604.50 L 839.00 605.00 L 839.80 605.80 L 840.00 606.50 L 839.50 607.30 L 838.50 607.90 L 836.90 608.40 L 831.90 608.70 L 824.80 607.50 Z" fill="#ffffff" fill-rule="nonzero" group-id="2" node-id="480" stroke="none" target-height="4.200012" target-width="15.200012" target-x="824.8" target-y="604.5"></path><path d="M 816.00 623.50 L 824.20 620.90 L 828.70 620.50 L 830.20 621.00 L 831.00 621.80 L 831.20 622.50 L 830.70 623.30 L 829.70 623.90 L 828.10 624.40 L 823.10 624.70 L 816.00 623.50 Z" fill="#ffffff" fill-rule="nonzero" group-id="2" node-id="482" stroke="none" target-height="4.200012" target-width="15.200012" target-x="816" target-y="620.5"></path><path d="M 806.70 638.50 L 814.90 635.90 L 819.40 635.50 L 820.90 636.00 L 821.70 636.80 L 821.80 637.50 L 821.30 638.30 L 820.30 638.90 L 818.80 639.40 L 813.80 639.70 L 806.70 638.50 Z" fill="#ffffff" fill-rule="nonzero" group-id="2" node-id="484" stroke="none" target-height="4.200012" target-width="15.099976" target-x="806.7" target-y="635.5"></path><path d="M 795.70 655.80 L 803.90 653.20 L 808.40 652.80 L 809.90 653.30 L 810.70 654.10 L 810.90 654.80 L 810.40 655.60 L 809.40 656.20 L 807.80 656.70 L 802.80 657.00 L 795.70 655.80 Z" fill="#ffffff" fill-rule="nonzero" group-id="2" node-id="486" stroke="none" target-height="4.200012" target-width="15.200012" target-x="795.7" target-y="652.8"></path><path d="M 787.60 671.10 L 795.80 668.50 L 800.30 668.10 L 801.80 668.60 L 802.60 669.40 L 802.70 670.10 L 801.20 671.50 L 799.70 672.00 L 794.70 672.30 L 787.60 671.10 Z" fill="#ffffff" fill-rule="nonzero" group-id="2" node-id="488" stroke="none" target-height="4.200012" target-width="15.100037" target-x="787.6" target-y="668.1"></path><path d="M 777.60 689.30 L 785.80 686.70 L 790.30 686.30 L 791.80 686.80 L 792.60 687.60 L 792.80 688.30 L 791.30 689.60 L 789.70 690.10 L 784.70 690.50 L 777.60 689.30 Z" fill="#ffffff" fill-rule="nonzero" group-id="2" node-id="490" stroke="none" target-height="4.200012" target-width="15.200012" target-x="777.6" target-y="686.3"></path><path d="M 768.40 705.00 L 776.60 702.40 L 781.10 702.00 L 782.60 702.50 L 783.40 703.30 L 783.60 704.00 L 783.10 704.80 L 782.10 705.40 L 780.50 705.90 L 775.50 706.20 L 768.40 705.00 Z" fill="#ffffff" fill-rule="nonzero" group-id="2" node-id="492" stroke="none" target-height="4.200012" target-width="15.199951" target-x="768.4" target-y="702"></path></g><path d="M 131.50 715.70 L 138.90 728.50 L 146.70 740.90 L 154.90 753.00 L 163.50 764.90 L 172.60 776.40 L 182.00 787.60 L 191.80 798.40 L 201.90 808.90 L 212.50 819.10 L 223.40 828.80 L 234.60 838.30 L 246.10 847.30 L 257.90 855.90 L 270.10 864.10 L 282.60 871.90 L 295.30 879.20 L 308.30 886.10 L 321.60 892.60 L 335.10 898.60 L 349.00 904.20 L 363.00 909.20 L 377.20 913.80 L 391.60 917.80 L 406.30 921.40 L 421.30 924.50 L 436.30 927.00 L 451.50 928.90 L 466.90 930.30 L 482.50 931.20 L 498.30 931.50 L 514.10 931.20 L 529.70 930.30 L 545.10 928.90 L 560.30 927.00 L 575.30 924.50 L 590.20 921.40 L 604.90 917.80 L 619.40 913.80 L 633.60 909.20 L 647.60 904.20 L 661.40 898.60 L 675.00 892.60 L 688.30 886.10 L 701.30 879.20 L 714.00 871.90 L 726.50 864.10 L 738.60 855.90 L 750.50 847.30 L 762.00 838.30 L 773.20 828.80 L 784.10 819.10 L 794.60 808.90 L 804.80 798.40 L 814.60 787.60 L 824.00 776.40 L 833.00 764.90 L 841.70 753.00 L 849.90 740.90 L 857.70 728.50 L 865.10 715.70 L 131.50 715.70 Z" fill="url(#SVGID_4_)" fill-rule="nonzero" node-id="495" stroke="none" target-height="215.79999" target-width="733.6" target-x="131.5" target-y="715.7"></path><g node-id="684"><path d="M 738.90 711.80 L 604.90 685.00 L 685.20 644.40 L 812.30 668.50 Z" fill="#ffffff" fill-rule="nonzero" group-id="3" node-id="499" stroke="none" target-height="67.39996" target-width="207.39996" target-x="604.9" target-y="644.4"></path><path d="M 812.30 759.00 L 738.90 802.80 L 738.90 711.80 L 812.30 668.50 Z" fill="url(#SVGID_5_)" fill-rule="nonzero" group-id="3" node-id="501" stroke="none" target-height="134.29999" target-width="73.39996" target-x="738.9" target-y="668.5"></path><path d="M 604.90 685.00 L 738.90 711.80 L 738.90 802.80 L 604.90 771.50 Z" fill="url(#SVGID_6_)" fill-rule="nonzero" group-id="3" node-id="503" stroke="none" target-height="117.79999" target-width="134" target-x="604.9" target-y="685"></path></g><g node-id="685"><path d="M 632.40 842.60 L 555.50 827.20 L 601.60 803.90 L 674.50 817.70 Z" fill="#ffffff" fill-rule="nonzero" group-id="4" node-id="508" stroke="none" target-height="38.69995" target-width="119" target-x="555.5" target-y="803.9"></path><path d="M 674.50 869.70 L 632.40 894.80 L 632.40 842.60 L 674.50 817.70 Z" fill="url(#SVGID_7_)" fill-rule="nonzero" group-id="4" node-id="510" stroke="none" target-height="77.099976" target-width="42.099976" target-x="632.4" target-y="817.7"></path><path d="M 555.50 827.20 L 632.40 842.60 L 632.40 894.80 L 555.50 876.90 Z" fill="url(#SVGID_8_)" fill-rule="nonzero" group-id="4" node-id="512" stroke="none" target-height="67.599976" target-width="76.900024" target-x="555.5" target-y="827.2"></path></g><g node-id="686"><path d="M 384.50 784.90 L 198.10 736.90 L 337.60 676.60 L 501.10 707.50 Z" fill="url(#SVGID_9_)" fill-rule="nonzero" group-id="5" node-id="517" stroke="none" target-height="108.30005" target-width="303" target-x="198.1" target-y="676.6"></path><path d="M 501.10 829.30 L 384.50 912.10 L 384.50 784.90 L 501.10 707.50 Z" fill="url(#SVGID_10_)" fill-rule="nonzero" group-id="5" node-id="519" stroke="none" target-height="204.59998" target-width="116.600006" target-x="384.5" target-y="707.5"></path><path d="M 198.10 736.90 L 384.50 784.90 L 384.50 912.10 L 198.10 858.10 Z" fill="url(#SVGID_11_)" fill-rule="nonzero" group-id="5" node-id="521" stroke="none" target-height="175.19995" target-width="186.4" target-x="198.1" target-y="736.9"></path></g><g node-id="687"><path d="M 288.30 702.80 L 282.50 679.20 L 271.10 637.30 L 260.10 601.30 L 253.60 581.50 L 246.60 561.50 L 238.90 540.80 L 230.70 520.10 L 221.90 499.50 L 215.70 485.90 L 202.70 459.70 L 195.70 447.00 L 188.60 435.00 L 181.40 423.60 L 169.80 407.30 L 158.00 393.20 L 151.70 386.50 L 145.40 380.60 L 139.10 375.30 L 132.80 370.60 L 127.40 367.10 L 122.00 364.10 L 116.60 361.60 L 111.20 359.50 L 105.70 357.90 L 100.20 356.70 L 94.50 356.10 L 88.80 356.00 L 83.00 356.40 L 77.00 357.30 L 69.20 359.20 L 62.30 361.50 L 56.30 364.10 L 51.00 367.00 L 46.50 370.20 L 42.80 373.30 L 39.60 376.60 L 36.90 380.10 L 34.50 383.80 L 32.50 387.70 L 30.90 391.90 L 29.60 397.00 L 28.70 402.40 L 28.30 408.10 L 28.40 414.30 L 29.10 420.90 L 30.20 427.10 L 33.80 440.70 L 39.60 455.70 L 43.90 464.80 L 48.80 474.40 L 54.60 484.40 L 61.20 494.90 L 75.40 515.20 L 83.50 525.90 L 101.40 547.40 L 121.20 569.00 L 132.10 580.10 L 146.80 594.40 L 162.40 608.80 L 178.80 623.20 L 195.70 637.20 L 213.20 651.00 L 231.30 664.60 L 249.90 677.80 L 268.90 690.50 L 288.30 702.80 Z" fill="url(#SVGID_12_)" fill-rule="nonzero" group-id="6" node-id="526" stroke="none" target-height="346.8" target-width="260" target-x="28.3" target-y="356"></path><g node-id="703"><path d="M 259.40 663.10 L 249.80 644.20 L 229.60 606.90 L 208.30 570.30 L 197.20 552.30 L 185.70 534.50 L 173.80 517.00 L 161.40 499.90 L 148.50 483.20 L 139.50 472.30 L 130.20 461.80 L 120.60 451.60 L 113.10 444.20 L 105.30 437.10 L 97.20 430.30 L 88.90 423.90 L 83.10 419.90 L 71.10 412.60 L 64.80 409.50 L 58.40 406.70 L 51.70 404.30 L 58.50 406.20 L 65.20 408.60 L 71.70 411.50 L 84.20 418.20 L 90.20 422.00 L 98.90 428.20 L 107.30 434.80 L 115.40 441.70 L 123.10 449.00 L 137.90 464.30 L 151.90 480.40 L 169.30 502.80 L 185.60 526.00 L 200.90 549.90 L 211.80 568.20 L 222.20 586.70 L 232.20 605.40 L 241.80 624.40 L 250.90 643.60 L 259.40 663.10 Z" fill="#ffffff" fill-rule="nonzero" group-id="6,22" node-id="530" stroke="none" target-height="258.8" target-width="207.7" target-x="51.7" target-y="404.3"></path></g><path d="M 110.70 433.10 L 107.80 424.30 L 107.40 419.50 L 107.90 417.90 L 108.70 417.00 L 109.50 416.90 L 110.30 417.40 L 110.90 418.40 L 111.50 420.10 L 111.90 425.50 L 110.70 433.10 Z" fill="#ffffff" fill-rule="nonzero" group-id="6" node-id="533" stroke="none" target-height="16.200012" target-width="4.5" target-x="107.4" target-y="416.9"></path><path d="M 124.10 445.90 L 123.30 436.70 L 124.00 431.90 L 124.90 430.40 L 125.90 429.70 L 126.70 429.80 L 127.40 430.50 L 127.80 431.60 L 127.90 433.40 L 127.10 438.80 L 124.10 445.90 Z" fill="#ffffff" fill-rule="nonzero" group-id="6" node-id="535" stroke="none" target-height="16.199982" target-width="4.5999985" target-x="123.3" target-y="429.7"></path><path d="M 140.80 461.70 L 138.80 452.70 L 138.80 447.90 L 139.50 446.30 L 140.50 445.50 L 141.20 445.50 L 142.00 446.10 L 142.50 447.20 L 142.90 448.90 L 142.80 454.30 L 140.80 461.70 Z" fill="#ffffff" fill-rule="nonzero" group-id="6" node-id="537" stroke="none" target-height="16.200012" target-width="4.099991" target-x="138.8" target-y="445.5"></path><path d="M 154.40 477.80 L 153.00 468.60 L 153.40 463.80 L 154.20 462.30 L 155.20 461.60 L 156.00 461.60 L 156.70 462.30 L 157.10 463.30 L 157.40 465.10 L 156.90 470.50 L 154.40 477.80 Z" fill="#ffffff" fill-rule="nonzero" group-id="6" node-id="539" stroke="none" target-height="16.199982" target-width="4.399994" target-x="153" target-y="461.6"></path><path d="M 167.50 495.90 L 166.40 486.70 L 166.90 481.90 L 167.70 480.40 L 168.70 479.70 L 169.50 479.70 L 170.20 480.40 L 170.60 481.60 L 170.80 483.30 L 170.20 488.70 L 167.50 495.90 Z" fill="#ffffff" fill-rule="nonzero" group-id="6" node-id="541" stroke="none" target-height="16.199982" target-width="4.400009" target-x="166.4" target-y="479.7"></path><path d="M 181.60 512.40 L 179.90 503.30 L 180.20 498.40 L 180.90 496.90 L 181.90 496.10 L 182.60 496.10 L 183.40 496.80 L 183.90 497.90 L 184.20 499.60 L 183.90 505.10 L 181.60 512.40 Z" fill="#ffffff" fill-rule="nonzero" group-id="6" node-id="543" stroke="none" target-height="16.300018" target-width="4.300003" target-x="179.9" target-y="496.1"></path><path d="M 194.20 532.20 L 192.70 523.10 L 193.00 518.20 L 193.70 516.70 L 194.70 515.90 L 195.40 515.90 L 196.20 516.60 L 196.70 517.70 L 196.90 519.40 L 196.60 524.90 L 194.20 532.20 Z" fill="#ffffff" fill-rule="nonzero" group-id="6" node-id="545" stroke="none" target-height="16.299988" target-width="4.199997" target-x="192.7" target-y="515.9"></path><path d="M 205.70 550.40 L 204.00 541.30 L 204.20 536.40 L 204.90 534.90 L 205.90 534.10 L 206.60 534.10 L 207.40 534.80 L 207.90 535.90 L 208.20 537.70 L 207.90 543.10 L 205.70 550.40 Z" fill="#ffffff" fill-rule="nonzero" group-id="6" node-id="547" stroke="none" target-height="16.300049" target-width="4.199997" target-x="204" target-y="534.1"></path><path d="M 213.50 566.70 L 213.50 557.40 L 214.50 552.70 L 215.50 551.30 L 216.60 550.70 L 217.30 550.90 L 217.90 551.60 L 218.20 552.80 L 218.20 554.60 L 217.00 559.90 L 213.50 566.70 Z" fill="#ffffff" fill-rule="nonzero" group-id="6" node-id="549" stroke="none" target-height="16" target-width="4.699997" target-x="213.5" target-y="550.7"></path><path d="M 224.30 583.70 L 222.80 574.60 L 223.10 569.70 L 223.80 568.20 L 224.80 567.50 L 225.60 567.50 L 226.30 568.20 L 226.80 569.30 L 227.10 571.00 L 226.70 576.40 L 224.30 583.70 Z" fill="#ffffff" fill-rule="nonzero" group-id="6" node-id="551" stroke="none" target-height="16.200012" target-width="4.300003" target-x="222.8" target-y="567.5"></path><path d="M 234.00 602.30 L 232.70 593.10 L 233.10 588.30 L 233.90 586.80 L 234.90 586.10 L 235.60 586.10 L 236.40 586.80 L 236.80 587.90 L 237.10 589.70 L 236.60 595.10 L 234.00 602.30 Z" fill="#ffffff" fill-rule="nonzero" group-id="6" node-id="553" stroke="none" target-height="16.200012" target-width="4.400009" target-x="232.7" target-y="586.1"></path><path d="M 243.90 622.90 L 242.10 613.80 L 242.30 609.00 L 243.00 607.40 L 243.90 606.60 L 244.70 606.60 L 245.50 607.30 L 246.00 608.30 L 246.30 610.10 L 246.10 615.50 L 243.90 622.90 Z" fill="#ffffff" fill-rule="nonzero" group-id="6" node-id="555" stroke="none" target-height="16.300049" target-width="4.199997" target-x="242.1" target-y="606.6"></path><path d="M 253.00 641.20 L 251.70 632.00 L 252.20 627.20 L 253.00 625.70 L 254.00 625.00 L 254.70 625.00 L 255.50 625.70 L 255.90 626.80 L 256.20 628.60 L 255.60 634.00 L 253.00 641.20 Z" fill="#ffffff" fill-rule="nonzero" group-id="6" node-id="557" stroke="none" target-height="16.200012" target-width="4.5000153" target-x="251.7" target-y="625"></path><path d="M 86.30 428.70 L 77.40 425.90 L 72.60 425.50 L 71.00 426.00 L 70.10 426.90 L 70.10 427.60 L 70.60 428.50 L 71.70 429.10 L 73.40 429.70 L 78.70 430.00 L 86.30 428.70 Z" fill="#ffffff" fill-rule="nonzero" group-id="6" node-id="559" stroke="none" target-height="4.5" target-width="16.200005" target-x="70.1" target-y="425.5"></path><path d="M 106.50 444.70 L 97.60 441.90 L 92.80 441.50 L 91.20 442.00 L 90.30 442.90 L 90.30 443.60 L 90.80 444.50 L 91.90 445.10 L 93.60 445.70 L 98.90 446.00 L 106.50 444.70 Z" fill="#ffffff" fill-rule="nonzero" group-id="6" node-id="561" stroke="none" target-height="4.5" target-width="16.199997" target-x="90.3" target-y="441.5"></path><path d="M 122.90 459.90 L 114.00 457.10 L 109.20 456.70 L 107.60 457.20 L 106.70 458.10 L 106.70 458.80 L 107.20 459.70 L 108.30 460.30 L 110.00 460.90 L 115.30 461.20 L 122.90 459.90 Z" fill="#ffffff" fill-rule="nonzero" group-id="6" node-id="563" stroke="none" target-height="4.5" target-width="16.200005" target-x="106.7" target-y="456.7"></path><path d="M 139.20 477.20 L 130.30 474.40 L 125.50 474.00 L 123.90 474.50 L 123.00 475.40 L 122.90 476.20 L 123.50 477.00 L 124.50 477.70 L 126.20 478.20 L 131.60 478.60 L 139.20 477.20 Z" fill="#ffffff" fill-rule="nonzero" group-id="6" node-id="565" stroke="none" target-height="4.600006" target-width="16.299995" target-x="122.9" target-y="474"></path><path d="M 151.60 494.10 L 142.70 491.30 L 137.90 490.90 L 136.30 491.40 L 135.40 492.30 L 135.30 493.00 L 135.90 493.90 L 136.90 494.50 L 138.60 495.10 L 144.00 495.40 L 151.60 494.10 Z" fill="#ffffff" fill-rule="nonzero" group-id="6" node-id="567" stroke="none" target-height="4.5" target-width="16.300003" target-x="135.3" target-y="490.9"></path><path d="M 164.30 510.70 L 155.40 507.90 L 150.60 507.50 L 149.00 508.00 L 148.10 508.90 L 148.00 509.70 L 148.60 510.50 L 149.60 511.10 L 151.30 511.70 L 156.70 512.10 L 164.30 510.70 Z" fill="#ffffff" fill-rule="nonzero" group-id="6" node-id="569" stroke="none" target-height="4.5999756" target-width="16.300003" target-x="148" target-y="507.5"></path><path d="M 180.30 531.50 L 171.40 528.70 L 166.60 528.30 L 165.00 528.80 L 164.10 529.70 L 164.00 530.40 L 164.60 531.20 L 165.60 531.90 L 167.30 532.40 L 172.70 532.80 L 180.30 531.50 Z" fill="#ffffff" fill-rule="nonzero" group-id="6" node-id="571" stroke="none" target-height="4.5" target-width="16.300003" target-x="164" target-y="528.3"></path><path d="M 189.80 548.60 L 180.90 545.80 L 176.10 545.40 L 174.50 545.90 L 173.60 546.80 L 173.50 547.50 L 174.10 548.40 L 175.10 549.00 L 176.80 549.60 L 182.20 549.90 L 189.80 548.60 Z" fill="#ffffff" fill-rule="nonzero" group-id="6" node-id="573" stroke="none" target-height="4.5" target-width="16.300003" target-x="173.5" target-y="545.4"></path><path d="M 199.80 564.60 L 190.90 561.80 L 186.10 561.40 L 184.50 561.90 L 183.60 562.80 L 183.50 563.50 L 184.10 564.40 L 185.10 565.00 L 186.80 565.60 L 192.20 565.90 L 199.80 564.60 Z" fill="#ffffff" fill-rule="nonzero" group-id="6" node-id="575" stroke="none" target-height="4.5" target-width="16.300003" target-x="183.5" target-y="561.4"></path><path d="M 211.60 583.10 L 202.70 580.30 L 197.90 579.90 L 196.30 580.40 L 195.40 581.30 L 195.40 582.00 L 195.90 582.90 L 197.00 583.50 L 198.70 584.10 L 204.00 584.40 L 211.60 583.10 Z" fill="#ffffff" fill-rule="nonzero" group-id="6" node-id="577" stroke="none" target-height="4.5" target-width="16.200012" target-x="195.4" target-y="579.9"></path><path d="M 220.40 599.50 L 211.50 596.70 L 206.70 596.30 L 205.10 596.80 L 204.20 597.70 L 204.10 598.40 L 204.70 599.20 L 205.70 599.90 L 207.40 600.40 L 212.80 600.80 L 220.40 599.50 Z" fill="#ffffff" fill-rule="nonzero" group-id="6" node-id="579" stroke="none" target-height="4.5" target-width="16.299988" target-x="204.1" target-y="596.3"></path><path d="M 231.20 618.90 L 222.30 616.10 L 217.50 615.70 L 215.90 616.20 L 215.00 617.10 L 214.90 617.80 L 215.50 618.70 L 216.50 619.30 L 218.20 619.90 L 223.60 620.20 L 231.20 618.90 Z" fill="#ffffff" fill-rule="nonzero" group-id="6" node-id="581" stroke="none" target-height="4.5" target-width="16.300003" target-x="214.9" target-y="615.7"></path><path d="M 241.00 635.80 L 232.10 633.00 L 227.30 632.60 L 225.70 633.10 L 224.80 634.00 L 224.70 634.70 L 225.30 635.50 L 226.30 636.20 L 228.00 636.70 L 233.40 637.10 L 241.00 635.80 Z" fill="#ffffff" fill-rule="nonzero" group-id="6" node-id="583" stroke="none" target-height="4.5" target-width="16.300003" target-x="224.7" target-y="632.6"></path></g><g node-id="688"><path d="M 274.80 679.30 L 281.60 645.30 L 286.30 616.70 L 288.70 600.20 L 292.60 565.00 L 293.90 546.70 L 294.70 528.10 L 294.90 515.80 L 294.20 491.90 L 293.20 480.10 L 291.80 468.90 L 290.00 458.40 L 288.30 450.50 L 286.20 443.10 L 283.90 436.30 L 281.30 430.00 L 278.20 423.80 L 274.80 418.20 L 271.10 413.20 L 267.10 408.90 L 263.50 405.70 L 259.70 403.00 L 255.60 400.70 L 251.10 398.80 L 246.40 397.30 L 240.20 396.00 L 234.70 395.40 L 229.70 395.40 L 225.20 395.80 L 221.10 396.70 L 217.00 398.10 L 213.30 400.00 L 209.90 402.30 L 206.90 405.10 L 204.10 408.30 L 201.80 411.80 L 199.70 415.80 L 197.80 420.10 L 196.20 425.00 L 194.90 430.50 L 193.80 437.10 L 193.10 444.40 L 192.80 452.40 L 193.00 461.20 L 194.60 478.80 L 197.90 498.70 L 200.90 512.10 L 204.60 526.20 L 209.00 541.10 L 214.00 555.80 L 219.60 571.00 L 225.90 586.60 L 232.60 602.00 L 240.00 617.60 L 248.00 633.30 L 256.40 648.70 L 265.30 664.10 L 274.80 679.30 Z" fill="url(#SVGID_13_)" fill-rule="nonzero" group-id="7" node-id="588" stroke="none" target-height="283.9" target-width="102.09999" target-x="192.8" target-y="395.4"></path><g node-id="704"><path d="M 268.60 645.40 L 266.70 605.90 L 264.00 571.50 L 260.50 542.00 L 258.30 527.40 L 255.70 512.90 L 252.70 498.40 L 250.40 488.80 L 244.80 470.00 L 239.70 456.20 L 236.70 449.50 L 233.50 442.90 L 229.90 436.50 L 225.80 430.30 L 219.60 422.70 L 216.20 419.10 L 223.50 425.80 L 226.80 429.60 L 231.30 435.50 L 235.40 441.80 L 240.20 450.60 L 244.50 459.60 L 248.20 468.80 L 254.40 487.70 L 256.90 497.40 L 260.20 512.00 L 262.80 526.60 L 265.00 541.40 L 266.70 556.10 L 268.00 571.00 L 268.90 585.80 L 269.60 615.50 L 269.30 630.50 L 268.60 645.40 Z" fill="#ffffff" fill-rule="nonzero" group-id="7,23" node-id="592" stroke="none" target-height="226.30002" target-width="53.40001" target-x="216.2" target-y="419.1"></path></g><path d="M 244.60 455.30 L 245.40 448.90 L 246.60 445.70 L 247.40 444.80 L 248.20 444.50 L 248.80 444.60 L 249.20 446.10 L 249.10 447.30 L 247.10 451.90 L 244.60 455.30 Z" fill="#ffffff" fill-rule="nonzero" group-id="7" node-id="595" stroke="none" target-height="10.799988" target-width="4.599991" target-x="244.6" target-y="444.5"></path><path d="M 249.20 467.40 L 251.50 461.30 L 253.40 458.50 L 254.40 457.90 L 255.30 457.80 L 255.70 458.00 L 255.80 459.50 L 255.40 460.70 L 253.20 463.80 L 249.20 467.40 Z" fill="#ffffff" fill-rule="nonzero" group-id="7" node-id="597" stroke="none" target-height="9.600006" target-width="6.600006" target-x="249.2" target-y="457.8"></path><path d="M 254.90 482.50 L 256.40 476.20 L 257.90 473.20 L 258.80 472.40 L 259.60 472.20 L 260.10 472.40 L 260.40 473.00 L 260.40 474.40 L 259.40 476.80 L 257.80 479.30 L 254.90 482.50 Z" fill="#ffffff" fill-rule="nonzero" group-id="7" node-id="599" stroke="none" target-height="10.299988" target-width="5.5" target-x="254.9" target-y="472.2"></path><path d="M 258.70 496.70 L 260.60 490.50 L 262.30 487.60 L 263.30 486.90 L 264.10 486.70 L 264.60 487.00 L 264.80 487.60 L 264.60 489.00 L 263.50 491.40 L 261.70 493.80 L 258.70 496.70 Z" fill="#ffffff" fill-rule="nonzero" group-id="7" node-id="601" stroke="none" target-height="10" target-width="6.0999756" target-x="258.7" target-y="486.7"></path><path d="M 261.40 512.10 L 263.50 506.00 L 265.20 503.10 L 266.20 502.40 L 267.10 502.30 L 267.50 502.50 L 267.80 503.20 L 267.50 504.60 L 266.40 506.90 L 264.50 509.20 L 261.40 512.10 Z" fill="#ffffff" fill-rule="nonzero" group-id="7" node-id="603" stroke="none" target-height="9.799988" target-width="6.399994" target-x="261.4" target-y="502.3"></path><path d="M 265.30 526.80 L 267.00 520.60 L 268.70 517.60 L 269.60 516.80 L 270.40 516.60 L 270.90 516.80 L 271.20 517.50 L 271.00 518.90 L 270.00 521.30 L 268.30 523.80 L 265.30 526.80 Z" fill="#ffffff" fill-rule="nonzero" group-id="7" node-id="605" stroke="none" target-height="10.200012" target-width="5.9000244" target-x="265.3" target-y="516.6"></path><path d="M 267.20 543.10 L 269.00 536.90 L 270.70 533.90 L 271.60 533.20 L 272.40 533.00 L 272.90 533.20 L 273.20 533.90 L 273.00 535.30 L 272.00 537.60 L 270.20 540.10 L 267.20 543.10 Z" fill="#ffffff" fill-rule="nonzero" group-id="7" node-id="607" stroke="none" target-height="10.099976" target-width="6" target-x="267.2" target-y="533"></path><path d="M 268.90 558.10 L 270.60 551.80 L 272.20 548.80 L 273.10 548.10 L 274.00 547.90 L 274.50 548.10 L 274.70 549.60 L 274.40 550.80 L 271.90 555.00 L 268.90 558.10 Z" fill="#ffffff" fill-rule="nonzero" group-id="7" node-id="609" stroke="none" target-height="10.199951" target-width="5.8000183" target-x="268.9" target-y="547.9"></path><path d="M 268.90 570.70 L 271.70 564.80 L 273.80 562.20 L 274.80 561.60 L 275.70 561.60 L 276.10 561.90 L 276.10 563.40 L 275.60 564.50 L 273.20 567.40 L 268.90 570.70 Z" fill="#ffffff" fill-rule="nonzero" group-id="7" node-id="611" stroke="none" target-height="9.100037" target-width="7.200012" target-x="268.9" target-y="561.6"></path><path d="M 270.60 584.70 L 272.40 578.50 L 274.10 575.50 L 275.00 574.80 L 275.80 574.60 L 276.30 574.90 L 276.60 575.50 L 276.40 576.90 L 275.40 579.30 L 273.60 581.70 L 270.60 584.70 Z" fill="#ffffff" fill-rule="nonzero" group-id="7" node-id="613" stroke="none" target-height="10.100037" target-width="6" target-x="270.6" target-y="574.6"></path><path d="M 271.00 599.40 L 272.90 593.20 L 274.60 590.30 L 275.60 589.60 L 276.50 589.40 L 276.90 589.70 L 277.20 590.30 L 277.00 591.70 L 275.90 594.10 L 274.10 596.40 L 271.00 599.40 Z" fill="#ffffff" fill-rule="nonzero" group-id="7" node-id="615" stroke="none" target-height="10" target-width="6.200012" target-x="271" target-y="589.4"></path><path d="M 271.00 615.40 L 272.60 609.10 L 274.20 606.10 L 275.10 605.40 L 276.00 605.20 L 276.50 605.40 L 276.80 606.80 L 276.50 608.00 L 274.00 612.30 L 271.00 615.40 Z" fill="#ffffff" fill-rule="nonzero" group-id="7" node-id="617" stroke="none" target-height="10.200012" target-width="5.799988" target-x="271" target-y="605.2"></path><path d="M 271.20 629.70 L 273.20 623.50 L 274.90 620.60 L 275.90 619.90 L 276.80 619.80 L 277.20 620.00 L 277.40 621.60 L 277.00 622.70 L 274.30 626.80 L 271.20 629.70 Z" fill="#ffffff" fill-rule="nonzero" group-id="7" node-id="619" stroke="none" target-height="9.900024" target-width="6.1999817" target-x="271.2" target-y="619.8"></path><path d="M 230.60 445.10 L 225.90 440.70 L 223.00 439.00 L 221.80 438.80 L 221.00 439.10 L 220.70 439.50 L 220.80 440.20 L 221.60 441.30 L 223.70 442.80 L 226.50 444.00 L 230.60 445.10 Z" fill="#ffffff" fill-rule="nonzero" group-id="7" node-id="621" stroke="none" target-height="6.3000183" target-width="9.900009" target-x="220.7" target-y="438.8"></path><path d="M 238.50 461.30 L 233.80 456.90 L 230.90 455.20 L 229.70 455.00 L 228.90 455.30 L 228.60 455.70 L 228.70 456.40 L 229.50 457.50 L 231.60 459.00 L 234.40 460.20 L 238.50 461.30 Z" fill="#ffffff" fill-rule="nonzero" group-id="7" node-id="623" stroke="none" target-height="6.299988" target-width="9.899994" target-x="228.6" target-y="455"></path><path d="M 244.20 475.90 L 239.50 471.50 L 236.60 469.80 L 235.40 469.60 L 234.60 469.90 L 234.30 470.30 L 234.40 471.00 L 235.20 472.10 L 237.30 473.60 L 240.10 474.80 L 244.20 475.90 Z" fill="#ffffff" fill-rule="nonzero" group-id="7" node-id="625" stroke="none" target-height="6.299988" target-width="9.899994" target-x="234.3" target-y="469.6"></path><path d="M 249.20 491.80 L 244.50 487.40 L 241.60 485.70 L 240.40 485.50 L 239.60 485.80 L 239.30 486.20 L 239.40 486.90 L 240.20 488.00 L 242.30 489.50 L 245.10 490.70 L 249.20 491.80 Z" fill="#ffffff" fill-rule="nonzero" group-id="7" node-id="627" stroke="none" target-height="6.299988" target-width="9.899994" target-x="239.3" target-y="485.5"></path><path d="M 251.90 506.20 L 247.20 501.80 L 244.30 500.10 L 243.10 499.90 L 242.30 500.20 L 242.00 500.60 L 242.10 501.30 L 242.90 502.40 L 245.00 503.90 L 247.80 505.10 L 251.90 506.20 Z" fill="#ffffff" fill-rule="nonzero" group-id="7" node-id="629" stroke="none" target-height="6.3000183" target-width="9.899994" target-x="242" target-y="499.9"></path><path d="M 254.80 520.50 L 250.10 516.10 L 247.20 514.40 L 246.00 514.20 L 245.20 514.50 L 244.90 514.90 L 245.00 515.60 L 245.80 516.70 L 247.90 518.20 L 250.70 519.40 L 254.80 520.50 Z" fill="#ffffff" fill-rule="nonzero" group-id="7" node-id="631" stroke="none" target-height="6.299988" target-width="9.900009" target-x="244.9" target-y="514.2"></path><path d="M 258.70 538.50 L 254.00 534.10 L 251.10 532.40 L 249.90 532.20 L 249.00 532.50 L 248.70 532.90 L 249.30 534.30 L 250.20 535.10 L 253.50 537.00 L 258.70 538.50 Z" fill="#ffffff" fill-rule="nonzero" group-id="7" node-id="633" stroke="none" target-height="6.299988" target-width="10.000015" target-x="248.7" target-y="532.2"></path><path d="M 259.40 552.10 L 254.70 547.70 L 251.80 546.00 L 250.60 545.80 L 249.80 546.10 L 249.50 546.50 L 249.60 547.20 L 250.40 548.30 L 252.50 549.80 L 255.30 551.00 L 259.40 552.10 Z" fill="#ffffff" fill-rule="nonzero" group-id="7" node-id="635" stroke="none" target-height="6.299988" target-width="9.899994" target-x="249.5" target-y="545.8"></path><path d="M 260.90 565.30 L 256.20 560.90 L 253.30 559.20 L 252.10 559.00 L 251.30 559.30 L 251.00 559.70 L 251.10 560.40 L 251.90 561.50 L 255.70 563.80 L 260.90 565.30 Z" fill="#ffffff" fill-rule="nonzero" group-id="7" node-id="637" stroke="none" target-height="6.299988" target-width="9.899994" target-x="251" target-y="559"></path><path d="M 262.70 580.50 L 258.00 576.10 L 255.10 574.40 L 253.90 574.20 L 253.10 574.50 L 252.80 574.90 L 252.90 575.60 L 253.70 576.70 L 255.80 578.20 L 258.60 579.40 L 262.70 580.50 Z" fill="#ffffff" fill-rule="nonzero" group-id="7" node-id="639" stroke="none" target-height="6.299988" target-width="9.900009" target-x="252.8" target-y="574.2"></path><path d="M 263.30 593.50 L 258.60 589.10 L 255.70 587.40 L 254.50 587.20 L 253.70 587.50 L 253.40 587.90 L 253.50 588.60 L 254.30 589.70 L 256.40 591.20 L 259.20 592.40 L 263.30 593.50 Z" fill="#ffffff" fill-rule="nonzero" group-id="7" node-id="641" stroke="none" target-height="6.299988" target-width="9.899994" target-x="253.4" target-y="587.2"></path><path d="M 264.20 609.00 L 259.50 604.60 L 256.60 602.90 L 255.40 602.70 L 254.60 603.00 L 254.30 603.40 L 254.40 604.10 L 255.20 605.20 L 257.30 606.70 L 260.10 607.90 L 264.20 609.00 Z" fill="#ffffff" fill-rule="nonzero" group-id="7" node-id="643" stroke="none" target-height="6.299988" target-width="9.900009" target-x="254.3" target-y="602.7"></path><path d="M 265.30 622.60 L 260.60 618.20 L 257.70 616.50 L 256.50 616.30 L 255.70 616.60 L 255.40 617.00 L 255.50 617.70 L 256.30 618.80 L 258.40 620.30 L 261.20 621.50 L 265.30 622.60 Z" fill="#ffffff" fill-rule="nonzero" group-id="7" node-id="645" stroke="none" target-height="6.299988" target-width="9.899994" target-x="255.4" target-y="616.3"></path></g><g node-id="689"><path d="M 323.50 657.40 L 143.10 621.40 L 251.10 566.90 L 422.10 599.30 Z" fill="url(#SVGID_14_)" fill-rule="nonzero" group-id="8" node-id="650" stroke="none" target-height="90.5" target-width="279" target-x="143.1" target-y="566.9"></path><path d="M 422.10 697.00 L 323.50 755.90 L 323.50 657.40 L 422.10 599.30 Z" fill="url(#SVGID_15_)" fill-rule="nonzero" group-id="8" node-id="652" stroke="none" target-height="156.60004" target-width="98.600006" target-x="323.5" target-y="599.3"></path><path d="M 143.10 621.40 L 323.50 657.40 L 323.50 755.90 L 143.10 713.80 Z" fill="url(#SVGID_16_)" fill-rule="nonzero" group-id="8" node-id="654" stroke="none" target-height="134.5" target-width="180.4" target-x="143.1" target-y="621.4"></path></g><g node-id="690"><path d="M 424.20 531.70 L 243.80 495.70 L 351.80 441.10 L 522.80 473.50 Z" fill="#4dd1ff" fill-rule="nonzero" group-id="9" node-id="659" stroke="none" target-height="90.600006" target-width="279" target-x="243.8" target-y="441.1"></path><path d="M 522.80 595.30 L 424.20 654.10 L 424.20 531.70 L 522.80 473.50 Z" fill="#64deff" fill-rule="nonzero" group-id="9" node-id="661" stroke="none" target-height="180.59998" target-width="98.599976" target-x="424.2" target-y="473.5"></path><path d="M 243.80 495.70 L 424.20 531.70 L 424.20 654.10 L 243.80 612.10 Z" fill="#21b9ff" fill-rule="nonzero" group-id="9" node-id="663" stroke="none" target-height="158.39996" target-width="180.40001" target-x="243.8" target-y="495.7"></path></g><path d="M 661.50 413.90 L 661.20 418.30 L 660.40 422.50 L 659.00 426.60 L 657.10 430.50 L 654.70 434.10 L 651.80 437.40 L 648.50 440.30 L 644.90 442.70 L 641.00 444.60 L 636.90 446.00 L 632.70 446.80 L 628.30 447.10 L 623.90 446.80 L 619.70 446.00 L 615.60 444.60 L 611.70 442.70 L 608.10 440.30 L 604.80 437.40 L 601.90 434.10 L 599.50 430.50 L 597.60 426.60 L 596.20 422.50 L 595.40 418.30 L 595.10 413.90 L 595.40 409.50 L 596.20 405.30 L 597.60 401.20 L 599.50 397.30 L 601.90 393.70 L 604.80 390.40 L 608.10 387.50 L 611.70 385.10 L 615.60 383.20 L 619.70 381.80 L 623.90 381.00 L 628.30 380.70 L 632.70 381.00 L 636.90 381.80 L 641.00 383.20 L 644.90 385.10 L 648.50 387.50 L 651.80 390.40 L 654.70 393.70 L 657.10 397.30 L 659.00 401.20 L 660.40 405.30 L 661.20 409.50 L 661.50 413.90 Z" fill="url(#SVGID_17_)" fill-rule="nonzero" node-id="666" stroke="none" target-height="66.399994" target-width="66.400024" target-x="595.1" target-y="380.7"></path><path d="M 444.20 285.70 L 444.00 289.10 L 443.30 292.40 L 442.20 295.50 L 440.80 298.50 L 438.90 301.30 L 436.70 303.90 L 434.10 306.10 L 431.30 308.00 L 428.30 309.40 L 425.20 310.50 L 421.90 311.20 L 418.50 311.40 L 415.10 311.20 L 411.80 310.50 L 408.70 309.40 L 405.70 308.00 L 402.90 306.10 L 400.30 303.90 L 398.10 301.30 L 396.20 298.50 L 394.80 295.50 L 393.70 292.40 L 393.00 289.10 L 392.80 285.70 L 393.00 282.30 L 393.70 279.00 L 394.80 275.90 L 396.20 272.90 L 398.10 270.10 L 400.30 267.50 L 402.90 265.30 L 405.70 263.40 L 408.70 262.00 L 411.80 260.90 L 415.10 260.20 L 418.50 260.00 L 421.90 260.20 L 425.20 260.90 L 428.30 262.00 L 431.30 263.40 L 434.10 265.30 L 436.70 267.50 L 438.90 270.10 L 440.80 272.90 L 442.20 275.90 L 443.30 279.00 L 444.00 282.30 L 444.20 285.70 Z" fill="url(#SVGID_18_)" fill-rule="nonzero" node-id="668" stroke="none" target-height="51.399994" target-width="51.400024" target-x="392.8" target-y="260"></path><path d="M 383.80 333.90 L 383.60 336.00 L 383.00 338.00 L 382.00 339.80 L 380.70 341.40 L 379.10 342.70 L 377.30 343.70 L 375.30 344.30 L 373.20 344.50 L 371.10 344.30 L 369.10 343.70 L 367.30 342.70 L 365.70 341.40 L 364.40 339.80 L 363.40 338.00 L 362.80 336.00 L 362.60 333.90 L 362.80 331.80 L 363.40 329.80 L 364.40 328.00 L 365.70 326.40 L 367.30 325.10 L 369.10 324.10 L 371.10 323.50 L 373.20 323.30 L 375.30 323.50 L 377.30 324.10 L 379.10 325.10 L 380.70 326.40 L 382.00 328.00 L 383.00 329.80 L 383.60 331.80 L 383.80 333.90 Z" fill="url(#SVGID_19_)" fill-rule="nonzero" node-id="670" stroke="none" target-height="21.200012" target-width="21.199982" target-x="362.6" target-y="323.3"></path><path d="M 1017.50 590.00 L 1017.30 593.10 L 1015.80 598.60 L 1014.50 601.20 L 1012.30 604.30 L 1009.70 606.90 L 1006.60 609.10 L 1004.00 610.40 L 998.50 611.90 L 995.40 612.10 L 992.30 611.90 L 986.80 610.40 L 984.20 609.10 L 981.10 606.90 L 978.50 604.30 L 976.30 601.20 L 974.10 595.90 L 973.50 593.10 L 973.30 590.00 L 974.10 584.10 L 976.30 578.80 L 978.50 575.70 L 981.10 573.10 L 984.20 570.90 L 986.80 569.60 L 992.30 568.10 L 995.40 567.90 L 998.50 568.10 L 1004.00 569.60 L 1006.60 570.90 L 1009.70 573.10 L 1012.30 575.70 L 1014.50 578.80 L 1015.80 581.40 L 1017.30 586.90 L 1017.50 590.00 Z" fill="url(#SVGID_20_)" fill-rule="nonzero" node-id="672" stroke="none" target-height="44.19995" target-width="44.200012" target-x="973.3" target-y="567.9"></path><path d="M 70.90 328.40 L 70.70 330.80 L 69.50 335.30 L 67.20 339.40 L 65.60 341.20 L 63.80 342.80 L 59.70 345.10 L 55.20 346.30 L 52.80 346.50 L 50.40 346.30 L 45.90 345.10 L 41.80 342.80 L 40.00 341.20 L 37.10 337.40 L 35.30 333.10 L 34.90 330.80 L 34.70 328.40 L 35.30 323.70 L 37.10 319.40 L 40.00 315.60 L 41.80 314.00 L 45.90 311.70 L 50.40 310.50 L 52.80 310.30 L 55.20 310.50 L 59.70 311.70 L 63.80 314.00 L 65.60 315.60 L 67.20 317.40 L 69.50 321.50 L 70.70 326.00 L 70.90 328.40 Z" fill="url(#SVGID_21_)" fill-rule="nonzero" node-id="674" stroke="none" target-height="36.200012" target-width="36.2" target-x="34.7" target-y="310.3"></path><path d="M 24.80 456.00 L 24.60 457.80 L 23.30 461.10 L 20.70 463.70 L 17.40 465.00 L 13.80 465.00 L 10.50 463.70 L 7.90 461.10 L 6.60 457.80 L 6.60 454.20 L 7.90 450.90 L 10.50 448.30 L 13.80 447.00 L 17.40 447.00 L 20.70 448.30 L 23.30 450.90 L 24.60 454.20 L 24.80 456.00 Z" fill="url(#SVGID_22_)" fill-rule="nonzero" node-id="676" stroke="none" target-height="18" target-width="18.199999" target-x="6.6" target-y="447"></path><path d="M 33.80 491.10 L 33.50 492.90 L 32.90 494.60 L 31.80 496.00 L 30.40 497.10 L 28.70 497.70 L 26.90 498.00 L 25.10 497.70 L 23.40 497.10 L 22.00 496.00 L 20.90 494.60 L 20.30 492.90 L 20.00 491.10 L 20.30 489.30 L 20.90 487.60 L 22.00 486.20 L 23.40 485.10 L 25.10 484.50 L 26.90 484.20 L 28.70 484.50 L 30.40 485.10 L 31.80 486.20 L 32.90 487.60 L 33.50 489.30 L 33.80 491.10 Z" fill="url(#SVGID_23_)" fill-rule="nonzero" node-id="678" stroke="none" target-height="13.799988" target-width="13.799999" target-x="20" target-y="484.2"></path><path d="M 725.80 388.80 L 725.50 392.10 L 724.70 395.10 L 723.30 397.90 L 721.50 400.50 L 719.40 402.60 L 716.80 404.40 L 714.00 405.80 L 711.00 406.60 L 707.70 406.90 L 704.40 406.60 L 701.40 405.80 L 698.60 404.40 L 696.00 402.60 L 693.90 400.50 L 692.10 397.90 L 690.70 395.10 L 689.90 392.10 L 689.60 388.80 L 689.90 385.50 L 690.70 382.50 L 692.10 379.70 L 693.90 377.10 L 696.00 375.00 L 698.60 373.20 L 701.40 371.80 L 704.40 371.00 L 707.70 370.70 L 711.00 371.00 L 714.00 371.80 L 716.80 373.20 L 719.40 375.00 L 721.50 377.10 L 723.30 379.70 L 724.70 382.50 L 725.50 385.50 L 725.80 388.80 Z" fill="url(#SVGID_24_)" fill-rule="nonzero" node-id="680" stroke="none" target-height="36.19998" target-width="36.200012" target-x="689.6" target-y="370.7"></path></svg>