<?xml version="1.0" standalone="no"?><!DOCTYPE svg PUBLIC "-//W3C//DTD SVG 1.1//EN" "http://www.w3.org/Graphics/SVG/1.1/DTD/svg11.dtd"><svg t="1725458409749" class="icon" viewBox="0 0 1024 1024" version="1.1" xmlns="http://www.w3.org/2000/svg" p-id="7801" width="16" height="16" xmlns:xlink="http://www.w3.org/1999/xlink"><path d="M729.088 579.584a55.808 55.808 0 0 1 3.584-19.968l-28.672-15.36-11.776 9.216a61.952 61.952 0 0 1-34.816 13.312 63.488 63.488 0 0 1-35.84-13.312 91.136 91.136 0 0 1-11.776-9.728l-29.696 16.384a62.976 62.976 0 0 1 3.584 19.456 65.536 65.536 0 0 1-56.832 65.024 121.344 121.344 0 0 0 0 20.992 132.608 132.608 0 0 0 0 20.992 65.024 65.024 0 0 1 56.832 64.512 69.632 69.632 0 0 1-3.584 19.968l27.648 15.36a91.136 91.136 0 0 1 11.776-9.728 61.952 61.952 0 0 1 35.84-14.336 64.512 64.512 0 0 1 36.864 14.336 88.064 88.064 0 0 1 11.776 10.24l28.672-15.872a55.808 55.808 0 0 1-3.584-19.968 65.024 65.024 0 0 1 56.832-64.512V665.6a208.384 208.384 0 0 0 0-20.992 65.536 65.536 0 0 1-56.832-65.024z m-73.216 145.92A60.416 60.416 0 1 1 716.8 665.6a60.416 60.416 0 0 1-60.928 59.904zM471.04 476.16A115.712 115.712 0 1 0 354.816 358.4 116.224 116.224 0 0 0 471.04 476.16z" fill="" p-id="7802"></path><path d="M655.872 635.904a29.696 29.696 0 1 0 29.184 29.184 29.696 29.696 0 0 0-29.184-29.184z" fill="" p-id="7803"></path><path d="M921.6 0H102.4a102.4 102.4 0 0 0-102.4 102.4v819.2a102.4 102.4 0 0 0 102.4 102.4h819.2a102.4 102.4 0 0 0 102.4-102.4V102.4a102.4 102.4 0 0 0-102.4-102.4zM225.28 815.104a20.48 20.48 0 0 1-20.48-19.968v-54.272a263.68 263.68 0 0 1 167.936-245.76l11.776-4.608-9.728-7.68A153.6 153.6 0 0 1 314.368 358.4a157.184 157.184 0 0 1 313.856 0 153.6 153.6 0 0 1-60.416 122.368l-9.728 7.68a153.6 153.6 0 0 1-83.456 26.112H471.04a144.896 144.896 0 0 0-20.992 0 225.28 225.28 0 0 0-204.8 223.232v34.304h250.88a215.04 215.04 0 0 0 24.576 39.936z m590.336-117.76a21.504 21.504 0 0 1-19.456 19.456 34.304 34.304 0 0 0-34.304 34.304 38.4 38.4 0 0 0 3.072 13.312 24.576 24.576 0 0 1-8.704 29.696L716.8 819.2a24.064 24.064 0 0 1-11.264 2.56 28.16 28.16 0 0 1-19.456-8.192 51.2 51.2 0 0 0-28.16-17.408 51.2 51.2 0 0 0-27.648 16.896 28.16 28.16 0 0 1-19.456 8.192 23.04 23.04 0 0 1-10.24 0l-39.424-22.016a25.088 25.088 0 0 1-9.216-30.72 30.72 30.72 0 0 0 3.072-12.8 34.304 34.304 0 0 0-34.304-34.304 20.992 20.992 0 0 1-19.968-19.456 179.2 179.2 0 0 1-7.168-36.352 172.544 172.544 0 0 1 3.584-31.744 20.992 20.992 0 0 1 19.456-19.968 34.304 34.304 0 0 0 34.304-34.304 31.744 31.744 0 0 0-3.072-12.8 25.088 25.088 0 0 1 8.704-30.208l40.448-22.528a20.992 20.992 0 0 1 9.728 0 28.16 28.16 0 0 1 19.456 8.192 51.2 51.2 0 0 0 27.648 15.872 54.272 54.272 0 0 0 27.136-15.872 25.6 25.6 0 0 1 18.944-7.68 23.04 23.04 0 0 1 10.24 0l39.936 22.016a24.064 24.064 0 0 1 9.216 30.72 51.2 51.2 0 0 0-2.56 12.8 34.304 34.304 0 0 0 34.304 34.304c9.728 0 17.408 7.68 19.968 19.968A172.544 172.544 0 0 1 819.2 665.6a197.12 197.12 0 0 1-3.584 31.744z" fill="" p-id="7804"></path></svg>