<svg t="1706331453212" class="icon" viewBox="0 0 1024 1024" version="1.1" xmlns="http://www.w3.org/2000/svg" p-id="15806" width="200" height="200"><path d="M572 362.6c32.9-35.7 49.4-59.2 49.4-110.8 0-30.1-6.2-54.6-18.5-79.7s-28.6-44.6-48.8-58.6c-20.2-13.9-45.3-23.4-75.2-28.4-21.3-3.9-52.2-5.8-92.6-5.8H186.9c-29.4 0-50.5 39.1-50.5 39.1v609.2h40.1V420h216.9c86.1 0 145.6-21.7 178.6-57.4z m-39.1-21.9c-27.9 24.6-70 38.1-136.3 38.1h-221V142s10.5-20.2 26.6-20.2h192.3c46.6 0 78.5 2.3 95.8 6.9 26.8 7.4 45.9 22.6 62.3 45.7s24.6 42.6 24.6 75c0.1 44.6-16.4 66.7-44.3 91.3z m72.2 255.2L890 311h-57.5L502.3 641.2V460h-40.6v221.9l-3.9 3.9 3.9 3.9v258h40.6v-249l73.8-73.8 322.8 322.8h58L605.1 595.9z" p-id="15807"></path></svg>