<svg t="1701582368883" class="icon" viewBox="0 0 1024 1024" version="1.1" xmlns="http://www.w3.org/2000/svg" p-id="14903" width="200" height="200"><path d="M928 864c19.2 0 32 12.8 32 32s-12.8 32-32 32h-832c-19.2 0-32-12.8-32-32s12.8-32 32-32h832z m-25.6-531.2c32 0 57.6 25.6 57.6 57.6v364.8c0 32-25.6 57.6-57.6 57.6h-147.2c-32 0-57.6-25.6-57.6-57.6V396.8c0-32 25.6-57.6 57.6-57.6l147.2-6.4zM275.2 211.2c32 0 57.6 25.6 57.6 57.6v486.4c0 32-25.6 57.6-57.6 57.6H121.6c-32 0-57.6-25.6-57.6-57.6V275.2c0-32 25.6-57.6 57.6-57.6h153.6v-6.4z m313.6-115.2c32 0 57.6 25.6 57.6 57.6v601.6c0 32-25.6 57.6-57.6 57.6H435.2c-32 0-57.6-25.6-57.6-57.6V153.6c0-32 25.6-57.6 57.6-57.6h153.6z m236.8 339.2c-25.6 0-51.2 19.2-51.2 44.8h38.4c0-6.4 6.4-12.8 12.8-12.8s12.8 6.4 12.8 12.8-6.4 12.8-12.8 12.8h-6.4v32h6.4c6.4 0 19.2 6.4 19.2 19.2s-6.4 19.2-12.8 19.2-12.8-6.4-12.8-19.2h-38.4c0 32 25.6 51.2 51.2 51.2s51.2-12.8 51.2-44.8c0-19.2-6.4-25.6-19.2-32 6.4-6.4 12.8-12.8 12.8-32 0-32-25.6-51.2-51.2-51.2zM198.4 313.6c-25.6 0-51.2 19.2-51.2 44.8h38.4c0-12.8 6.4-12.8 12.8-12.8s12.8 6.4 12.8 12.8 0 12.8-6.4 19.2l-57.6 57.6v32h96v-32H192l38.4-38.4c12.8-12.8 19.2-19.2 19.2-32 0-32-25.6-51.2-51.2-51.2z m345.6-115.2H512l-32 25.6v38.4l32-25.6v115.2h38.4V198.4h-6.4z" p-id="14904"></path></svg>