<svg t="1706287244044" class="icon" viewBox="0 0 1024 1024" version="1.1" xmlns="http://www.w3.org/2000/svg" p-id="1211" width="200" height="200"><path d="M871.783784 138.378378H152.216216c-6.918919 0-13.837838 6.918919-13.837838 13.837838v581.189189c0 6.918919 6.918919 13.837838 13.837838 13.837838h719.567568c6.918919 0 13.837838-6.918919 13.837838-13.837838V152.216216c0-6.918919-6.918919-13.837838-13.837838-13.837838zM325.189189 484.324324h-41.513513v-83.027027h41.513513v83.027027z m110.702703 69.18919h-41.513514V332.108108h41.513514v221.405406z m110.702703 69.189189h-41.513514V262.918919h41.513514v359.783784z m110.702702-69.189189h-41.513513V332.108108h41.513513v221.405406z m110.702703-69.18919h-41.513514v-83.027027h41.513514v83.027027zM318.27027 844.108108h415.135135v41.513514H318.27027z" fill="#707070" p-id="1212"></path></svg>