<?xml version="1.0" standalone="no"?><!DOCTYPE svg PUBLIC "-//W3C//DTD SVG 1.1//EN" "http://www.w3.org/Graphics/SVG/1.1/DTD/svg11.dtd"><svg t="1732463821268" class="icon" viewBox="0 0 1024 1024" version="1.1" xmlns="http://www.w3.org/2000/svg" p-id="19469" xmlns:xlink="http://www.w3.org/1999/xlink" width="25" height="25"><path d="M951.9 318.1h-46L675 76c1.4-4.4 2.5-9.2 2.5-14.2 0-25-20.3-45.3-45.3-45.3-25 0-45.3 20.3-45.3 45.3 0 5 1.1 9.8 2.5 14.2L161.7 318.1h-46c-33.4 0-60.4 27-60.4 60.4L11.8 921.4c0 33.4 27 60.4 60.4 60.4h844.6c33.4 0 60.4-27 60.4-60.4l35.4-542.9c-0.3-33.2-27.3-60.4-60.7-60.4z m-627.4 464c-2.1 22.6-5.7 39.6-10.8 51-5.2 11.4-14 20.6-27 27.7-12.8 7.1-28.8 9.8-47.6 8-19.9-1.8-35.2-6-45.7-12.4s-18.1-15.1-23.3-26.1c-5-11-7.3-24.2-6.9-39.4l59.2-2.5c-0.7 8.7-0.5 15.3 0.5 19.7 1.1 4.4 3.2 8 6.4 11 2.1 2 5.5 3 9.8 3.6 6.7 0.7 12.1-1.4 15.8-6.2 3.7-4.8 6-13.1 7.1-25.2l11.4-121.9 61.3 5.7-10.2 107z m271.1-0.3c-3.7 22.9-10.7 41-20.6 54.5-10.1 13.5-23.1 23.1-38.9 28.8-15.8 5.9-34.6 6.9-56.5 3.4-22-3.6-39.8-10.1-53.1-19.4-13.3-9.4-23.3-22.4-29.8-39.1-6.6-16.7-8-36.4-4.3-59.3 5.2-32 18.1-55.4 38.9-70.5 20.8-14.9 46.9-19.9 78.9-14.7 32.7 5.3 56.3 18.1 71.2 38.6 14.9 20.3 19.3 46 14.2 77.7zM410.8 570.2l67.9-162.9c2.8-7.3 11.2-10.8 18.5-8l35.2 14c7.3 2.8 10.8 11.2 8 18.5l-67.9 162.9s-32.9 37.8-48.3 31.8c-15.5-6.2-13.4-56.3-13.4-56.3zM647.4 594c-0.2 2.7-2.5 4.6-5 4.4l-122.9-7.6c-2.7-0.2-4.6-2.5-4.4-5l0.4-4.8c0.2-2.7 2.5-4.6 5-4.4l122.9 7.6c2.7 0.2 4.6 2.5 4.4 5l-0.4 4.8z m3.2-52.1c-0.2 2.7-2.5 4.6-5 4.4l-103.9-6.6c-2.7-0.2-4.6-2.5-4.4-5l0.4-4.8c0.2-2.7 2.5-4.6 5-4.4l103.9 6.6c2.7 0.2 4.6 2.5 4.4 5l-0.4 4.8z m3.2-52c-0.2 2.7-2.5 4.6-5 4.4l-85.1-5.3c-2.7-0.2-4.6-2.5-4.4-5l0.4-4.8c0.2-2.7 2.5-4.6 5-4.4l85.1 5.3c2.7 0.2 4.6 2.5 4.4 5l-0.4 4.8z m189.1 328.3c-0.9 10.3-4.1 19.2-9.6 27-5.5 7.8-12.6 13.7-21.3 17.8-5.3 2.5-13.3 3.9-23.8 4.4-13.9 0.5-23.1 0.7-27.7 0.4L655 858.4l17.6-197.9L787 670.6c19 1.8 33.2 7.6 42.6 18.1 9.4 10.3 13.5 22.6 12.3 36.4-1.1 11.7-5.5 21.3-13.7 29.1-5.3 5.2-12.8 8.9-22.6 11.4 13.9 4.6 23.8 11.5 29.8 20.4 6.2 8.7 8.7 19.6 7.5 32.2zM212.7 318.1L607.8 99.8c7.1 4.6 15.5 7.3 24.5 7.3 9.1 0 17.4-2.7 24.5-7.3l198.3 218.3H212.7z m0 0" p-id="19470"></path><path d="M774.3 742.5c4.1-3 6.4-7.5 6.9-13.7 0.5-5.7-0.9-10.5-4.4-14-3.4-3.6-9.8-5.7-19-6.6l-27-2.3-3.4 37.5 26.6 2.3c9.6 0.9 16.4-0.2 20.3-3.2z m-19.2 41.2l-31.1-2.8-3.6 40.1 31.1 2.8c10.5 0.9 18.1-0.4 22.7-3.6 4.6-3.4 7.3-8.2 7.8-14.4 0.5-5.9-1.2-10.7-5.2-14.7-3.6-4-11-6.3-21.7-7.4z m-252.8-72.5c-12.3-2-22.7 0.7-31.4 8.2-8.7 7.5-14.7 21.1-18.1 41.2-3.2 19.7-1.8 34.6 4.1 44.4 6 9.8 15.3 15.8 27.9 17.8 13 2.1 23.8-0.5 32.3-7.8 8.5-7.3 14.6-22 18.1-43.9 3-18.5 1.4-32.5-4.6-42.3-6.1-9.6-15.5-15.4-28.3-17.6z m0 0" p-id="19471"></path></svg>