<svg t="1701582599893" class="icon" viewBox="0 0 1024 1024" version="1.1" xmlns="http://www.w3.org/2000/svg" p-id="19248" width="200" height="200"><path d="M208.384 934.4H204.8l2.56 1.024 1.024-1.024zM902.144 131.072h-89.6v40.448c0 31.232-25.6 56.832-56.832 56.832s-56.832-25.6-56.832-56.832v-40.448h-130.048v40.448c0 31.232-25.6 56.832-56.832 56.832s-56.832-25.6-56.832-56.832v-40.448H325.632v40.448c0 31.232-25.6 56.832-56.832 56.832s-56.832-25.6-56.832-56.832v-40.448H122.88c-23.04 0-40.448 17.92-40.448 40.448v202.752H942.08V171.52c0.512-22.016-17.92-40.448-39.936-40.448zM82.432 398.848v243.2h276.48V398.848h-276.48zM287.744 588.8c-3.584 3.584-8.704 6.144-13.312 6.144s-9.216-1.536-13.312-5.12l-39.936-38.912-37.888 38.912c-3.584 3.584-8.704 6.144-13.312 5.12-5.12 0-10.24-2.56-13.312-6.144-3.584-3.584-6.144-8.704-6.656-14.336-1.024-6.144 1.024-10.24 4.096-14.336l37.888-38.912-38.912-37.888c-4.096-4.096-6.144-8.704-6.144-13.312 0-5.12 1.536-9.216 6.144-13.312 3.584-3.584 8.704-6.144 14.336-7.68 6.144-1.024 10.752 0 15.36 4.096l38.912 37.888 38.912-39.936c3.584-3.584 8.704-5.12 14.336-5.12 6.144 1.024 10.24 2.56 14.336 6.144s6.144 8.704 6.144 13.312c0 5.12-1.536 10.24-5.12 13.312l-38.912 39.936 39.936 38.912c3.584 3.584 5.12 8.704 4.096 14.336-2.048 7.68-3.584 12.8-7.68 16.896z" fill="" p-id="19249"></path><path d="M82.432 658.432v206.336c0 47.104 37.888 85.504 85.504 85.504H358.4v-291.328c0-0.512-275.968-0.512-275.968-0.512zM374.784 658.432H650.24v291.328H374.784zM374.784 398.848H650.24v243.2H374.784zM666.112 398.848h275.456v243.2h-275.456zM666.112 658.432v291.328h189.952c47.104 0 85.504-37.888 85.504-85.504v-206.336h-275.456v0.512z m205.312 213.504c-3.584 3.584-8.704 6.144-13.312 6.144s-9.216-1.536-13.312-5.12l-39.936-38.912-37.888 38.912c-3.584 3.584-8.704 6.144-13.312 5.12-5.12 0-10.24-2.56-13.312-6.144s-6.144-8.704-6.656-14.336c-1.024-6.144 1.024-10.24 4.096-14.336l37.888-38.912-38.912-37.888c-4.096-4.096-6.144-8.704-6.144-13.312s1.536-9.216 6.144-13.312c3.584-3.584 8.704-6.144 14.336-7.68 6.144-1.024 10.752 0 15.36 4.096l38.912 37.888 38.912-39.936c3.584-3.584 8.704-5.12 14.336-5.12 6.144 1.024 10.24 2.56 14.336 6.144 3.584 3.584 6.144 8.704 6.144 13.312s-1.536 10.24-5.12 13.312l-38.912 39.936 39.936 38.912c3.584 3.584 5.12 8.704 4.096 14.336-1.536 8.704-3.072 13.824-7.68 16.896zM268.8 206.336c-14.336 0-25.6-11.264-25.6-25.6v-81.92c0-14.336 11.264-25.6 25.6-25.6s25.6 11.264 25.6 25.6v81.92c0 14.336-11.264 25.6-25.6 25.6zM512.512 207.36c-14.336 0-25.6-11.264-25.6-25.6v-81.92c0-14.336 11.264-25.6 25.6-25.6s25.6 11.264 25.6 25.6v81.92c0 14.336-11.776 25.6-25.6 25.6zM755.2 207.36c-14.336 0-25.6-11.264-25.6-25.6v-81.92c0-14.336 11.264-25.6 25.6-25.6s25.6 11.264 25.6 25.6v81.92c0 14.336-11.776 25.6-25.6 25.6z" fill="" p-id="19250"></path></svg>