<?xml version="1.0" standalone="no"?><!DOCTYPE svg PUBLIC "-//W3C//DTD SVG 1.1//EN" "http://www.w3.org/Graphics/SVG/1.1/DTD/svg11.dtd"><svg t="1723369107589" class="icon" viewBox="0 0 1085 1024" version="1.1" xmlns="http://www.w3.org/2000/svg" p-id="7025" width="25.4296875" height="24" xmlns:xlink="http://www.w3.org/1999/xlink"><path d="M536.90368 468.82816c-101.2736 0-185.87648-76.06272-197.61152-175.04256a61.39904 61.39904 0 0 1 19.02592-119.7056 61.35808 61.35808 0 0 1 49.2544 97.97632c0.90112 70.28736 58.4704 127.13984 129.3312 127.13984a129.1264 129.1264 0 0 0 126.93504-106.53696 61.37856 61.37856 0 0 1-8.51968-110.36672 61.35808 61.35808 0 0 1 80.0768 89.55904c-0.8192 108.66688-89.62048 196.97664-198.49216 196.97664zM768 660.76672V557.056c0-19.41504 15.40096-34.816 34.816-34.816s34.816 15.40096 34.816 34.816v81.5104h65.45408c19.41504 0 34.816 15.40096 34.816 34.816s-15.40096 34.816-34.816 34.816h-94.37184c-16.384 0-30.14656-11.03872-33.83296-26.50112a34.87744 34.87744 0 0 1-6.88128-20.93056zM164.70016 691.97824H545.792c19.41504 0 34.816 15.40096 34.816 34.816s-15.40096 34.816-34.816 34.816H127.03744c-9.5232 0-18.51392-3.95264-25.8048-11.264a35.84 35.84 0 0 1-8.97024-26.35776L148.2752 42.31168A34.87744 34.87744 0 0 1 183.07072 10.24h680.26368c18.26816 0 33.42336 14.09024 34.79552 32.64512L917.2992 321.536a34.54976 34.54976 0 0 1-32.07168 37.00736 34.85696 34.85696 0 0 1-37.02784-32.11264l-17.03936-246.0672H215.12192L164.70016 691.97824zM798.72 849.92c-107.39712 0-194.56-87.16288-194.56-194.56s87.16288-194.56 194.56-194.56 194.56 87.16288 194.56 194.56-87.16288 194.56-194.56 194.56z m0-319.488a124.84608 124.84608 0 0 0-124.928 124.928c0 69.05856 55.86944 124.928 124.928 124.928 69.05856 0 124.928-55.86944 124.928-124.928 0-69.05856-55.86944-124.928-124.928-124.928z" fill="" p-id="7026"></path></svg>