<svg t="1701585166041" class="icon" viewBox="0 0 1024 1024" version="1.1" xmlns="http://www.w3.org/2000/svg" p-id="4331" width="32" height="32"><path d="M455.35949 557.00603c4.955872 0 9.754155-2.581802 12.493545-7.206122l70.267367-120.532167c9.650801-16.760732 12.163017-36.146245 7.189749-54.809303-4.973268-18.618033-16.943904-34.166147-33.660634-43.806715-33.310663-19.22997-79.43005-6.804986-98.606809 26.409486-1.727341 2.993171-3.2623 6.080485-4.51892 9.222035-2.635013-2.093684-5.443989-3.978614-8.481162-5.714142-33.32806-19.22997-79.464843-6.744611-98.641601 26.409486-9.649777 16.664541-12.163017 36.120662-7.172353 54.773488 4.955872 18.653849 16.908088 34.174334 33.590026 43.868113l120.314203 69.432349C450.455807 556.360324 452.915835 557.00603 455.35949 557.00603L455.35949 557.00603zM322.045205 434.301384" fill="#272636" p-id="4332"></path><path d="M898.155339 287.25433c-8.113795-14.046924-21.218254-24.044626-36.782741-28.233018l-97.996918-26.270317 0-31.714306c0-33.42425-27.203572-60.618613-60.637032-60.618613l-100.525508 0-8.061606-30.283724c-8.498558-31.556717-42.559305-51.361785-74.317613-42.87346l-357.207541 95.684246c-15.616676 4.188392-28.65155 14.256702-36.800138 28.302603-8.079002 14.099113-10.260691 30.397311-6.072299 46.0058l155.561985 580.482721c5.584182 20.956288 21.934568 36.731576 42.053792 42.437531l-0.140193 0.732687 357.207541 95.709829c5.182023 1.447978 10.417257 2.093684 15.722076 2.093684 10.486842 0 20.869307-2.739391 30.29191-8.18338 14.047947-8.114818 24.115234-21.167089 28.250414-36.801161l155.544589-580.464301C908.433426 317.66085 906.251737 301.362652 898.155339 287.25433L898.155339 287.25433zM702.738647 169.226193c17.537422 0 31.7931 14.307867 31.7931 31.810496l0 433.200306-124.554784-465.010803L702.738647 169.226193 702.738647 169.226193zM303.130414 810.267151 147.585825 229.758848c-2.163269-8.113795-1.046842-16.71673 3.245927-24.106024 4.257977-7.390317 11.097756-12.668531 19.228947-14.875802l357.25973-95.701642c2.687202-0.732687 5.426593-1.046842 8.131191-1.046842 14.44806 0 27.098171 9.710153 30.81482 23.600511l155.563008 580.508303c4.553713 16.926508-5.54939 34.375925-22.49227 38.948057l-357.206518 95.692433C325.290109 837.278341 307.579749 826.843688 303.130414 810.267151L303.130414 810.267151zM734.567563 748.286518l0 53.761438c0 17.572214-14.291494 31.810496-31.828916 31.810496L449.443757 833.858452l257.30932-68.960605C717.832414 761.967098 727.151663 755.999177 734.567563 748.286518L734.567563 748.286518zM720.85219 906.292158c-2.181689 8.165983-7.4159 14.97097-14.866592 19.298532-7.381108 4.222161-15.984043 5.409197-24.114211 3.227508l-246.718101-66.13321L702.738647 862.684988c11.917424 0 22.946618-3.560082 32.385595-9.544377L720.85219 906.292158 720.85219 906.292158zM876.413152 325.826833 763.375679 747.606019 763.375679 262.572184l90.51041 24.263613c8.148587 2.198062 15.024182 7.494695 19.282159 14.885012C877.443621 309.057915 878.612237 317.66085 876.413152 325.826833L876.413152 325.826833zM876.413152 325.826833" fill="#272636" p-id="4333"></path></svg>