<?xml version="1.0" standalone="no"?><!DOCTYPE svg PUBLIC "-//W3C//DTD SVG 1.1//EN" "http://www.w3.org/Graphics/SVG/1.1/DTD/svg11.dtd"><svg t="1732159610562" class="icon" viewBox="0 0 1515 1024" version="1.1" xmlns="http://www.w3.org/2000/svg" p-id="9516" id="mx_n_1732159610563" width="26.630859375" height="18" xmlns:xlink="http://www.w3.org/1999/xlink"><path d="M1115.136 378.0608h56.32v12.288h-56.32zM1457.152 378.0608h58.1632v12.288H1457.152z" fill="#333333" p-id="9517"></path><path d="M512 512m-512 0a512 512 0 1 0 1024 0 512 512 0 1 0-1024 0Z" fill="#EAEAEA" p-id="9518"></path><path d="M415.0272 617.472s17.6128 21.6064 3.3792 32.1536l95.6416 39.936 95.6416-39.936s-13.4144-19.3536 3.3792-32.1536H415.0272z" fill="#D8D8D8" p-id="9519"></path><path d="M143.36 867.328c93.0816 96.5632 223.8464 156.672 368.64 156.672s275.456-60.1088 368.64-156.672v-24.1664c0-84.48-69.12-153.6-153.6-153.6H296.96c-84.48 0-153.6 69.12-153.6 153.6V867.328z" fill="#333333" p-id="9520"></path><path d="M719.9744 398.848c0 114.8928-77.1072 249.7536-207.9744 249.7536-121.6512 0-207.9744-134.8608-207.9744-249.7536s93.0816-207.872 207.9744-207.872 207.9744 93.0816 207.9744 207.872z" fill="#E5E5E5" p-id="9521"></path><path d="M310.272 454.656s22.2208-177.4592 61.8496-175.2064c0 0 46.6944-16.7936 183.7056 32.256 0 0 16.4864 5.5296 36.2496-14.336 0 0 55.6032-31.9488 74.3424-17.6128 0 0 41.1648 66.2528 49.5616 164.352 0 0 49.152-207.9744-31.1296-250.88 0 0-10.0352-119.0912-191.5904-88.3712 0 0-146.1248 29.696-152.7808 80.1792 0 0.2048-81.92 17.7152-30.208 269.6192z" fill="#333333" p-id="9522"></path><path d="M553.6768 957.3376h-83.3536l-96.768-267.776h280.8832z" fill="#F4F4F4" p-id="9523"></path><path d="M418.4064 649.6256l-29.4912 39.936 67.3792 57.4464 57.4464-57.4464zM609.6896 649.6256l29.3888 39.936-67.8912 57.4464-57.4464-57.4464z" fill="#F4F4F4" p-id="9524"></path><path d="M514.05824 689.547264l40.982528 40.982528-40.982528 40.982528-40.982528-40.982528z" fill="#333333" p-id="9525"></path><path d="M553.6768 962.4576h-83.3536l25.6-214.528h32.1536z" fill="#333333" p-id="9526"></path></svg>