<?xml version="1.0" standalone="no"?><!DOCTYPE svg PUBLIC "-//W3C//DTD SVG 1.1//EN" "http://www.w3.org/Graphics/SVG/1.1/DTD/svg11.dtd"><svg t="1729956522360" class="icon" viewBox="0 0 1024 1024" version="1.1" xmlns="http://www.w3.org/2000/svg" p-id="6239" id="mx_n_1729956522361" width="16" height="16" xmlns:xlink="http://www.w3.org/1999/xlink"><path d="M516.544095 556.322765A278.148741 278.148741 0 1 0 516.582021 0.025284a278.148741 278.148741 0 0 0-0.037926 556.297481z m0-92.109432a186.051951 186.051951 0 1 1 0-372.103901 186.051951 186.051951 0 0 1 0 372.103901z" fill="" p-id="6240"></path><path d="M516.531453 464.213333C234.703897 464.213333 6.263403 692.628543 6.263403 974.481383a46.042074 46.042074 0 0 0 92.109433 0 418.171259 418.171259 0 0 1 418.158617-418.17126 46.054716 46.054716 0 0 0 0-92.09679zM739.384194 600.708741v-5.802667a46.029432 46.029432 0 1 1 92.058864 0v5.815309c16.902321 4.310914 32.89442 11.036444 47.533827 19.696197l4.146568-4.146568a46.054716 46.054716 0 0 1 78.59516 32.515161 46.01679 46.01679 0 0 1-13.476345 32.51516l-4.146568 4.146568a182.575407 182.575407 0 0 1 19.658271 47.432692h5.815309a45.978864 45.978864 0 0 1 44.348049 27.888197 45.991506 45.991506 0 0 1-44.348049 64.031605h-5.815309a181.766321 181.766321 0 0 1-19.721481 47.445333l4.15921 4.146568a45.852444 45.852444 0 0 1 13.501629 32.527803 46.042074 46.042074 0 0 1-78.620444 32.540444l-4.146568-4.146568a182.423704 182.423704 0 0 1-47.483259 19.658272v5.815309a46.067358 46.067358 0 0 1-92.09679 0v-5.815309a183.333926 183.333926 0 0 1-47.48326-19.658272l-4.146568 4.146568a46.067358 46.067358 0 0 1-78.026271-32.730074 45.915654 45.915654 0 0 1 12.945383-32.350815l4.146568-4.133926a183.005235 183.005235 0 0 1-19.70884-47.445333h-5.802667a46.004148 46.004148 0 1 1 0-91.90716h5.815309a182.499556 182.499556 0 0 1 19.658272-47.445334l-4.146568-4.146568a45.978864 45.978864 0 0 1 0.037926-65.068247 46.054716 46.054716 0 0 1 65.118814 0l4.108642 4.146568a185.015309 185.015309 0 0 1 47.533828-19.670913z m46.054716 270.108444a91.945086 91.945086 0 0 0 91.97037-91.97037 91.945086 91.945086 0 0 0-91.97037-91.970371 92.03358 92.03358 0 1 0 0 183.940741z" fill="" p-id="6241"></path></svg>