<?xml version="1.0" standalone="no"?><!DOCTYPE svg PUBLIC "-//W3C//DTD SVG 1.1//EN" "http://www.w3.org/Graphics/SVG/1.1/DTD/svg11.dtd"><svg t="1723915189089" class="icon" viewBox="0 0 1024 1024" version="1.1" xmlns="http://www.w3.org/2000/svg" p-id="9335" id="mx_n_1723915189090" width="20" height="20" xmlns:xlink="http://www.w3.org/1999/xlink"><path d="M704.761097 0.08038q91.050355 18.527572 146.95459 70.010911 43.023353 44.590761 43.023353 65.630205 10.04749 21.983908 10.04749 74.411712 0 25.118725-18.849091 62.796813l-2.833392 39.868441q0 11.313474 14.448291 28.575062l0 1.567408q-5.646689 8.480082-5.646689 16.960163 0 41.455944 44.269241 114.300247 20.717925 24.174261 22.606853 24.174261l2.833392 0 32.975862-10.04749 1.567408 3.134817 0 68.443502-1.567408 2.833392q-12.237843-8.158562-48.670042-21.360964l-5.646689 0q-59.963421 30.765415-61.229405 37.055143-1.567408 9.72597-1.567408 15.69418l0 4.400801q0 34.844696 95.772676 91.371875 5.646689 2.833392 10.04749 2.833392 5.968209 0 10.04749-18.527572l2.833392 0 0 41.455944q-3.456337 5.023745-31.408454 12.880882l0 1.265984q31.408454 9.72597 31.408454 11.313474l0 7.214098q0 2.833392-2.833392 2.833392-25.440245-15.69418-81.645904-31.408454-32.031398-5.646689-51.181915-5.646689-30.14247 3.456337-92.939283 59.963421l-15.69418 15.69418q1.265984 2.833392 1.265984 4.400801-6.912673 10.991954-6.912673 25.74167l0 6.912673 4.079281 0 0 1.567408-4.079281 5.646689q25.440245 45.83665 31.408454 45.83665l7.214098 0q3.777856-3.134817 14.126771-4.400801l0 2.833392q-6.912673 0-21.360964 14.448291l0 1.265984q33.920327-20.4165 68.443502-22.928372l1.567408 0q28.896581 0 57.150124 21.662389l1.265984 0 0-1.567408-12.880882-14.126771 2.833392-1.567408q7.857137 0 28.575062 15.69418 2.511873 1.567408 5.646689 1.567408 19.150516-2.511873 64.364222-34.543271l1.567408 3.134817 0 159.815377q0 2.833392-2.833392 2.833392l-962.67012 0q-2.833392 0-2.833392-2.833392l0-97.018564q2.833392-3.456337 2.833392-5.968209l2.833392 0 2.833392 1.567408 0-1.567408-5.646689-4.079281 0 4.079281q-2.833392 0-2.833392-2.833392l0-108.332038q15.392755-30.46399 49.915931-43.023353 27.309078-4.079281 27.309078-8.480082l0-34.221751 1.265984-8.480082q-4.079281-13.503827-4.079281-17.261588 2.833392-9.424546 4.079281-22.928372l-4.079281-15.69418q0-18.206052 22.606853-42.701833 6.591153-61.550924 18.527572-61.550924 30.14247-13.825346 30.14247-34.221751-1.567408-2.833392-1.567408-4.400801 0-1.265984 1.567408-11.313474 0-10.991954-17.261588-55.582715 0-33.277287 18.527572-43.023353 20.09498-18.527572 20.09498-38.622552 21.360964-27.007653 21.360964-47.102634-4.079281-7.214098-4.079281-11.313474l0-1.567408q5.345265-24.174261 24.174261-24.174261l5.646689 0q30.765415 0 54.316731 114.300247 1.888928 27.630598 2.833392 28.575062-1.888928 0-2.833392 39.868441l1.567408 7.214098 2.833392 0q20.4165-15.69418 41.455944-15.69418 35.487735 9.72597 35.487735 28.575062 0 7.535618-21.360964 47.102634l0 8.480082q0 4.702225 14.448291 22.928372l0 2.833392q-4.400801 38.944072-5.968209 42.701833 4.400801 21.983908 17.261588 44.269241l1.265984 12.880882q0 22.285333-28.253542 87.292594-20.717925 41.455944-48.670042 41.455944-15.69418 3.777856-32.975862 25.74167 25.118725 27.630598 41.455944 47.102634 6.591153-3.777856 22.928372-7.214098l2.833392 0q16.337219 0 44.269241 12.880882 7.857137 2.833392 18.527572 4.400801 10.991954-5.345265 15.69418-12.880882-4.079281-13.503827-4.079281-22.928372 9.72597-4.702225 11.313474-52.749323 15.071235-35.166215 62.796813-67.197614 53.372267-21.360964 88.538483-21.360964 24.797206 0 47.102634 12.880882 22.928372-18.206052 22.928372-20.09498-10.36901-12.880882-14.448291-12.880882-10.670434-6.912673-29.820951-34.221751-12.880882-4.400801-21.360964-4.400801l-5.968209 0q-33.598807 0-94.205267 15.69418-64.062797-25.440245-64.062797-61.229405l14.126771-31.408454 0-1.567408q0-2.833392-14.126771-31.408454 2.833392-16.337219 2.833392-22.928372l0-11.313474q-14.448291-84.459202-24.495781-84.459202-11.936418 0-31.408454-25.440245 12.880882-29.198006 12.880882-67.197614 0-3.134817-16.960163-15.69418-10.04749-10.04749-10.04749-18.527572 8.158562-54.316731 16.960163-54.316731 8.801601-18.206052 17.261588-80.058401 14.448291-34.221751 35.78916-55.582715 50.23745-48.670042 141.287806-71.598414 110.843911-22.606853 121.514345-22.606853 8.480082-1.567408 21.360964-1.567408zM717.64198 30.22285q53.693787 14.126771 89.804466 18.527572 0 1.265984 1.567408 1.265984l0-1.265984q-26.063189-24.495781-80.058401-24.495781-11.313474 3.777856-11.313474 5.968209zM571.953373 65.69049l1.265984 7.214098-2.833392 1.567408q0-1.567408-1.265984-1.567408l0 5.646689q2.190353 0 5.646689 2.833392l1.265984 0q27.630598-12.237843 77.245104-21.360964 1.888928 0 14.448291-1.567408 1.888928 0 15.69418 3.134817 5.646689-1.567408 5.646689-5.968209-10.991954-19.77346-38.622552-19.77346 0-3.456337-24.174261-4.400801-48.670042 13.825346-48.670042 30.14247-2.833392 4.079281-5.646689 4.079281zM481.847482 65.69049l1.567408 2.833392-7.214098 11.614899-1.265984 0 1.265984 2.833392q-7.214098 8.801601-7.214098 14.126771 1.567408 4.400801 2.833392 4.400801-2.833392 10.670434-2.833392 20.09498l0 5.646689-2.833392 4.079281 0 1.567408 2.833392 4.400801 0 8.480082q0 7.535618-4.079281 12.880882l0 5.646689 1.265984 0q0-1.265984 38.622552-38.622552 22.285333-19.472036 35.78916-24.174261 0-2.833392-2.833392-2.833392l-1.567408 0q-24.174261 7.214098-27.007653 7.214098l-1.567408 0q-1.567408 0-5.646689-7.214098 0-33.598807 20.09498-54.316731l0-1.567408q-26.384709 8.480082-40.18996 22.928372zM860.497194 90.186271l0 2.833392q2.833392 0 2.833392 2.833392l2.833392 0q-2.833392-3.456337-2.833392-5.646689l-2.833392 0zM390.475607 151.415676l0 11.313474q4.400801 4.702225 7.214098 16.015699 3.134817 0 5.646689 1.265984l-1.265984-14.126771 0-7.214098q0-3.134817 1.265984-5.646689 0-1.567408-1.265984-1.567408 1.265984-10.04749 5.646689-16.960163l-1.567408-8.801601q2.833392 0 2.833392-2.833392l0-2.833392-1.265984 0q-8.480082 5.023745-17.261588 31.408454zM883.104046 121.57463q0 1.265984-1.265984 4.079281l2.833392 0 0-4.079281-1.567408 0zM416.217277 145.768986q2.833392 0 2.833392 4.400801l2.833392 0q8.801601 0 14.448291-11.614899 0-6.912673-7.214098-10.04749l-1.567408 0q-11.313474 7.214098-11.313474 17.261588zM440.391538 219.859178l0 1.567408q6.289729 0 11.614899 2.833392 0-2.190353 48.348522-14.126771 55.261195-21.662389 67.197614-21.662389 1.567408 0 4.400801 1.567408 2.511873-1.567408 5.646689-1.567408l0 1.567408q7.214098-2.511873 7.214098-7.214098-2.190353-7.857137-18.527572-24.174261l0-1.567408q0-2.833392 2.833392-14.126771-6.912673-4.400801-12.880882-4.400801-64.987166 11.614899-97.018564 43.023353-8.158562 6.912673-18.849091 38.301032zM387.642215 178.724754l0 8.480082 1.567408 0 0-8.480082-1.567408 0zM360.634562 260.049139l0 2.833392q6.289729 0 8.480082 1.265984 0-1.567408 15.69418-9.72597l-1.567408-3.134817q7.214098-6.591153 16.015699-39.868441 0-2.833392-3.134817-2.833392l-1.265984 0q-3.456337 0-27.309078 31.408454-3.134817 0-6.912673 20.09498zM417.784685 238.70827l0 1.265984 2.833392 0 0-4.400801q-2.833392 0.622944-2.833392 3.134817zM763.177205 270.096629l0 4.079281q10.670434 31.408454 18.527572 31.408454 1.567408 0 4.400801-5.646689l-1.265984-2.833392 0-8.480082q16.337219-45.83665 49.915931-45.83665 0-3.456337-5.968209-4.079281-15.392755 0-56.828604 28.253542-8.801601 0-8.801601 3.134817zM390.475607 266.961812l0 1.567408 1.567408 0 11.313474-5.646689 2.833392 1.265984q4.079281-2.833392 20.09498-4.079281l0-5.646689q0-1.567408-17.261588-14.448291l-1.265984 0-7.214098 12.880882q0 2.511873-10.04749 14.126771zM838.834805 244.354959l0 1.265984q1.567408 0 4.400801 1.567408l0-1.567408-2.833392-1.265984-1.567408 0zM516.069233 257.215746l0 6.912673q4.400801 0 4.400801 1.567408 5.345265-2.833392 37.055143-8.480082l0 1.265984q5.345265-3.134817 15.69418-5.646689 0-2.190353-14.126771-7.214098-43.023353 3.456337-43.023353 11.614899zM646.043565 261.315122l-1.265984 2.833392 7.214098 0 0-1.265984q-3.456337 0-5.968209-1.567408zM827.541426 264.128419l0 1.567408 5.646689 17.261588q-4.400801 7.214098-4.400801 16.960163l3.134817 0q3.134817 0 5.646689-1.265984 7.214098 0 12.880882 11.313474l5.646689 0q3.456337 0 7.214098-14.448291l0-1.265984q-15.071235-32.975862-30.14247-32.975862l-2.833392 0q-2.833392 0.622944-2.833392 2.833392zM359.067153 268.52922l0 7.214098 1.567408 0 0-7.214098-1.567408 0zM383.241414 291.457593q3.134817 4.079281 3.134817 10.04749-5.968209 70.955375-14.448291 84.157777l0 1.567408 1.567408 0 0-3.134817 1.265984 0q3.777856 3.456337 14.448291 5.968209l2.833392-1.567408 2.833392 1.567408q1.265984 0 12.880882-8.801601l-1.567408-6.912673 1.567408-7.214098-1.567408-7.214098 1.567408-5.646689q-1.567408-2.511873-1.567408-5.646689l1.567408 0-1.567408-2.833392 0-35.78916q0-3.134817 1.567408-5.646689-1.567408-2.833392-1.567408-4.400801l1.567408-5.646689-1.567408-2.833392 1.567408-8.480082 0-1.567408q0-2.833392-2.833392-2.833392l-2.833392 0q-18.849091 6.289729-18.849091 12.880882zM216.211939 301.505083l0 1.265984q0 10.670434 4.400801 11.614899 8.158562-11.614899 14.126771-11.614899l-2.833392-4.079281q6.591153-7.214098 8.801601-7.214098l1.265984 2.833392q2.511873-1.567408 5.646689-1.567408l0-1.265984q0-2.511873-6.912673-4.400801-18.849091 0-24.495781 14.448291zM527.684132 297.104282l-20.09498 0-20.09498-4.400801q-3.777856 4.702225-5.646689 11.614899l-10.04749-1.567408-2.833392 0 0 2.833392q0 16.015699 48.670042 25.74167 0-18.527572 10.04749-18.527572 11.313474 0 11.313474-2.833392 0.944464 0 32.975862 4.400801 26.063189-7.857137 35.78916-24.495781l0-1.265984q-2.833392-1.567408-4.400801-1.567408-55.88414 10.04749-75.677695 10.04749zM237.874328 301.505083l0 1.265984 11.313474 0 0-1.265984q-5.646689 0-5.646689-1.567408-2.511873 1.567408-5.646689 1.567408zM462.053927 301.505083l0 5.646689 1.265984 0 0-5.646689-1.265984 0zM252.001099 304.31838q0.32152 2.833392 2.833392 2.833392 2.190353 0 4.400801-4.400801l-1.567408 0q-2.511873 1.567408-5.646689 1.567408zM259.215197 307.151772l0 1.265984q0.32152 2.833392 2.833392 2.833392l1.265984 0q-1.265984-2.511873-1.265984-4.079281l-2.833392 0zM162.196633 445.62628l4.079281 2.833392q0-18.206052 28.575062-45.535225l10.04749 0 0 2.833392q-5.646689 4.702225-5.646689 8.480082l-2.833392 0 0-4.400801-2.833392 0q-10.04749 5.345265-10.04749 12.880882l0 1.567408q0 2.190353 5.646689 5.646689l1.265984 0q3.134817 0 24.495781-27.007653l-2.833392-18.849091q6.912673-9.72597 8.480082-9.72597l1.567408 0q0 4.079281 2.833392 4.079281l4.079281 0q0-5.023745 5.646689-6.912673 1.567408-4.400801 3.134817-4.400801l-1.567408-2.833392 0-2.833392q0-1.265984 2.833392-11.614899 0-3.134817-1.265984-5.646689l4.079281-8.480082q-1.265984-2.511873-1.265984-5.646689 8.480082 0 12.880882-7.214098 0-12.880882-18.849091-12.880882-11.614899 0-15.69418 29.820951-17.261588 21.662389-21.360964 41.455944-34.221751 39.245496-34.221751 51.503434-1.265984 5.345265-1.265984 12.880882zM263.314573 312.798461l0 2.833392q4.400801 7.214098 4.400801 10.04749l2.833392 0q-5.023745-12.880882-7.214098-12.880882zM780.438793 327.246752l0 2.833392q0 13.503827 4.400801 32.654343-5.968209 24.174261-5.968209 30.14247 0 1.888928 4.400801 4.079281l20.09498-9.72597q19.77346 3.777856 19.77346 8.480082l2.833392-1.567408 1.567408 0 0 5.646689-4.400801 0 0 12.880882 5.646689 0 0 1.567408 1.567408 0 4.400801-2.833392-1.567408-7.214098q0-2.511873 2.833392-8.480082 0-21.360964-11.313474-21.360964-5.345265 2.833392-11.614899 2.833392-25.440245-4.079281-25.440245-24.495781 0-3.456337 12.880882-12.880882l1.265984-6.912673q-4.702225-2.833392-7.214098-2.833392l-8.480082 1.265984q0-1.888928-4.400801-4.079281l-1.265984 0zM473.367401 364.301896l0 2.833392q0 8.158562 5.646689 14.126771l0 5.968209q0 11.936418-11.313474 39.868441 4.079281 1.265984 4.079281 2.833392l17.261588-1.567408 11.313474 0q23.872836 5.968209 74.411712 22.928372l7.214098 0q2.833392 0 2.833392-4.079281-24.797206-43.324777-44.269241-71.598414-17.583108-21.039444-57.150124-34.221751-5.968209 0-10.04749 22.928372zM639.150987 396.956238l0 2.833392 42.701833 65.93163 2.833392 1.265984 1.567408 0q0-0.622944 2.833392-21.360964l0-7.214098-28.575062-47.102634q-2.190353-5.646689-4.400801-5.646689-12.880882 11.313474-16.960163 11.313474zM394.856313 396.956238l2.833392 0q2.833392 0 2.833392-2.833392l-2.833392 0q-2.833392 0.622944-2.833392 2.833392zM786.085482 401.336944l0 4.400801 2.833392 0q3.456337-2.833392 5.646689-2.833392l0-3.134817-1.265984 0zM749.030339 458.487068q0 39.868441 28.575062 64.364222l2.833392-1.567408-1.567408-2.833392 4.400801-7.214098 0-2.833392-1.567408-2.833392q-4.400801 2.833392-6.912673 2.833392l-1.567408-2.833392q4.400801-5.345265 4.400801-10.04749-12.880882-21.983908-12.880882-41.455944 0-23.872836 22.928372-39.868441l1.265984 0 0-1.567408q-2.833392-5.646689-8.480082-5.646689-17.904627 6.912673-31.408454 48.670042l0 2.833392zM447.605636 431.479414l0 1.265984 2.833392 0 0-4.400801q-2.833392 0.622944-2.833392 3.134817zM861.763178 432.745398l0 1.567408q12.880882 19.150516 12.880882 39.868441-9.72597 31.408454-22.928372 31.408454 0 2.511873-12.880882 5.646689l0 2.833392 10.04749 1.567408q30.14247-8.480082 30.14247-28.575062 2.833392 0 2.833392-24.174261 0-12.559363-17.261588-30.14247l-2.833392 0zM176.323404 441.22548l0 5.968209 1.567408 0 0-5.968209-1.567408 0zM447.605636 488.328113q0.622944 3.134817 2.833392 3.134817 5.646689 0 54.316731-15.69418 4.702225 0 7.214098-1.567408 7.535618 1.567408 12.880882 1.567408l8.480082 0 0-3.134817q0-1.265984-15.69418-12.880882-60.60646 11.936418-64.364222 17.261588-5.646689 5.023745-5.646689 11.313474zM280.576161 514.069783l1.567408 2.833392q0 2.511873-5.968209 15.69418l11.614899 10.04749 1.265984 0 5.646689-14.126771 0-1.567408 1.567408 0q2.833392 0.622944 2.833392 2.833392l0 4.400801q-4.400801 0-4.400801 8.480082 6.591153 4.400801 12.880882 4.400801 12.559363 0 20.09498-14.448291 6.289729-7.214098 17.261588-28.575062-1.265984-4.079281-5.968209-5.646689 13.825346-21.360964 22.928372-25.74167-7.214098-9.72597-27.007653-9.72597l-1.567408 0q-18.206052 0-44.269241 32.654343-3.134817 5.023745-8.480082 18.527572zM174.755995 465.721261l0 16.960163 1.567408 0 0-16.960163-1.567408 0zM177.910907 488.328113l0 7.214098 1.265984 0 0-7.214098-1.265984 0zM901.631618 497.10962l0 15.69418q0 3.134817-6.912673 16.960163l2.833392 0 8.480082-6.912673 0 1.265984q12.559363-5.968209 12.880882-8.480082-4.400801 0-14.126771-21.360964-3.134817 0.32152-3.134817 2.833392zM300.671141 508.423094q1.888928 0 4.079281 4.400801l-2.833392 5.646689-2.833392-1.567408-1.265984 0q0 4.400801-3.134817 4.400801l-1.265984 0q-2.833392 0-2.833392-2.833392 0-2.190353 10.04749-10.04749zM491.894972 532.597355q-16.015699 11.313474-27.007653 14.448291-14.749715 5.968209-24.495781 18.527572 0-1.265984-1.265984-1.265984l1.265984 6.912673 0 1.567408-1.265984 0-2.833392-1.567408 0 11.614899q2.190353 5.646689 10.04749 5.646689 34.221751-6.591153 34.221751-34.221751 0.32152-2.833392 2.833392-2.833392 2.833392 0.32152 2.833392 2.833392l0 2.833392-1.567408 16.960163 1.567408 0q31.709879-11.313474 45.535225-11.313474l1.567408-2.833392 0-1.567408q-20.09498-22.606853-31.408454-22.606853 0-2.511873-10.04749-3.134817zM177.910907 538.565564l0 5.646689 2.833392-1.567408q-1.567408-2.833392-1.567408-4.079281l-1.265984 0zM179.156796 559.906433q-18.527572-5.023745-18.527572-7.214098-25.74167 11.614899-25.74167 28.575062 1.567408 2.511873 1.567408 5.646689 8.158562-6.289729 25.74167-6.912673 0 1.265984 1.265984 1.265984-3.777856 12.880882-8.480082 20.09498l0 1.265984 10.04749 1.567408 22.606853 0q10.670434 0 20.09498-4.400801-2.833392-13.503827-2.833392-16.960163l4.400801-2.833392 2.833392 0q6.289729 0 14.126771 8.480082 7.535618-0.32152 24.495781-37.055143l-1.567408-7.214098-1.567408 0q-12.559363 0-66.876094 15.69418l-1.567408 0zM426.264767 591.314887l0 5.646689q2.833392 0 2.833392-2.833392l0-2.833392-2.833392 0zM981.710114 591.314887l1.567408 0 0 1.265984q-0.32152 1.888928-31.408454 21.662389l-1.567408 0q-2.833392 0-2.833392-2.833392 32.332823-20.09498 34.221751-20.09498zM107.879901 646.877507q0.944464 21.662389 4.079281 21.662389l0-4.400801q10.36901 2.833392 11.614899 2.833392l4.079281 0q6.289729 0 11.614899-2.833392 22.928372 11.936418 22.928372 24.174261 0 2.190353-5.968209 4.400801l-6.912673-1.567408-1.567408 2.833392q9.72597 12.559363 34.221751 17.261588l2.833392 0 0-1.567408q-1.265984-2.511873-1.265984-5.646689 2.833392-1.265984 4.079281-1.265984 10.04749 2.511873 17.261588 22.606853 3.456337 8.801601 5.646689 8.801601 10.991954 0 28.575062-22.928372 0-14.448291-24.174261-25.74167 0-7.535618-44.269241-32.975862 0-1.567408-12.880882-8.480082-10.670434-5.345265-15.69418-24.174261l-8.480082 0 0-1.567408 1.265984-2.833392-1.265984 0q-13.182307 11.936418-25.74167 31.408454zM691.90031 792.566113q1.265984 0 1.265984 1.567408 15.392755-4.702225 27.309078-12.880882 2.833392 1.265984 4.079281 1.265984 7.214098-3.456337 17.261588-38.301032 13.825346-29.519526 41.455944-64.364222l27.007653-58.717532 0-1.265984-5.646689 0q-65.630205 61.229405-65.630205 85.725185-25.440245 67.197614-44.269241 81.324385 0 2.190353-2.833392 5.646689zM955.94835 629.917344l0 1.265984-22.606853 28.575062-1.567408 0 0-4.079281q10.04749-16.015699 24.174261-25.74167zM110.713293 698.380941l0 5.646689 1.265984 0 0-5.646689-1.265984 0zM430.665568 798.212803q2.833392 10.36901 2.833392 15.69418t-14.448291 28.575062l0 2.833392q0 11.313474 7.214098 14.448291l1.265984 0 0-1.567408-4.079281-8.480082q0-12.559363 20.09498-29.820951 1.888928-10.04749 5.646689-10.04749l1.265984 0q2.833392 0 2.833392 4.079281 0 1.567408-1.265984 1.567408l1.265984 7.214098 0 6.912673q0 3.777856-2.833392 12.880882l2.833392 1.567408q4.079281-7.214098 8.801601-7.214098 2.511873 1.567408 4.079281 1.567408l2.833392-4.400801 0-2.833392q0-7.857137-1.265984-20.09498 0-10.36901 27.007653-27.007653 16.638644-7.214098 24.495781-7.214098 0 1.567408 1.265984 1.567408l1.567408-2.833392q-20.09498-12.559363-20.09498-17.261588 8.801601-17.261588 18.527572-17.261588 0 1.567408 1.567408 1.567408l-4.400801 8.480082q0 4.702225 14.126771 14.448291l3.134817 0q12.237843-11.313474 29.820951-41.455944 10.04749-7.214098 38.622552-7.214098l5.646689 0 0-2.833392q0-5.345265-31.408454-8.480082l-5.646689 0q-17.261588 0-45.83665 10.04749-27.952117 0-68.443502 35.487735-27.007653 27.630598-27.007653 47.102634zM536.164214 714.075121l20.09498 0 0 4.400801-1.567408 0q-3.134817 0-5.646689-1.567408-1.265984 0-1.265984 1.567408-11.614899-1.567408-11.614899-4.400801zM111.959182 724.122611l0 1.265984q0.622944 3.134817 2.833392 3.134817l0-4.400801-2.833392 0zM549.025001 724.122611l1.567408 0q-5.968209 10.04749-8.801601 10.04749l0-1.567408q2.190353-5.968209 7.214098-8.480082zM113.526591 729.7693l0 8.480082q2.833392 0 2.833392-4.079281-1.567408-2.833392-1.567408-4.400801l-1.265984 0zM113.526591 739.81679l0 24.174261q0.32152 2.833392 2.833392 2.833392l0-6.912673q0-3.456337-1.567408-5.968209 1.567408-2.511873 1.567408-5.646689l0-5.646689q0-2.833392-2.833392-2.833392zM544.644295 742.650183l1.567408 2.833392q0 1.888928-7.214098 7.214098l-1.265984-2.833392q0-1.888928 6.912673-7.214098zM113.526591 769.657836l0 7.214098 1.265984 0 0-7.214098-1.265984 0zM63.61066 782.518623q-17.583108 14.126771-22.928372 34.543271l0 2.833392q3.134817 29.820951 24.174261 57.150124l5.646689 4.079281 3.134817 0q-24.495781-35.166215-24.495781-48.348522 0-31.408454 31.408454-48.670042l0-1.567408q0-2.833392-2.833392-2.833392-14.126771 0.944464-14.126771 2.833392zM116.359983 782.518623q4.400801 14.126771 4.400801 17.261588l1.265984 0 0-7.214098q-2.833392-2.833392-2.833392-12.880882-2.833392 0.622944-2.833392 2.833392zM731.768751 792.566113l1.567408 0q2.833392-1.265984 4.079281-1.265984 0 1.265984 1.567408 1.265984l0-2.833392-4.400801 0q-2.833392 0.622944-2.833392 2.833392zM546.211704 795.399505q0 38.622552-24.174261 38.622552 0 1.567408-5.968209 1.567408-17.904627-4.400801-22.606853-4.400801l-1.567408 2.833392 0 1.567408q5.023745 8.480082 7.214098 8.480082-1.567408 4.400801-1.567408 27.007653 8.158562-5.646689 10.04749-5.646689l7.214098 1.567408q5.968209-10.04749 8.480082-10.04749l12.880882 0 0-1.567408-1.265984-6.912673q12.880882-12.880882 19.77346-12.880882 8.158562 0 17.261588 2.833392 4.400801 0 10.04749-18.527572l0-4.400801q-1.567408-4.400801-8.801601-4.400801l-2.833392 1.567408q-5.023745 0-22.606853-17.261588l-1.567408 0zM708.840378 796.966914l0 1.265984 5.968209 0 0-1.265984-5.968209 0zM700.380392 799.800306l0 1.265984 7.214098 0 0-1.265984-7.214098 0zM123.574081 802.613603l0 7.214098 1.265984 0 0-7.214098-1.265984 0zM691.90031 807.014404l1.265984 0q3.134817 0 3.134817-2.833392l0-1.567408q-2.190353 0-4.400801 4.400801zM92.185722 817.061894l2.833392 1.265984 0-4.400801q-2.833392 0.622944-2.833392 3.134817zM89.352329 819.895286l-1.567408 5.646689 2.833392 1.265984 1.567408 0 0-4.079281q0-2.833392-2.833392-2.833392zM95.019114 821.141175l1.265984 5.646689-1.265984 14.448291 2.833392 1.265984q0-1.265984 2.833392-11.313474-1.888928-10.04749-5.646689-10.04749zM106.312493 826.787865l0 5.968209 1.567408 0 0-5.968209-1.567408 0zM89.352329 828.355273q-4.400801 6.591153-4.400801 10.04749l0 4.079281 1.265984 10.04749 1.567408 0 0-5.646689-1.567408-7.214098 1.567408 0q2.833392 1.567408 4.400801 1.567408 0-1.567408-1.567408-1.567408l1.567408-6.912673 0-4.400801-2.833392 0zM89.352329 846.882845q0.32152 2.833392 2.833392 2.833392l2.833392-1.265984q0 1.888928 4.079281 8.480082 0 2.190353 3.134817 5.646689l0 1.567408-1.567408 0q-8.480082-5.968209-8.480082-11.614899-2.190353 0-4.400801 5.646689 1.567408 0 1.567408 1.567408l2.833392-1.567408 1.265984 0 0 1.567408-2.833392 4.400801q3.456337 0 7.214098 2.833392l1.265984 0q5.968209-2.511873 5.968209-10.04749-8.801601-4.079281-8.801601-12.880882-4.400801 2.833392-6.912673 2.833392zM103.4791 844.069547l0 4.400801 2.833392 0 0-1.567408q0-2.833392-2.833392-2.833392zM519.20405 879.858707l-8.801601-5.968209-4.079281 0q-6.912673 14.448291-10.04749 14.448291l-12.880882 0q-4.079281 10.04749-5.646689 10.04749-6.289729-4.400801-10.04749-4.400801-4.400801 5.646689-4.400801 8.480082 0 7.214098 11.614899 17.261588 8.480082-2.833392 8.480082-7.214098-1.567408-2.833392-1.567408-4.079281l2.833392-1.567408q3.456337 2.833392 5.968209 2.833392 16.638644-10.04749 19.77346-10.04749 9.72597 0 14.448291-10.04749l6.912673 1.567408 1.567408 0q8.480082-3.777856 8.480082-5.646689-3.134817-20.09498-11.313474-20.09498-5.023745 0-8.480082 14.448291l-2.833392 0zM254.834491 939.822128l0 4.079281q4.400801 0 4.400801 1.567408-10.991954 17.583108-18.527572 25.74167 0.32152 2.833392 2.833392 2.833392 1.888928-5.646689 12.880882-5.646689 2.833392 4.702225 2.833392 8.480082 0 6.289729-7.214098 15.69418l0 4.400801 1.567408 0q9.103026-3.134817 12.880882-3.134817l1.265984 0q28.253542 6.591153 30.14247 8.801601l-4.400801 8.480082 2.833392 4.400801q15.69418-2.511873 15.69418-7.214098-4.400801-5.345265-4.400801-10.04749 9.103026-15.69418 20.09498-15.69418l5.646689 0q13.825346 2.833392 15.69418 2.833392l1.567408 0q13.503827 0 15.69418-22.928372l0-1.265984-15.69418 0q-7.857137 0-10.04749-5.646689 0-5.023745 4.400801-11.614899l0-5.646689-4.400801 0q-8.801601 31.709879-25.74167 43.023353l-4.079281 0q-31.709879 0-43.023353-21.662389l0-1.265984q0-3.456337 25.74167-25.74167 0-5.646689 22.928372-10.04749 0.622944 0 18.527572 1.567408 8.480082-4.079281 8.480082-10.04749-7.214098-10.670434-7.214098-15.69418 4.400801-20.09498 18.849091-20.09498l0 1.567408 2.833392-1.567408 2.833392 0q7.535618 0 21.360964 4.400801l2.833392 0 0-2.833392q-29.198006-12.880882-37.055143-12.880882l-8.801601 0q-27.952117 1.567408-68.443502 37.055143-15.69418 24.174261-15.69418 35.78916zM447.605636 872.644609q0 5.968209-5.646689 12.880882l0 5.646689q12.880882 0 12.880882-18.527572l-7.214098 0zM804.613054 892.739589q10.991954 11.936418 65.630205 19.77346 25.74167-2.190353 25.74167-8.480082 0-7.214098-29.820951-20.09498-5.345265-2.511873-14.448291-4.079281-47.102634 6.591153-47.102634 12.880882zM457.653126 891.152086l4.400801 0q0-2.190353 2.833392-5.646689l-2.833392-1.567408q-3.456337 0-4.400801 7.214098zM314.797912 891.152086l2.833392 0 0 1.567408q-5.023745 8.480082-6.912673 8.480082l-1.567408 0 0-1.567408q5.646689-5.646689 5.646689-8.480082zM531.763413 898.386279l1.567408 7.214098-1.567408 0-6.912673-5.968209q-12.880882 0-12.880882 11.614899l-2.833392 0-4.400801-2.833392q-3.456337 1.265984-14.126771 9.72597l1.265984 3.134817 0 4.079281-1.265984 0-7.214098-4.079281-4.400801 5.646689q1.888928 17.583108 8.480082 24.174261 2.511873 0 11.614899-8.480082l2.833392 0q3.134817 0 5.646689 1.265984 4.400801 0 8.480082-14.126771l1.567408 0q2.511873 0 12.880882 4.079281 4.702225-14.126771 7.214098-14.126771l6.912673 4.400801 3.134817 0q2.833392 0 2.833392-2.833392l0-1.567408q-1.567408-24.174261-5.968209-24.174261l-9.72597 0q-3.134817 0.32152-3.134817 2.833392zM32.222301 911.247066q17.904627 11.313474 21.360964 11.313474l0-1.265984q-10.04749-11.936418-10.04749-14.448291l-1.567408 0 0 4.400801-4.079281 0 0-2.833392 2.833392-4.400801 0-4.400801-2.833392 0q-4.079281 0-5.646689 11.614899zM317.631304 905.600377l1.567408 2.833392q0 2.833392-2.833392 2.833392l-1.567408 0 0-2.833392q0.622944-2.833392 2.833392-2.833392zM41.948271 911.247066l1.567408 0q1.888928 0 5.646689 6.912673l-4.079281 0q0-4.079281-3.134817-4.079281l0-2.833392zM36.301582 925.393932l0 2.833392q4.079281 0 7.214098 4.400801l2.833392-1.567408 2.833392 1.567408 0-4.400801q-4.079281 0-7.214098-4.079281-2.190353 1.265984-5.646689 1.265984zM553.425802 931.040622l-4.400801 0q-1.265984 0-11.313474-2.833392 0 11.614899-11.614899 11.614899l-4.079281-2.833392-4.400801 0q0 6.912673-10.04749 11.313474l-7.214098-1.567408q-11.936418 9.72597-15.69418 25.74167-1.265984 0-1.265984 1.567408l0 1.265984q4.079281 7.214098 8.480082 7.214098 48.348522-31.709879 68.443502-37.055143 12.880882-2.833392 12.880882-5.646689l0-2.833392q-6.591153-11.614899-8.480082-11.614899-5.968209 5.646689-11.313474 5.646689zM32.222301 928.207229l0 5.646689q0 3.456337-1.567408 5.968209 1.567408 2.511873 1.567408 4.079281l1.265984 0q0-8.480082 2.833392-11.313474l0-1.567408q0-2.833392-2.833392-2.833392l-1.265984 0zM464.887319 933.853919l1.265984 0q2.833392 0 2.833392-2.833392l0-1.265984q-1.888928 0-4.079281 4.079281zM40.682287 933.853919l0 1.567408 1.265984 7.214098 1.567408 0 0-5.646689q-1.567408 0-1.567408-3.134817l-1.265984 0zM559.072491 933.853919l1.265984 3.134817 0 1.265984q-3.456337 7.214098-5.646689 7.214098l-1.265984-2.833392 0-1.567408q3.777856-6.912673 5.646689-7.214098zM468.9666 937.008831l-1.265984 2.833392 4.079281 0q0-2.833392-2.833392-2.833392zM35.035598 946.734801q0.32152 2.833392 2.833392 2.833392l1.265984 0q2.833392 0 2.833392-2.833392l0-2.833392q-4.400801 2.833392-6.912673 2.833392zM470.534008 943.901409l0 4.400801 2.833392 0q-1.567408-2.833392-1.567408-4.400801l-1.265984 0zM527.684132 943.901409l4.079281 0 0 2.833392q-29.519526 15.69418-32.654343 15.69418-2.833392 0-2.833392-2.833392 26.384709-15.69418 31.408454-15.69418zM462.053927 953.948899l0 24.174261 1.265984 0q0-2.833392 1.567408-2.833392-1.567408-8.480082-1.567408-21.360964l-1.265984 0zM481.847482 993.837435l0 1.567408q2.190353 0 4.400801-4.400801l-1.567408 0q-2.833392 0.622944-2.833392 2.833392zM452.006437 996.972252l0 1.265984q0.32152 2.833392 2.833392 2.833392l0-4.079281-2.833392 0zM479.01409 996.972252q0 1.265984-1.265984 4.079281l0 2.833392 1.265984 0q0-3.134817 1.567408-5.646689l0-1.265984-1.567408 0zM494.70827 996.972252l0 1.265984 5.646689 0 0-1.265984-5.646689 0zM431.911456 1015.499823l0 2.833392 1.567408 0q2.833392 0 2.833392-2.833392l-4.400801 0z" fill="" p-id="9336"></path></svg>