<?xml version="1.0" standalone="no"?><!DOCTYPE svg PUBLIC "-//W3C//DTD SVG 1.1//EN" "http://www.w3.org/Graphics/SVG/1.1/DTD/svg11.dtd"><svg t="1723369005162" class="icon" viewBox="0 0 1024 1024" version="1.1" xmlns="http://www.w3.org/2000/svg" p-id="4458" width="24" height="24" xmlns:xlink="http://www.w3.org/1999/xlink"><path d="M935.13 509.87C897.1 471.84 850.66 445.3 800 431.94V132C800 60.32 741.68 2 670 2H130C58.32 2 0 60.32 0 132v760c0 71.68 58.32 130 130 130h540c7.15 0 14.16-0.58 20.99-1.7 10.56 1.11 21.24 1.7 32.01 1.7 80.13 0 155.47-31.21 212.13-87.87 56.66-56.66 87.87-132 87.87-212.13s-31.21-155.47-87.87-212.13zM301.8 466.12h-160c-16.57 0-30-13.43-30-30s13.43-30 30-30h160c16.57 0 30 13.43 30 30s-13.43 30-30 30z m80-176.12h-240c-16.57 0-30-13.43-30-30s13.43-30 30-30h240c16.57 0 30 13.43 30 30s-13.43 30-30 30zM723 962c-132.34 0-240-107.66-240-240s107.66-240 240-240 240 107.66 240 240-107.66 240-240 240z" fill="" p-id="4459"></path><path d="M863 691.96H753v-110c0-16.57-13.43-30-30-30s-30 13.43-30 30v140c0 16.57 13.43 30 30 30h140c16.57 0 30-13.43 30-30s-13.43-30-30-30z" fill="" p-id="4460"></path></svg>