<svg t="1701581561892" class="icon" viewBox="0 0 1024 1024" version="1.1" xmlns="http://www.w3.org/2000/svg" p-id="1199" width="32" height="32"><path d="M835.87 371.12c-17.38-41.1-42.27-78.01-73.96-109.7-31.69-31.69-68.6-56.57-109.7-73.96-42.56-18-87.76-27.13-134.35-27.13s-91.78 9.13-134.35 27.13c-41.1 17.38-78.01 42.27-109.7 73.96-31.69 31.69-56.57 68.6-73.96 109.7-18 42.56-27.13 87.76-27.13 134.34s9.13 91.78 27.13 134.34c17.38 41.1 42.27 78.01 73.96 109.7 31.69 31.69 68.6 56.57 109.7 73.96 42.56 18 87.76 27.13 134.35 27.13s91.78-9.13 134.35-27.13c41.1-17.38 78.01-42.27 109.7-73.96 31.69-31.69 56.57-68.6 73.96-109.7 18-42.56 27.13-87.76 27.13-134.34s-9.13-91.78-27.13-134.34z m-102.24 350.1c-57.63 57.63-134.26 89.37-215.76 89.37s-158.13-31.74-215.76-89.37c-57.63-57.63-89.37-134.26-89.37-215.76s31.74-158.13 89.37-215.76c57.63-57.63 134.25-89.37 215.76-89.37S676 232.07 733.63 289.7C791.26 347.33 823 423.96 823 505.46s-31.74 158.13-89.37 215.76z" p-id="1200"></path><path d="M641.18 480.62L465.26 379.23c-9.57-5.51-21.8-2.23-27.31 7.34-5.52 9.57-2.23 21.8 7.34 27.32l170.02 97.99-150.3 86.78V474.13c0-11.05-8.95-20-20-20s-20 8.95-20 20v131.31c0 13.04 6.74 24.73 18.04 31.25 5.65 3.26 11.84 4.89 18.04 4.89 6.2 0 12.39-1.63 18.04-4.89l162.06-93.57c11.3-6.52 18.04-18.21 18.04-31.25s-6.74-24.72-18.05-31.25z" p-id="1201"></path></svg>