<svg t="1701585290182" class="icon" viewBox="0 0 1024 1024" version="1.1" xmlns="http://www.w3.org/2000/svg" p-id="35096" width="32" height="32"><path d="M847.82048816 329.36078668h-200.31397584a35.34952507 35.34952507 0 0 1-35.34952509-35.34952508V105.48046169H182.0710998v353.4952507H99.58887373V58.34776206a35.34952507 35.34952507 0 0 1 35.34952505-35.34952507h477.21858845l85.65189926 82.4822247L847.82048816 249.9362959 930.30271286 329.36078668v642.18303924a35.34952507 35.34952507 0 0 1-35.34952505 35.34952505H134.93839878a35.34952507 35.34952507 0 0 1-35.34952505-35.34952505v-111.9401632h82.48222607v64.80746355h665.74938836V329.36078668z m-176.74762534-170.85603738v111.94016318h117.83174977l-117.83174977-111.94016318z m-295.8283926 324.04320427a135.38868101 135.38868101 0 0 1 5.01963256 0.04713362c130.98766514 1.83817531 236.45297319 52.01093409 313.96269896 149.76415362a29.1103339 29.1103339 0 0 1-2.82796201 39.26153964C588.56117925 768.90856549 482.1591088 818.36255107 372.75822075 818.36255107c-109.2771647 0-216.96949283-49.34204495-322.64100735-146.45308237a29.1103339 29.1103339 0 0 1-2.78672044-39.98031285C129.1646435 532.60877312 238.43591753 482.54206291 372.75232869 482.54206291l2.49214153 0.00589066z m-116.7123477 74.0984966c-56.42373406 16.82048189-105.36515153 47.20339868-147.24844667 91.27836577 88.24419728 75.10595806 175.28062006 112.03442767 261.46865284 112.03442767 86.18803418 0 171.97543947-36.92847099 257.82176111-112.07566924-38.13035484-41.57693354-82.92409377-70.96417157-134.78184706-88.27365614A123.79992884 123.79992884 0 0 1 506.10841203 609.21119393c0 69.95671011-58.03213745 126.66913104-129.61492435 126.66913106s-129.61492572-56.71242093-129.61492571-126.66913106c0-18.75292306 4.17124396-36.55730097 11.65356055-52.56474376z m109.23592315-15.67162233c-34.7426911 4.19481077-61.637789 33.1460718-61.63778762 68.23636609 0 37.97717264 31.50231889 68.76071831 70.36322963 68.76071833 38.86091076 0 70.36322965-30.78354429 70.36322966-68.76071833 0-34.64253457-26.20578079-63.29332464-60.30039909-68.06551051a471.65693029 471.65693029 0 0 0-18.78827258-0.17674763z" p-id="35097"></path></svg>