<svg t="1707197287521" class="icon" viewBox="0 0 1024 1024" version="1.1" xmlns="http://www.w3.org/2000/svg" p-id="6334" width="20" height="20"><path d="M862.82 98.45H162.35a30.08 30.08 0 0 0-30.08 30.08v770a30 30 0 0 0 30.08 29.74h700.81a30.1 30.1 0 0 0 30.08-30.08V128.53a30.63 30.63 0 0 0-30.42-30.08M282 847.21a40 40 0 1 1 40-40 40 40 0 0 1-40 40m0-185.66a40 40 0 1 1 40-40 40 40 0 0 1-40 40m497.88 180.23H477.16c-18.5 0-33.64-15.55-33.64-34.57s15.14-34.57 33.64-34.57h302.72c18.5 0 33.64 15.56 33.64 34.57s-15.14 34.57-33.64 34.57M482 587h287.72c22.61 0 41.12 15.55 41.12 34.57s-18.51 34.58-41.12 34.58H482c-22.61 0-41.11-15.56-41.11-34.58 0-19.36 18.5-34.57 41.11-34.57m-41.16-160.1c0-19 18.5-34.57 41.11-34.57h287.77c22.61 0 41.12 15.55 41.12 34.57s-18.51 34.57-41.12 34.57H482c-22.61 0-41.11-15.55-41.11-34.57m0-179.18c0-19 18.5-34.57 41.11-34.57h287.72c22.61 0 41.12 15.55 41.12 34.57s-18.51 34.57-41.12 34.57H482c-22.61 0-41.11-15.55-41.11-34.57" p-id="6335" fill=""></path><path d="M358.56 205l-0.27-0.27a12.2 12.2 0 0 0-17.25 0l-68.83 68.83-34.31-34.31a12.22 12.22 0 0 0-17.24 0l-0.27 0.27a12.22 12.22 0 0 0 0 17.24L263.62 300a12.19 12.19 0 0 0 17.24 0l0.27-0.27c0.2-0.2 0.4-0.42 0.61-0.67l76.82-76.81a12.22 12.22 0 0 0 0-17.24zM358.56 388l-0.27-0.27a12.2 12.2 0 0 0-17.25 0l-68.83 68.83-34.31-34.32a12.22 12.22 0 0 0-17.24 0l-0.27 0.27a12.22 12.22 0 0 0 0 17.24L263.62 483a12.19 12.19 0 0 0 17.24 0l0.27-0.27c0.2-0.2 0.4-0.42 0.61-0.67l76.82-76.81a12.22 12.22 0 0 0 0-17.24z" p-id="6336" fill=""></path></svg>