<?xml version="1.0" standalone="no"?><!DOCTYPE svg PUBLIC "-//W3C//DTD SVG 1.1//EN" "http://www.w3.org/Graphics/SVG/1.1/DTD/svg11.dtd"><svg t="1731159964650" class="icon" viewBox="0 0 1024 1024" version="1.1" xmlns="http://www.w3.org/2000/svg" p-id="7147" id="mx_n_1731159964651" width="16" height="16" xmlns:xlink="http://www.w3.org/1999/xlink"><path d="M648.533333 871.082667h269.312v-10.24a12.288 12.288 0 0 0-12.288-12.288 100.010667 100.010667 0 0 1-100.010666-100.010667v-10.922667a104.106667 104.106667 0 0 1 27.648-68.266666 68.266667 68.266667 0 0 0-34.133334-110.250667A68.266667 68.266667 0 0 0 716.8 624.981333a66.218667 66.218667 0 0 0 17.408 44.714667 102.4 102.4 0 0 1 27.306667 68.266667v10.922666a100.352 100.352 0 0 1-100.010667 100.352 11.946667 11.946667 0 0 0-11.946667 11.946667z m314.026667 89.770666H601.770667a44.373333 44.373333 0 0 1-44.714667-44.714666v-55.296a102.4 102.4 0 0 1 102.4-102.4 9.898667 9.898667 0 0 0 10.24-10.24v-10.922667a13.994667 13.994667 0 0 0-4.096-8.533333 156.330667 156.330667 0 0 1 17.066667-226.645334 158.72 158.72 0 0 1 132.096-31.744 156.672 156.672 0 0 1 83.626666 258.389334 16.384 16.384 0 0 0-4.437333 8.874666v10.922667a10.24 10.24 0 0 0 10.24 10.24 102.4 102.4 0 0 1 102.4 102.4v55.296a44.714667 44.714667 0 0 1-45.056 44.714667z m0 0" fill="" p-id="7148"></path><path d="M781.312 63.146667h-716.8A44.714667 44.714667 0 0 0 18.090667 107.861333v763.221334a45.056 45.056 0 0 0 45.056 45.056h403.797333v-89.770667H107.861333V152.917333h628.736v269.312h89.770667V107.861333a44.714667 44.714667 0 0 0-45.056-44.714666z" fill="" p-id="7149"></path><path d="M522.922667 278.186667h-221.866667a68.266667 68.266667 0 1 0-50.517333 113.664 68.266667 68.266667 0 0 0 50.517333-22.869334h221.866667a22.869333 22.869333 0 0 1 22.869333 22.869334 22.528 22.528 0 0 1-22.869333 22.528H295.936a113.664 113.664 0 0 0 0 227.328h68.266667v-90.794667h-68.266667a23.210667 23.210667 0 0 1-22.869333-22.869333 22.869333 22.869333 0 0 1 22.869333-22.528h226.986667a113.664 113.664 0 1 0 0-227.328z" fill="" p-id="7150"></path></svg>