<?xml version="1.0" standalone="no"?><!DOCTYPE svg PUBLIC "-//W3C//DTD SVG 1.1//EN" "http://www.w3.org/Graphics/SVG/1.1/DTD/svg11.dtd"><svg t="1737723925751" class="icon" viewBox="0 0 1024 1024" version="1.1" xmlns="http://www.w3.org/2000/svg" p-id="7564" width="16" height="16" xmlns:xlink="http://www.w3.org/1999/xlink"><path d="M938.666667 239.36l-69.674667-3.797333s-26.325333-94.293333-147.2-102.784c-120.96-8.448-200.064-3.114667-200.064-3.114667s89.685333 58.24 53.76 162.218667c-26.709333 56.064-68.949333 101.845333-114.005333 154.496l-297.898667 346.88c277.333333-4.138667 440.789333-6.229333 490.453333-6.229334 139.306667 0 257.024-123.221333 252.202667-260.394666-3.328-94.250667-32.725333-115.541333-42.837333-156.8C853.333333 328.533333 873.514667 262.741333 938.666667 239.36z" fill="#31CC79" p-id="7565"></path><path d="M460.245333 447.530667C314.453333 615.509333 85.333333 882.858667 85.333333 882.858667c412.202667 110.378667 602.154667-157.525333 631.893334-250.282667 39.850667-124.373333-16.469333-185.045333-48.384-204.842667-108.074667-67.114667-188.288-3.584-208.597334 19.797334z" fill="#93E65C" p-id="7566"></path><path d="M462.293333 443.648c23.125333-24.96 101.76-83.029333 206.634667-17.664 31.872 19.882667 88.234667 80.810667 48.341333 205.653333-11.52 36.181333-47.274667 98.901333-110.805333 155.605334-65.877333 0.426667-213.76 2.389333-443.648 5.845333l284.16-331.648 14.677333-17.109333 0.64-0.682667z" fill="#60DB69" p-id="7567"></path></svg>