<?xml version="1.0" standalone="no"?><!DOCTYPE svg PUBLIC "-//W3C//DTD SVG 1.1//EN" "http://www.w3.org/Graphics/SVG/1.1/DTD/svg11.dtd"><svg height="126" node-id="1" sillyvg="true" template-height="126" template-width="126" version="1.1" viewBox="0 0 126 126" width="126" xmlns="http://www.w3.org/2000/svg" xmlns:xlink="http://www.w3.org/1999/xlink"><defs node-id="421"></defs><g node-id="1494"><path d="M 105.78 84.86 C 104.29 84.65 90.17 89.27 88.67 95.60 C 87.17 101.94 75.87 108.54 71.06 106.91 C 66.24 105.28 59.93 107.02 59.93 107.02 L 55.96 108.94 L 55.05 109.38 L 55.04 109.38 L 1.00 78.17 L 68.44 38.98 L 120.77 69.19 C 122.42 70.14 123.79 71.55 124.51 73.32 C 128.48 83.04 107.15 85.05 105.78 84.86 Z" fill="#f3f6fd" fill-rule="nonzero" group-id="1" node-id="429" stroke="none" target-height="70.4026" target-width="127.4819" target-x="1" target-y="38.9751"></path><g node-id="1496"><path d="M 46.81 104.34 C 46.81 104.34 46.03 101.91 44.96 100.34 L 44.96 100.29 L 44.78 100.10 C 44.59 99.83 44.38 99.60 44.17 99.42 C 44.16 99.41 44.14 99.40 44.13 99.40 L 43.34 98.54 L 49.05 102.15 L 51.61 104.92 L 52.36 105.40 L 52.40 105.00 L 49.65 102.02 L 52.51 76.85 L 51.81 76.78 L 51.13 76.57 L 50.83 79.02 L 44.62 75.09 L 45.18 72.19 L 44.34 72.05 L 43.70 72.28 L 41.91 87.38 C 41.48 87.58 40.73 88.01 40.48 88.69 C 40.37 89.01 40.22 89.29 39.98 89.49 C 39.70 89.73 39.28 89.99 38.77 90.04 C 37.78 90.15 38.05 91.17 38.12 91.46 C 38.10 91.46 38.10 91.46 38.09 91.46 C 38.05 91.58 38.02 91.68 38.01 91.74 C 38.01 91.76 38.02 91.80 38.05 91.83 C 37.84 92.16 37.02 93.37 36.02 94.15 C 35.06 94.90 36.49 96.39 37.05 96.92 C 37.16 97.02 37.23 97.14 37.26 97.23 C 37.26 97.23 37.26 97.24 37.26 97.25 C 37.22 97.24 37.16 97.21 37.12 97.21 C 37.01 97.21 36.72 97.73 36.66 97.83 C 36.50 98.08 36.61 98.46 36.85 98.87 L 40.17 100.79 C 40.32 100.39 40.28 99.82 39.52 99.20 C 39.52 99.20 39.52 99.15 39.52 99.09 C 39.55 98.95 39.67 98.89 39.85 98.93 C 40.23 98.99 40.59 99.08 40.98 99.24 C 41.34 99.39 41.59 99.45 41.78 99.47 C 42.73 99.84 44.27 100.64 44.27 100.64 C 44.16 100.85 45.80 103.36 45.95 103.84 C 45.92 103.87 45.90 103.89 45.84 103.90 C 45.74 103.91 45.70 103.95 45.68 103.97 L 46.83 104.63 C 46.81 104.55 46.78 104.41 46.74 104.34 C 46.77 104.34 46.81 104.35 46.81 104.34 Z M 48.73 97.78 L 45.73 95.87 C 45.78 95.73 45.80 95.57 45.88 95.44 C 46.09 95.06 46.50 94.32 46.69 94.09 C 47.27 94.45 47.98 95.15 48.30 95.47 C 48.66 95.85 49.05 95.99 48.49 95.17 C 48.47 95.15 48.44 95.12 48.43 95.09 L 48.99 95.45 L 48.73 97.78 Z M 44.53 75.88 L 50.74 79.82 L 50.48 82.15 L 44.27 78.22 L 44.53 75.88 Z M 44.19 79.01 L 50.39 82.95 L 50.13 85.27 L 43.93 81.34 L 44.19 79.01 Z M 43.84 82.14 L 50.04 86.07 L 49.78 88.40 L 43.58 84.47 L 43.84 82.14 Z M 43.49 85.27 L 49.69 89.20 L 49.43 91.53 L 43.23 87.60 L 43.49 85.27 Z M 43.10 88.71 C 43.14 88.66 43.17 88.63 43.19 88.60 C 43.78 89.10 44.39 89.86 44.66 90.21 C 44.97 90.61 45.41 90.89 45.05 90.13 C 44.92 89.87 44.69 89.54 44.43 89.21 L 49.34 92.33 L 49.08 94.65 L 46.48 93.00 C 46.46 92.97 46.44 92.94 46.41 92.91 L 45.66 92.25 C 45.59 92.18 45.55 92.19 45.54 92.24 C 45.53 92.29 45.52 92.34 45.52 92.40 L 42.88 90.73 L 43.10 88.71 Z M 42.79 91.52 L 45.26 93.09 C 45.08 93.29 44.85 93.59 44.65 93.97 C 44.33 94.62 44.09 94.20 42.62 93.06 L 42.79 91.52 Z M 42.88 95.62 C 42.89 95.63 42.91 95.64 42.92 95.64 C 42.94 95.60 42.97 95.54 43.00 95.45 L 43.00 95.44 C 43.36 95.58 43.96 95.81 44.51 95.96 L 48.65 98.58 L 48.39 100.91 L 42.50 97.18 C 42.66 96.44 42.85 95.72 42.88 95.62 Z" fill="#e1e9f4" fill-rule="nonzero" group-id="1,3" node-id="433" stroke="none" target-height="33.350098" target-width="17.441803" target-x="35.065" target-y="72.0474"></path></g><path d="M 85.24 86.00 L 84.48 86.30 C 84.35 86.35 84.20 86.35 84.07 86.28 L 72.05 80.43 L 62.39 86.04 C 61.78 86.39 60.80 86.39 60.19 86.04 L 30.89 69.13 C 30.58 68.95 30.43 68.72 30.43 68.49 L 30.44 67.17 C 30.44 67.40 30.59 67.64 30.90 67.81 L 60.19 84.72 C 60.81 85.08 61.79 85.08 62.40 84.72 L 70.82 79.83 L 68.22 78.57 L 81.24 71.75 L 85.55 85.37 C 85.63 85.63 85.49 85.90 85.24 86.00 Z" fill="#e1e9f4" fill-rule="nonzero" group-id="1" node-id="436" stroke="none" target-height="19.2202" target-width="55.199997" target-x="30.4279" target-y="67.1672"></path><path d="M 94.86 82.27 L 94.03 81.15 C 93.25 80.06 91.99 79.10 90.03 78.43 C 79.99 77.89 77.86 87.59 77.75 88.10 L 78.63 89.29 C 79.12 89.33 79.58 89.40 79.99 89.48 C 82.78 90.01 84.26 91.24 84.96 92.02 L 85.47 92.72 C 85.62 92.65 87.88 91.45 91.23 91.70 C 92.44 90.58 93.94 89.56 95.53 88.67 C 96.12 86.70 96.32 84.26 94.86 82.27 Z" fill="#e1e9f4" fill-rule="nonzero" group-id="1,4" node-id="440" stroke="none" target-height="14.825699" target-width="18.5681" target-x="77.7526" target-y="77.8897"></path><path d="M 120.41 68.98 L 82.02 90.99 L 72.84 85.69 L 111.22 63.68 L 110.67 63.36 L 72.29 85.37 L 43.64 68.83 L 82.02 46.82 L 81.47 46.50 L 43.09 68.51 L 33.91 63.21 L 72.29 41.20 L 71.74 40.88 L 4.04 79.93 L 4.59 80.25 L 33.47 63.46 L 42.65 68.76 L 13.77 85.55 L 14.32 85.87 L 43.20 69.08 L 52.47 74.43 L 23.59 91.22 L 23.98 91.44 L 52.86 74.66 L 62.21 80.05 L 33.32 96.84 L 33.71 97.06 L 62.59 80.28 L 71.85 85.62 L 42.97 102.41 L 43.52 102.73 L 72.40 85.94 L 81.59 91.24 L 52.71 108.03 L 53.26 108.35 L 120.96 69.30 Z" fill="#fafcff" fill-rule="nonzero" group-id="1" node-id="443" stroke="none" target-height="67.4648" target-width="116.9149" target-x="4.0423" target-y="40.8824"></path></g><g node-id="1495"><g node-id="1498"><g node-id="1503"><g node-id="1519"><g node-id="1533"><g node-id="1591"><path d="M 80.52 49.22 L 51.22 32.30 C 50.91 32.12 50.63 32.11 50.44 32.23 L 49.59 32.71 C 49.79 32.60 50.37 34.06 50.37 34.06 C 50.37 34.06 80.59 72.12 80.39 72.23 L 81.24 71.74 C 81.43 71.63 81.56 71.38 81.56 71.04 L 81.62 51.12 C 81.62 50.42 81.13 49.57 80.52 49.22 Z" fill="#83a1cc" fill-rule="nonzero" group-id="2,5,10,26,40,98" node-id="458" stroke="none" target-height="40.125103" target-width="32.028805" target-x="49.5883" target-y="32.1086"></path><g node-id="1662"><g node-id="1674"><g node-id="1684"><path d="M 79.67 49.70 C 80.28 50.06 80.77 50.91 80.77 51.61 L 80.72 71.52 C 80.71 72.23 80.22 72.51 79.61 72.16 L 50.31 55.25 C 49.70 54.89 49.21 54.04 49.21 53.33 L 49.27 33.42 C 49.27 32.72 49.76 32.44 50.38 32.79 L 79.67 49.70 Z" fill="#b6cbea" fill-rule="nonzero" group-id="2,5,10,26,40,98,169,181,191" node-id="466" stroke="none" target-height="40.072002" target-width="31.566696" target-x="49.2078" target-y="32.4378"></path></g></g></g><g node-id="1663"><path d="M 79.67 50.97 L 79.67 53.86 L 50.37 36.95 L 50.37 34.06 Z" fill="#3a3a77" fill-rule="nonzero" group-id="2,5,10,26,40,98,170" node-id="473" stroke="none" target-height="19.802399" target-width="29.298603" target-x="50.37" target-y="34.0586"></path></g><g node-id="1664"><g node-id="1675"><path d="M 78.32 52.31 C 78.01 52.14 77.76 51.70 77.76 51.35 C 77.76 50.99 78.01 50.85 78.32 51.03 C 78.63 51.21 78.88 51.64 78.88 52.00 C 78.88 52.35 78.63 52.49 78.32 52.31 Z" fill="#6262aa" fill-rule="nonzero" group-id="2,5,10,26,40,98,171,182" node-id="480" stroke="none" target-height="1.6427002" target-width="1.1208954" target-x="77.7601" target-y="50.8503"></path></g><g node-id="1676"><path d="M 76.52 51.28 C 76.21 51.10 75.96 50.66 75.96 50.31 C 75.96 49.96 76.21 49.81 76.52 49.99 C 76.83 50.17 77.08 50.60 77.08 50.96 C 77.08 51.31 76.83 51.45 76.52 51.28 Z" fill="#6262aa" fill-rule="nonzero" group-id="2,5,10,26,40,98,171,183" node-id="485" stroke="none" target-height="1.6428032" target-width="1.1208954" target-x="75.9606" target-y="49.8113"></path></g><path d="M 74.72 50.24 C 74.41 50.06 74.16 49.63 74.16 49.27 C 74.16 48.92 74.41 48.77 74.72 48.95 C 75.03 49.13 75.28 49.56 75.28 49.92 C 75.28 50.27 75.03 50.42 74.72 50.24 Z" fill="#6262aa" fill-rule="nonzero" group-id="2,5,10,26,40,98,171,184" node-id="490" stroke="none" target-height="1.6427994" target-width="1.1208954" target-x="74.1611" target-y="48.7724"></path></g><path d="M 79.67 53.86 L 79.61 70.89 L 50.31 53.98 L 50.37 36.95 Z" fill="#2a2a5e" fill-rule="nonzero" group-id="2,5,10,26,40,98,172" node-id="496" stroke="none" target-height="33.9454" target-width="29.355003" target-x="50.3136" target-y="36.9454"></path></g><g node-id="1592"><g node-id="1666"><g node-id="1678"><g node-id="1685"><path d="M 80.06 72.80 L 80.06 74.12 C 80.06 74.35 79.91 74.57 79.61 74.75 L 62.39 84.76 C 61.78 85.11 60.79 85.11 60.18 84.76 L 30.89 67.85 C 30.58 67.67 30.43 67.43 30.43 67.20 L 30.44 65.88 C 30.44 65.65 30.59 65.42 30.89 65.25 L 48.11 55.24 C 48.71 54.89 49.70 54.89 50.31 55.24 L 79.61 72.16 C 79.91 72.34 80.06 72.57 80.06 72.80 Z" fill="#83a1cc" fill-rule="nonzero" group-id="2,5,10,26,40,99,173,185,192" node-id="508" stroke="none" target-height="30.220497" target-width="49.632797" target-x="30.432" target-y="54.887"></path></g></g></g><g node-id="1667"><g node-id="1679"><g node-id="1686"><g node-id="1690"><path d="M 80.06 72.80 L 80.06 74.12 C 80.06 74.35 79.91 74.57 79.61 74.75 L 62.39 84.75 C 61.78 85.11 60.79 85.11 60.18 84.75 L 30.89 67.84 C 30.58 67.67 30.43 67.43 30.43 67.20 L 30.44 65.88 C 30.44 66.11 30.59 66.35 30.90 66.53 L 60.19 83.44 C 60.80 83.79 61.79 83.79 62.40 83.44 L 79.61 73.43 C 79.91 73.26 80.06 73.03 80.06 72.80 Z" fill="#83a1cc" fill-rule="nonzero" group-id="2,5,10,26,40,99,174,186,193,197" node-id="521" stroke="none" target-height="19.221695" target-width="49.632797" target-x="30.432" target-y="65.8839"></path></g><g node-id="1691"><path d="M 76.98 75.39 L 76.98 75.93 L 78.41 75.10 L 78.41 74.56 Z" fill="#3a3a77" fill-rule="nonzero" group-id="2,5,10,26,40,99,174,186,193,198" node-id="526" stroke="none" target-height="1.3702011" target-width="1.4319" target-x="76.9768" target-y="74.5609"></path></g><g node-id="1692"><path d="M 67.24 80.97 L 67.24 81.68 L 69.52 80.35 L 69.52 79.64 Z" fill="#3a3a77" fill-rule="nonzero" group-id="2,5,10,26,40,99,174,186,193,199" node-id="531" stroke="none" target-height="2.036499" target-width="2.2853012" target-x="67.2379" target-y="79.6392"></path></g><g node-id="1693"><path d="M 63.44 83.17 L 63.44 83.88 L 65.73 82.55 L 65.73 81.85 Z" fill="#3a3a77" fill-rule="nonzero" group-id="2,5,10,26,40,99,174,186,193,200" node-id="536" stroke="none" target-height="2.0365067" target-width="2.2853012" target-x="63.4412" target-y="81.8455"></path></g><path d="M 79.60 72.16 C 80.22 72.51 80.22 73.08 79.62 73.43 L 62.40 83.44 C 61.79 83.79 60.80 83.79 60.19 83.44 L 30.90 66.53 C 30.29 66.17 30.29 65.60 30.89 65.25 L 48.11 55.24 C 48.71 54.89 49.70 54.89 50.31 55.24 L 79.60 72.16 Z" fill="#dee7f8" fill-rule="nonzero" group-id="2,5,10,26,40,99,174,186,193,201" node-id="541" stroke="none" target-height="28.900398" target-width="49.936096" target-x="30.2852" target-y="54.8892"></path></g></g><path d="M 58.37 73.18 L 48.14 67.28 C 47.93 67.15 47.58 67.15 47.37 67.27 L 42.05 70.36 C 41.84 70.49 41.85 70.69 42.06 70.81 L 52.28 76.72 C 52.50 76.84 52.84 76.84 53.05 76.72 L 58.37 73.62 C 58.58 73.50 58.58 73.30 58.37 73.18 Z" fill="#b6cbea" fill-rule="nonzero" group-id="2,5,10,26,40,99,174" node-id="546" stroke="none" target-height="9.687599" target-width="16.741802" target-x="41.8407" target-y="67.1512"></path></g></g></g></g><g node-id="1520"><path d="M 70.12 57.52 L 70.88 58.41 L 70.68 59.28 L 69.82 58.79 C 69.65 59.10 69.41 59.33 69.13 59.48 L 69.39 60.57 L 68.65 60.67 L 68.04 59.62 C 67.70 59.56 67.34 59.43 66.97 59.22 C 66.94 59.20 66.91 59.19 66.89 59.17 L 66.49 59.82 L 65.64 59.10 L 65.64 58.11 C 65.28 57.70 64.96 57.25 64.70 56.78 L 63.88 56.61 L 63.42 55.49 L 64.03 55.13 C 63.90 54.64 63.83 54.16 63.85 53.70 L 63.08 52.82 L 63.29 51.95 L 64.15 52.44 C 64.32 52.13 64.55 51.89 64.83 51.75 L 64.57 50.66 L 65.32 50.56 L 65.93 51.61 C 66.27 51.67 66.63 51.80 67.00 52.01 C 67.02 52.03 67.05 52.04 67.08 52.06 L 67.47 51.41 L 68.33 52.13 L 68.33 53.12 C 68.69 53.52 69.00 53.98 69.27 54.45 L 70.09 54.62 L 70.54 55.74 L 69.94 56.10 C 70.07 56.59 70.13 57.07 70.12 57.52 Z M 68.73 57.10 C 68.84 56.63 68.77 56.03 68.52 55.41 C 68.27 54.80 67.87 54.24 67.40 53.85 C 67.27 53.73 67.12 53.63 66.98 53.55 C 66.66 53.36 66.33 53.27 66.05 53.31 C 65.64 53.37 65.35 53.65 65.24 54.13 C 65.12 54.60 65.20 55.20 65.45 55.81 C 65.70 56.43 66.09 56.99 66.56 57.38 C 66.70 57.50 66.84 57.60 66.98 57.68 C 67.31 57.87 67.63 57.96 67.92 57.92 C 68.33 57.86 68.62 57.58 68.73 57.10" fill="#4c4a8b" fill-rule="nonzero" group-id="2,5,10,27" node-id="554" stroke="none" target-height="10.103302" target-width="7.799801" target-x="63.0834" target-y="50.5631"></path></g><path d="M 74.68 67.67 L 75.36 66.73 C 75.63 67.00 75.92 67.23 76.23 67.41 C 76.53 67.59 76.83 67.69 77.10 67.74 L 77.76 69.45 C 77.31 69.41 76.81 69.25 76.29 68.96 L 79.63 70.89 L 79.63 68.55 C 79.36 68.97 78.98 69.26 78.53 69.38 L 77.86 67.67 C 78.31 67.50 78.63 67.07 78.74 66.44 L 79.64 66.96 L 79.64 65.94 L 78.74 65.42 C 78.64 64.67 78.32 63.88 77.88 63.19 L 78.55 62.24 C 79.00 62.89 79.38 63.62 79.64 64.35 L 79.65 61.22 L 78.95 61.30 C 78.44 60.63 77.87 60.02 77.26 59.52 L 76.94 57.83 L 75.56 57.03 L 75.24 58.36 C 74.63 58.15 74.06 58.09 73.55 58.18 L 72.40 56.71 L 71.42 57.27 L 72.12 59.00 C 71.78 59.39 71.54 59.91 71.41 60.54 L 70.10 60.15 L 70.09 61.73 L 71.40 62.85 C 71.53 63.63 71.77 64.43 72.10 65.20 L 71.39 66.12 L 71.41 66.14 L 76.15 68.88 C 75.63 68.57 75.14 68.16 74.68 67.67 Z M 76.23 66.24 C 75.39 65.75 74.70 64.57 74.71 63.60 C 74.71 62.63 75.40 62.24 76.24 62.73 C 77.08 63.21 77.77 64.40 77.76 65.37 C 77.76 66.33 77.07 66.73 76.23 66.24 Z M 76.25 60.04 C 76.79 60.36 77.31 60.79 77.79 61.29 L 77.11 62.24 C 76.84 61.97 76.55 61.73 76.24 61.56 C 75.94 61.38 75.64 61.27 75.37 61.23 L 74.71 59.52 C 75.18 59.55 75.70 59.72 76.25 60.04 Z M 73.92 66.72 C 73.09 65.53 72.51 64.10 72.39 62.77 L 73.73 63.54 C 73.83 64.29 74.15 65.09 74.59 65.78 L 73.92 66.72 Z M 73.73 62.53 L 72.39 61.76 C 72.52 60.58 73.10 59.81 73.94 59.58 L 74.61 61.30 C 74.16 61.47 73.84 61.90 73.73 62.53 Z" fill="#4c4a8b" fill-rule="nonzero" group-id="2,5,10,28" node-id="559" stroke="none" target-height="14.178101" target-width="9.560295" target-x="70.0931" target-y="56.711"></path></g><g node-id="1504"><g node-id="1522"><g node-id="1534"><path d="M 75.27 71.15 L 74.59 71.54 L 73.46 70.89 L 74.14 70.50 Z" fill="#83a1cc" fill-rule="nonzero" group-id="2,5,11,29,41" node-id="569" stroke="none" target-height="1.0485001" target-width="1.8115005" target-x="73.4596" target-y="70.4962"></path></g><g node-id="1535"><path d="M 73.91 70.36 L 73.23 70.76 L 72.09 70.10 L 72.77 69.71 Z" fill="#83a1cc" fill-rule="nonzero" group-id="2,5,11,29,42" node-id="574" stroke="none" target-height="1.0485001" target-width="1.8115005" target-x="72.0943" target-y="69.7079"></path></g><g node-id="1536"><path d="M 68.38 73.58 L 67.17 74.28 L 66.03 73.62 L 67.24 72.92 Z" fill="#83a1cc" fill-rule="nonzero" group-id="2,5,11,29,43" node-id="579" stroke="none" target-height="1.3572998" target-width="2.3430023" target-x="66.0337" target-y="72.9211"></path></g><g node-id="1537"><path d="M 59.19 63.00 L 57.98 63.70 L 56.70 62.96 L 57.91 62.26 Z" fill="#83a1cc" fill-rule="nonzero" group-id="2,5,11,29,44" node-id="584" stroke="none" target-height="1.4421997" target-width="2.4901009" target-x="56.702" target-y="62.2624"></path></g><g node-id="1538"><path d="M 55.06 65.89 L 53.85 66.59 L 52.57 65.85 L 53.78 65.15 Z" fill="#83a1cc" fill-rule="nonzero" group-id="2,5,11,29,45" node-id="589" stroke="none" target-height="1.4429016" target-width="2.4911995" target-x="52.5696" target-y="65.1475"></path></g><g node-id="1539"><path d="M 56.71 68.60 L 55.50 69.30 L 54.22 68.56 L 55.43 67.86 Z" fill="#83a1cc" fill-rule="nonzero" group-id="2,5,11,29,46" node-id="594" stroke="none" target-height="1.4422989" target-width="2.4902" target-x="54.2174" target-y="67.8555"></path></g><g node-id="1540"><path d="M 55.13 67.68 L 53.92 68.39 L 52.64 67.64 L 53.84 66.94 Z" fill="#83a1cc" fill-rule="nonzero" group-id="2,5,11,29,47" node-id="599" stroke="none" target-height="1.4429016" target-width="2.4911995" target-x="52.6354" target-y="66.9421"></path></g><g node-id="1541"><path d="M 56.64 66.80 L 55.43 67.50 L 54.15 66.76 L 55.36 66.06 Z" fill="#83a1cc" fill-rule="nonzero" group-id="2,5,11,29,48" node-id="604" stroke="none" target-height="1.4430008" target-width="2.4912987" target-x="54.1516" target-y="66.0609"></path></g><g node-id="1542"><path d="M 54.19 63.63 L 52.98 64.33 L 51.70 63.59 L 52.91 62.89 Z" fill="#83a1cc" fill-rule="nonzero" group-id="2,5,11,29,49" node-id="609" stroke="none" target-height="1.4416008" target-width="2.4889984" target-x="51.7019" target-y="62.8893"></path></g><g node-id="1543"><path d="M 53.54 66.77 L 52.34 67.47 L 51.05 66.73 L 52.26 66.03 Z" fill="#83a1cc" fill-rule="nonzero" group-id="2,5,11,29,50" node-id="614" stroke="none" target-height="1.4429016" target-width="2.4913025" target-x="51.0533" target-y="66.0287"></path></g><g node-id="1544"><path d="M 48.80 64.03 L 47.59 64.73 L 46.31 63.99 L 47.52 63.29 Z" fill="#83a1cc" fill-rule="nonzero" group-id="2,5,11,29,51" node-id="619" stroke="none" target-height="1.4422989" target-width="2.4901009" target-x="46.3082" target-y="63.2891"></path></g><g node-id="1545"><path d="M 50.38 64.94 L 49.17 65.64 L 47.89 64.90 L 49.10 64.20 Z" fill="#83a1cc" fill-rule="nonzero" group-id="2,5,11,29,52" node-id="624" stroke="none" target-height="1.4422989" target-width="2.4901009" target-x="47.8903" target-y="64.2025"></path></g><g node-id="1546"><path d="M 51.96 65.86 L 50.75 66.56 L 49.47 65.82 L 50.68 65.12 Z" fill="#83a1cc" fill-rule="nonzero" group-id="2,5,11,29,53" node-id="629" stroke="none" target-height="1.4422989" target-width="2.4901009" target-x="49.4724" target-y="65.1159"></path></g><g node-id="1547"><path d="M 53.48 64.97 L 52.27 65.68 L 50.99 64.94 L 52.20 64.23 Z" fill="#83a1cc" fill-rule="nonzero" group-id="2,5,11,29,54" node-id="634" stroke="none" target-height="1.4421997" target-width="2.4902" target-x="50.9886" target-y="64.2348"></path></g><g node-id="1548"><path d="M 64.32 73.80 L 63.81 74.10 L 62.47 73.32 L 62.98 73.03 Z" fill="#83a1cc" fill-rule="nonzero" group-id="2,5,11,29,55" node-id="639" stroke="none" target-height="1.070198" target-width="1.8502998" target-x="62.4734" target-y="73.0278"></path></g><g node-id="1549"><path d="M 62.76 72.90 L 62.25 73.20 L 60.91 72.42 L 61.42 72.13 Z" fill="#83a1cc" fill-rule="nonzero" group-id="2,5,11,29,56" node-id="644" stroke="none" target-height="1.0700989" target-width="1.8502007" target-x="60.9108" target-y="72.1256"></path></g><g node-id="1550"><path d="M 63.46 72.49 L 62.95 72.79 L 61.61 72.02 L 62.12 71.72 Z" fill="#83a1cc" fill-rule="nonzero" group-id="2,5,11,29,57" node-id="649" stroke="none" target-height="1.070198" target-width="1.8502998" target-x="61.6088" target-y="71.7199"></path></g><g node-id="1551"><path d="M 58.29 69.51 L 57.08 70.21 L 55.80 69.47 L 57.01 68.77 Z" fill="#83a1cc" fill-rule="nonzero" group-id="2,5,11,29,58" node-id="654" stroke="none" target-height="1.4422989" target-width="2.4902" target-x="55.7995" target-y="68.7689"></path></g><g node-id="1552"><g node-id="1593"><path d="M 58.59 61.52 L 57.91 61.91 L 56.63 61.17 L 57.31 60.78 Z" fill="#83a1cc" fill-rule="nonzero" group-id="2,5,11,29,59,100" node-id="661" stroke="none" target-height="1.1334" target-width="1.9585991" target-x="56.6306" target-y="60.7799"></path></g><g node-id="1594"><path d="M 57.61 62.09 L 56.40 62.79 L 55.12 62.05 L 56.33 61.35 Z" fill="#83a1cc" fill-rule="nonzero" group-id="2,5,11,29,59,101" node-id="666" stroke="none" target-height="1.4421997" target-width="2.4900017" target-x="55.12" target-y="61.349"></path></g><g node-id="1595"><path d="M 60.17 62.43 L 59.49 62.83 L 58.21 62.09 L 58.89 61.69 Z" fill="#83a1cc" fill-rule="nonzero" group-id="2,5,11,29,59,102" node-id="671" stroke="none" target-height="1.133297" target-width="1.9586983" target-x="58.2126" target-y="61.6934"></path></g><g node-id="1596"><path d="M 61.75 63.35 L 61.08 63.74 L 59.79 63.00 L 60.47 62.61 Z" fill="#83a1cc" fill-rule="nonzero" group-id="2,5,11,29,59,103" node-id="676" stroke="none" target-height="1.1334" target-width="1.9585991" target-x="59.7947" target-y="62.6068"></path></g><g node-id="1597"><path d="M 56.90 63.44 L 55.70 64.14 L 54.41 63.40 L 55.62 62.70 Z" fill="#83a1cc" fill-rule="nonzero" group-id="2,5,11,29,59,104" node-id="681" stroke="none" target-height="1.4422035" target-width="2.4901009" target-x="54.4147" target-y="62.6984"></path></g><g node-id="1598"><path d="M 60.77 63.92 L 59.57 64.62 L 58.28 63.88 L 59.49 63.18 Z" fill="#83a1cc" fill-rule="nonzero" group-id="2,5,11,29,59,105" node-id="686" stroke="none" target-height="1.4421959" target-width="2.4901009" target-x="58.2841" target-y="63.1758"></path></g><g node-id="1599"><path d="M 63.34 64.26 L 62.66 64.65 L 61.38 63.91 L 62.05 63.52 Z" fill="#83a1cc" fill-rule="nonzero" group-id="2,5,11,29,59,106" node-id="691" stroke="none" target-height="1.1334038" target-width="1.9585991" target-x="61.3768" target-y="63.5202"></path></g><g node-id="1600"><path d="M 58.49 64.35 L 57.28 65.05 L 56.00 64.31 L 57.20 63.61 Z" fill="#83a1cc" fill-rule="nonzero" group-id="2,5,11,29,59,107" node-id="696" stroke="none" target-height="1.4421997" target-width="2.4901009" target-x="55.9968" target-y="63.6118"></path></g><g node-id="1601"><path d="M 55.77 64.54 L 54.57 65.24 L 53.28 64.50 L 54.49 63.80 Z" fill="#83a1cc" fill-rule="nonzero" group-id="2,5,11,29,59,108" node-id="701" stroke="none" target-height="1.4416008" target-width="2.4888992" target-x="53.284" target-y="63.8027"></path></g><g node-id="1602"><path d="M 62.36 64.83 L 61.15 65.53 L 59.87 64.79 L 61.07 64.09 Z" fill="#83a1cc" fill-rule="nonzero" group-id="2,5,11,29,59,109" node-id="706" stroke="none" target-height="1.4421997" target-width="2.4901009" target-x="59.8662" target-y="64.0892"></path></g><g node-id="1603"><path d="M 64.92 65.17 L 64.24 65.57 L 62.96 64.83 L 63.63 64.43 Z" fill="#83a1cc" fill-rule="nonzero" group-id="2,5,11,29,59,110" node-id="711" stroke="none" target-height="1.1341019" target-width="1.9598045" target-x="62.9577" target-y="64.4329"></path></g><g node-id="1604"><path d="M 60.07 65.27 L 58.86 65.97 L 57.58 65.23 L 58.79 64.53 Z" fill="#83a1cc" fill-rule="nonzero" group-id="2,5,11,29,59,111" node-id="716" stroke="none" target-height="1.4421997" target-width="2.4900017" target-x="57.5789" target-y="64.5252"></path></g><g node-id="1605"><path d="M 57.35 65.46 L 56.15 66.16 L 54.87 65.42 L 56.07 64.72 Z" fill="#83a1cc" fill-rule="nonzero" group-id="2,5,11,29,59,112" node-id="721" stroke="none" target-height="1.4414978" target-width="2.4889984" target-x="54.866" target-y="64.7162"></path></g><g node-id="1606"><path d="M 63.94 65.74 L 62.73 66.44 L 61.45 65.70 L 62.66 65.00 Z" fill="#83a1cc" fill-rule="nonzero" group-id="2,5,11,29,59,113" node-id="726" stroke="none" target-height="1.4428024" target-width="2.4911995" target-x="61.4471" target-y="65.002"></path></g><g node-id="1607"><path d="M 61.65 66.18 L 60.44 66.88 L 59.16 66.14 L 60.37 65.44 Z" fill="#83a1cc" fill-rule="nonzero" group-id="2,5,11,29,59,114" node-id="731" stroke="none" target-height="1.4429016" target-width="2.4911995" target-x="59.1598" target-y="65.4379"></path></g><g node-id="1608"><path d="M 65.52 66.66 L 64.31 67.36 L 63.03 66.62 L 64.24 65.92 Z" fill="#83a1cc" fill-rule="nonzero" group-id="2,5,11,29,59,115" node-id="736" stroke="none" target-height="1.4429016" target-width="2.4911995" target-x="63.0292" target-y="65.9154"></path></g><g node-id="1609"><path d="M 63.23 67.09 L 62.03 67.79 L 60.74 67.05 L 61.95 66.35 Z" fill="#83a1cc" fill-rule="nonzero" group-id="2,5,11,29,59,116" node-id="741" stroke="none" target-height="1.442894" target-width="2.4911995" target-x="60.7419" target-y="66.3513"></path></g><g node-id="1610"><path d="M 60.52 67.28 L 59.31 67.98 L 58.03 67.24 L 59.24 66.54 Z" fill="#83a1cc" fill-rule="nonzero" group-id="2,5,11,29,59,117" node-id="746" stroke="none" target-height="1.4422989" target-width="2.4901009" target-x="58.0291" target-y="66.5423"></path></g><g node-id="1611"><path d="M 67.10 67.57 L 65.89 68.27 L 64.61 67.53 L 65.82 66.83 Z" fill="#83a1cc" fill-rule="nonzero" group-id="2,5,11,29,59,118" node-id="751" stroke="none" target-height="1.4422073" target-width="2.4900055" target-x="64.6113" target-y="66.8288"></path></g><g node-id="1612"><path d="M 64.81 68.00 L 63.61 68.71 L 62.32 67.97 L 63.53 67.26 Z" fill="#83a1cc" fill-rule="nonzero" group-id="2,5,11,29,59,119" node-id="756" stroke="none" target-height="1.4421997" target-width="2.4901047" target-x="62.3239" target-y="67.2648"></path></g><g node-id="1613"><path d="M 62.10 68.20 L 60.89 68.90 L 59.61 68.16 L 60.82 67.46 Z" fill="#83a1cc" fill-rule="nonzero" group-id="2,5,11,29,59,120" node-id="761" stroke="none" target-height="1.4422989" target-width="2.4901009" target-x="59.6111" target-y="67.4557"></path></g><g node-id="1614"><path d="M 59.81 68.63 L 58.60 69.33 L 57.32 68.59 L 58.52 67.89 Z" fill="#83a1cc" fill-rule="nonzero" group-id="2,5,11,29,59,121" node-id="766" stroke="none" target-height="1.4421997" target-width="2.4901009" target-x="57.3158" target-y="67.8878"></path></g><g node-id="1615"><path d="M 66.40 68.92 L 65.19 69.62 L 63.91 68.88 L 65.11 68.18 Z" fill="#83a1cc" fill-rule="nonzero" group-id="2,5,11,29,59,122" node-id="771" stroke="none" target-height="1.4421997" target-width="2.4901047" target-x="63.906" target-y="68.1782"></path></g><g node-id="1616"><path d="M 63.68 69.11 L 62.48 69.81 L 61.19 69.07 L 62.40 68.37 Z" fill="#83a1cc" fill-rule="nonzero" group-id="2,5,11,29,59,123" node-id="776" stroke="none" target-height="1.441597" target-width="2.4890022" target-x="61.1932" target-y="68.3691"></path></g><g node-id="1617"><path d="M 61.39 69.54 L 60.18 70.24 L 58.90 69.50 L 60.11 68.80 Z" fill="#83a1cc" fill-rule="nonzero" group-id="2,5,11,29,59,124" node-id="781" stroke="none" target-height="1.4421997" target-width="2.4901009" target-x="58.8979" target-y="68.8012"></path></g><g node-id="1618"><path d="M 71.08 69.86 L 69.87 70.57 L 67.78 69.36 L 68.98 68.66 Z" fill="#83a1cc" fill-rule="nonzero" group-id="2,5,11,29,59,125" node-id="786" stroke="none" target-height="1.9104996" target-width="3.3011017" target-x="67.7754" target-y="68.6556"></path></g><g node-id="1619"><path d="M 65.26 70.02 L 64.06 70.72 L 62.78 69.98 L 63.98 69.28 Z" fill="#83a1cc" fill-rule="nonzero" group-id="2,5,11,29,59,126" node-id="791" stroke="none" target-height="1.4414978" target-width="2.4889984" target-x="62.7753" target-y="69.2826"></path></g><g node-id="1620"><path d="M 62.97 70.45 L 61.76 71.16 L 60.48 70.42 L 61.69 69.71 Z" fill="#83a1cc" fill-rule="nonzero" group-id="2,5,11,29,59,127" node-id="796" stroke="none" target-height="1.4429016" target-width="2.4912987" target-x="60.4788" target-y="69.7139"></path></g><g node-id="1621"><path d="M 69.56 70.75 L 68.35 71.45 L 67.07 70.71 L 68.28 70.00 Z" fill="#83a1cc" fill-rule="nonzero" group-id="2,5,11,29,59,128" node-id="801" stroke="none" target-height="1.4421997" target-width="2.4900055" target-x="67.0702" target-y="70.005"></path></g><g node-id="1622"><path d="M 72.93 70.93 L 71.72 71.63 L 70.58 70.98 L 71.79 70.28 Z" fill="#83a1cc" fill-rule="nonzero" group-id="2,5,11,29,59,129" node-id="806" stroke="none" target-height="1.3572006" target-width="2.3428955" target-x="70.5837" target-y="70.277"></path></g><g node-id="1623"><path d="M 76.64 71.94 L 75.96 72.33 L 74.83 71.68 L 75.50 71.29 Z" fill="#83a1cc" fill-rule="nonzero" group-id="2,5,11,29,59,130" node-id="811" stroke="none" target-height="1.0484009" target-width="1.8115005" target-x="74.8261" target-y="71.2852"></path></g><g node-id="1624"><path d="M 68.04 71.63 L 66.84 72.33 L 64.36 70.90 L 65.56 70.20 Z" fill="#83a1cc" fill-rule="nonzero" group-id="2,5,11,29,59,131" node-id="816" stroke="none" target-height="2.1324005" target-width="3.685501" target-x="64.3574" target-y="70.196"></path></g><g node-id="1625"><path d="M 74.29 71.72 L 73.08 72.42 L 71.95 71.77 L 73.16 71.07 Z" fill="#83a1cc" fill-rule="nonzero" group-id="2,5,11,29,59,132" node-id="821" stroke="none" target-height="1.3572998" target-width="2.3430023" target-x="71.949" target-y="71.0652"></path></g><g node-id="1626"><path d="M 71.41 71.81 L 70.20 72.52 L 69.07 71.86 L 70.28 71.16 Z" fill="#83a1cc" fill-rule="nonzero" group-id="2,5,11,29,59,133" node-id="826" stroke="none" target-height="1.3573074" target-width="2.3430023" target-x="69.0674" target-y="71.1581"></path></g><g node-id="1627"><path d="M 78.00 72.73 L 77.33 73.12 L 76.19 72.47 L 76.87 72.07 Z" fill="#83a1cc" fill-rule="nonzero" group-id="2,5,11,29,59,134" node-id="831" stroke="none" target-height="1.0484009" target-width="1.8115005" target-x="76.1926" target-y="72.0741"></path></g><g node-id="1628"><path d="M 75.66 72.51 L 74.45 73.21 L 73.32 72.56 L 74.52 71.85 Z" fill="#83a1cc" fill-rule="nonzero" group-id="2,5,11,29,59,135" node-id="836" stroke="none" target-height="1.3572998" target-width="2.3430023" target-x="73.3155" target-y="71.8542"></path></g><g node-id="1629"><path d="M 66.53 72.51 L 65.32 73.21 L 62.06 71.33 L 63.27 70.63 Z" fill="#83a1cc" fill-rule="nonzero" group-id="2,5,11,29,59,136" node-id="841" stroke="none" target-height="2.582901" target-width="4.465702" target-x="62.0609" target-y="70.6273"></path></g><g node-id="1630"><path d="M 72.78 72.60 L 71.57 73.30 L 70.43 72.65 L 71.64 71.95 Z" fill="#83a1cc" fill-rule="nonzero" group-id="2,5,11,29,59,137" node-id="846" stroke="none" target-height="1.3572998" target-width="2.3429031" target-x="70.4328" target-y="71.9464"></path></g><g node-id="1631"><path d="M 69.89 72.70 L 68.69 73.40 L 67.55 72.74 L 68.76 72.04 Z" fill="#83a1cc" fill-rule="nonzero" group-id="2,5,11,29,59,138" node-id="851" stroke="none" target-height="1.3565979" target-width="2.3417969" target-x="67.5512" target-y="72.0399"></path></g><g node-id="1632"><path d="M 77.03 73.30 L 75.82 74.00 L 74.68 73.35 L 75.89 72.64 Z" fill="#83a1cc" fill-rule="nonzero" group-id="2,5,11,29,59,139" node-id="856" stroke="none" target-height="1.3572998" target-width="2.3430023" target-x="74.682" target-y="72.6431"></path></g><g node-id="1633"><path d="M 74.14 73.39 L 72.93 74.09 L 71.80 73.44 L 73.01 72.74 Z" fill="#83a1cc" fill-rule="nonzero" group-id="2,5,11,29,59,140" node-id="861" stroke="none" target-height="1.3572006" target-width="2.3428955" target-x="71.7993" target-y="72.7354"></path></g><g node-id="1634"><path d="M 71.26 73.48 L 70.05 74.18 L 68.92 73.53 L 70.12 72.83 Z" fill="#83a1cc" fill-rule="nonzero" group-id="2,5,11,29,59,141" node-id="866" stroke="none" target-height="1.3565979" target-width="2.3419037" target-x="68.9165" target-y="72.8282"></path></g><g node-id="1635"><path d="M 72.62 74.27 L 71.42 74.97 L 70.28 74.32 L 71.49 73.62 Z" fill="#83a1cc" fill-rule="nonzero" group-id="2,5,11,29,59,142" node-id="871" stroke="none" target-height="1.3566971" target-width="2.3418045" target-x="70.283" target-y="73.6171"></path></g><g node-id="1636"><path d="M 69.74 74.36 L 68.53 75.07 L 67.40 74.41 L 68.61 73.71 Z" fill="#83a1cc" fill-rule="nonzero" group-id="2,5,11,29,59,143" node-id="876" stroke="none" target-height="1.3573074" target-width="2.3430023" target-x="67.3991" target-y="73.7094"></path></g><g node-id="1637"><path d="M 75.51 74.18 L 74.30 74.88 L 72.78 75.76 L 71.65 75.11 L 73.17 74.23 L 74.37 73.52 Z" fill="#83a1cc" fill-rule="nonzero" group-id="2,5,11,29,59,144" node-id="881" stroke="none" target-height="2.2384033" target-width="3.8591995" target-x="71.6495" target-y="73.5243"></path></g><g node-id="1638"><path d="M 71.11 75.15 L 69.90 75.86 L 68.77 75.20 L 69.97 74.50 Z" fill="#83a1cc" fill-rule="nonzero" group-id="2,5,11,29,59,145" node-id="886" stroke="none" target-height="1.3572998" target-width="2.3429947" target-x="68.7656" target-y="74.4983"></path></g><g node-id="1639"><path d="M 68.23 75.25 L 67.02 75.95 L 64.52 74.50 L 65.73 73.80 Z" fill="#83a1cc" fill-rule="nonzero" group-id="2,5,11,29,59,146" node-id="891" stroke="none" target-height="2.1455994" target-width="3.7082977" target-x="64.5175" target-y="73.8022"></path></g><g node-id="1640"><path d="M 69.59 76.03 L 68.38 76.74 L 67.25 76.08 L 68.46 75.38 Z" fill="#83a1cc" fill-rule="nonzero" group-id="2,5,11,29,59,147" node-id="896" stroke="none" target-height="1.3572998" target-width="2.3430023" target-x="67.2493" target-y="75.3795"></path></g><path d="M 72.48 75.94 L 69.80 77.50 L 68.67 76.84 L 71.34 75.29 Z" fill="#83a1cc" fill-rule="nonzero" group-id="2,5,11,29,59,148" node-id="901" stroke="none" target-height="2.2080994" target-width="3.8070984" target-x="68.668" target-y="75.2873"></path></g><g node-id="1553"><path d="M 53.84 58.78 L 53.17 59.17 L 51.89 58.43 L 52.56 58.04 Z" fill="#83a1cc" fill-rule="nonzero" group-id="2,5,11,29,60" node-id="907" stroke="none" target-height="1.133297" target-width="1.9585991" target-x="51.8855" target-y="58.0404"></path></g><g node-id="1554"><path d="M 55.43 59.69 L 54.75 60.09 L 53.47 59.35 L 54.14 58.95 Z" fill="#83a1cc" fill-rule="nonzero" group-id="2,5,11,29,61" node-id="912" stroke="none" target-height="1.1341019" target-width="1.9598007" target-x="53.4664" target-y="58.9531"></path></g><g node-id="1555"><g node-id="1642"><path d="M 44.05 61.29 L 42.85 61.99 L 41.14 61.01 L 42.35 60.31 Z" fill="#83a1cc" fill-rule="nonzero" group-id="2,5,11,29,62,149" node-id="919" stroke="none" target-height="1.6839981" target-width="2.9087982" target-x="41.1445" target-y="60.3078"></path></g><g node-id="1643"><path d="M 47.15 61.32 L 45.94 62.02 L 42.66 60.13 L 43.87 59.43 Z" fill="#83a1cc" fill-rule="nonzero" group-id="2,5,11,29,62,150" node-id="924" stroke="none" target-height="2.5972977" target-width="4.490799" target-x="42.6608" target-y="59.4267"></path></g><g node-id="1644"><path d="M 45.64 62.20 L 44.43 62.91 L 43.14 62.16 L 44.35 61.46 Z" fill="#83a1cc" fill-rule="nonzero" group-id="2,5,11,29,62,151" node-id="929" stroke="none" target-height="1.4429016" target-width="2.4911995" target-x="43.1441" target-y="61.4623"></path></g><g node-id="1645"><path d="M 48.73 62.23 L 47.52 62.94 L 46.24 62.20 L 47.45 61.49 Z" fill="#83a1cc" fill-rule="nonzero" group-id="2,5,11,29,62,152" node-id="934" stroke="none" target-height="1.4422989" target-width="2.490097" target-x="46.2424" target-y="61.4945"></path></g><path d="M 47.22 63.12 L 46.01 63.82 L 44.73 63.08 L 45.93 62.38 Z" fill="#83a1cc" fill-rule="nonzero" group-id="2,5,11,29,62,153" node-id="939" stroke="none" target-height="1.4422989" target-width="2.4902" target-x="44.7261" target-y="62.3757"></path></g><g node-id="1556"><path d="M 49.45 60.89 L 48.24 61.59 L 46.96 60.85 L 48.16 60.15 Z" fill="#83a1cc" fill-rule="nonzero" group-id="2,5,11,29,63" node-id="945" stroke="none" target-height="1.4415016" target-width="2.4890022" target-x="46.9568" target-y="60.1498"></path></g><g node-id="1557"><path d="M 50.58 59.79 L 49.37 60.49 L 48.09 59.75 L 49.30 59.05 Z" fill="#83a1cc" fill-rule="nonzero" group-id="2,5,11,29,64" node-id="950" stroke="none" target-height="1.4421997" target-width="2.490097" target-x="48.0875" target-y="59.0454"></path></g><g node-id="1558"><path d="M 52.16 60.70 L 50.95 61.40 L 49.67 60.66 L 50.88 59.96 Z" fill="#83a1cc" fill-rule="nonzero" group-id="2,5,11,29,65" node-id="955" stroke="none" target-height="1.4421997" target-width="2.490097" target-x="49.6696" target-y="59.9588"></path></g><g node-id="1559"><path d="M 55.32 62.53 L 54.11 63.23 L 52.83 62.49 L 54.04 61.78 Z" fill="#83a1cc" fill-rule="nonzero" group-id="2,5,11,29,66" node-id="960" stroke="none" target-height="1.4422989" target-width="2.4901009" target-x="52.8326" target-y="61.7849"></path></g><g node-id="1560"><g node-id="1647"><path d="M 54.45 60.26 L 53.24 60.97 L 51.96 60.22 L 53.16 59.52 Z" fill="#83a1cc" fill-rule="nonzero" group-id="2,5,11,29,67,154" node-id="967" stroke="none" target-height="1.4427986" target-width="2.4911995" target-x="51.9558" target-y="59.5222"></path></g><g node-id="1648"><path d="M 56.03 61.18 L 54.82 61.88 L 53.54 61.14 L 54.75 60.44 Z" fill="#83a1cc" fill-rule="nonzero" group-id="2,5,11,29,67,155" node-id="972" stroke="none" target-height="1.4427986" target-width="2.4911995" target-x="53.5379" target-y="60.4356"></path></g><path d="M 53.74 61.61 L 52.53 62.31 L 51.25 61.57 L 52.46 60.87 Z" fill="#83a1cc" fill-rule="nonzero" group-id="2,5,11,29,67,156" node-id="977" stroke="none" target-height="1.4429016" target-width="2.4911995" target-x="51.2506" target-y="60.8715"></path></g><g node-id="1561"><path d="M 52.87 59.35 L 51.66 60.05 L 50.37 59.31 L 51.58 58.61 Z" fill="#83a1cc" fill-rule="nonzero" group-id="2,5,11,29,68" node-id="983" stroke="none" target-height="1.4421997" target-width="2.4901009" target-x="50.3749" target-y="58.6094"></path></g><g node-id="1562"><path d="M 52.26 57.87 L 51.59 58.26 L 50.30 57.52 L 50.98 57.13 Z" fill="#83a1cc" fill-rule="nonzero" group-id="2,5,11,29,69" node-id="988" stroke="none" target-height="1.1333008" target-width="1.9586029" target-x="50.3034" target-y="57.127"></path></g><g node-id="1563"><path d="M 51.28 58.44 L 50.07 59.14 L 48.79 58.40 L 50.00 57.70 Z" fill="#83a1cc" fill-rule="nonzero" group-id="2,5,11,29,70" node-id="993" stroke="none" target-height="1.4421997" target-width="2.4901009" target-x="48.7928" target-y="57.696"></path></g><g node-id="1564"><path d="M 50.68 56.95 L 50.00 57.35 L 48.72 56.61 L 49.40 56.21 Z" fill="#83a1cc" fill-rule="nonzero" group-id="2,5,11,29,71" node-id="998" stroke="none" target-height="1.1333008" target-width="1.9587021" target-x="48.7213" target-y="56.2136"></path></g><g node-id="1565"><path d="M 49.70 57.52 L 48.49 58.22 L 47.21 57.48 L 48.42 56.78 Z" fill="#83a1cc" fill-rule="nonzero" group-id="2,5,11,29,72" node-id="1003" stroke="none" target-height="1.4421997" target-width="2.4901009" target-x="47.2107" target-y="56.7826"></path></g><g node-id="1566"><path d="M 67.98 69.83 L 66.77 70.53 L 65.49 69.79 L 66.70 69.09 Z" fill="#83a1cc" fill-rule="nonzero" group-id="2,5,11,29,73" node-id="1008" stroke="none" target-height="1.4421997" target-width="2.4901047" target-x="65.4881" target-y="69.0916"></path></g><g node-id="1567"><path d="M 68.68 68.48 L 67.48 69.18 L 66.19 68.44 L 67.40 67.74 Z" fill="#83a1cc" fill-rule="nonzero" group-id="2,5,11,29,74" node-id="1013" stroke="none" target-height="1.4421997" target-width="2.4900055" target-x="66.1934" target-y="67.7422"></path></g><g node-id="1568"><path d="M 57.01 60.61 L 56.33 61.00 L 55.05 60.26 L 55.73 59.87 Z" fill="#83a1cc" fill-rule="nonzero" group-id="2,5,11,29,75" node-id="1018" stroke="none" target-height="1.134098" target-width="1.9598007" target-x="55.0485" target-y="59.8665"></path></g><g node-id="1569"><path d="M 66.50 66.09 L 65.82 66.48 L 64.54 65.74 L 65.22 65.35 Z" fill="#83a1cc" fill-rule="nonzero" group-id="2,5,11,29,76" node-id="1023" stroke="none" target-height="1.1341019" target-width="1.9598007" target-x="64.5398" target-y="65.3463"></path></g><g node-id="1570"><g node-id="1650"><path d="M 69.66 67.91 L 68.99 68.31 L 67.70 67.57 L 68.38 67.17 Z" fill="#83a1cc" fill-rule="nonzero" group-id="2,5,11,29,77,157" node-id="1030" stroke="none" target-height="1.1333008" target-width="1.9585953" target-x="67.704" target-y="67.1732"></path></g><path d="M 72.06 69.30 L 71.38 69.69 L 69.29 68.48 L 69.96 68.09 Z" fill="#83a1cc" fill-rule="nonzero" group-id="2,5,11,29,77,158" node-id="1035" stroke="none" target-height="1.6016006" target-width="2.769699" target-x="69.286" target-y="68.0866"></path></g><g node-id="1571"><path d="M 68.08 67.00 L 67.40 67.39 L 66.12 66.65 L 66.80 66.26 Z" fill="#83a1cc" fill-rule="nonzero" group-id="2,5,11,29,78" node-id="1041" stroke="none" target-height="1.1332932" target-width="1.9585953" target-x="66.1219" target-y="66.2598"></path></g><g node-id="1572"><path d="M 47.86 59.98 L 46.66 60.68 L 44.18 59.25 L 45.39 58.55 Z" fill="#83a1cc" fill-rule="nonzero" group-id="2,5,11,29,79" node-id="1046" stroke="none" target-height="2.1323967" target-width="3.685501" target-x="44.1782" target-y="58.5455"></path></g><g node-id="1573"><path d="M 49.00 58.87 L 47.79 59.57 L 45.69 58.37 L 46.90 57.66 Z" fill="#83a1cc" fill-rule="nonzero" group-id="2,5,11,29,80" node-id="1051" stroke="none" target-height="1.9104996" target-width="3.3009987" target-x="45.6945" target-y="57.6637"></path></g><g node-id="1574"><path d="M 58.22 67.71 L 57.02 68.42 L 55.73 67.68 L 56.94 66.97 Z" fill="#83a1cc" fill-rule="nonzero" group-id="2,5,11,29,81" node-id="1056" stroke="none" target-height="1.4423065" target-width="2.4901009" target-x="55.7337" target-y="66.9743"></path></g><g node-id="1575"><path d="M 58.94 66.37 L 57.73 67.07 L 56.45 66.33 L 57.66 65.63 Z" fill="#83a1cc" fill-rule="nonzero" group-id="2,5,11,29,82" node-id="1061" stroke="none" target-height="1.441597" target-width="2.4889984" target-x="56.4481" target-y="65.6296"></path></g><g node-id="1576"><path d="M 50.31 63.15 L 49.11 63.85 L 47.82 63.11 L 49.03 62.41 Z" fill="#83a1cc" fill-rule="nonzero" group-id="2,5,11,29,83" node-id="1066" stroke="none" target-height="1.4421997" target-width="2.4901009" target-x="47.8245" target-y="62.408"></path></g><g node-id="1577"><path d="M 52.61 62.72 L 51.40 63.42 L 50.12 62.68 L 51.33 61.98 Z" fill="#83a1cc" fill-rule="nonzero" group-id="2,5,11,29,84" node-id="1071" stroke="none" target-height="1.4423027" target-width="2.4901009" target-x="50.1198" target-y="61.9759"></path></g><g node-id="1578"><path d="M 51.03 61.80 L 49.82 62.50 L 48.54 61.76 L 49.74 61.06 Z" fill="#83a1cc" fill-rule="nonzero" group-id="2,5,11,29,85" node-id="1076" stroke="none" target-height="1.4422989" target-width="2.4902" target-x="48.5377" target-y="61.0625"></path></g><g node-id="1579"><path d="M 51.90 64.06 L 50.69 64.76 L 49.41 64.02 L 50.61 63.32 Z" fill="#83a1cc" fill-rule="nonzero" group-id="2,5,11,29,86" node-id="1081" stroke="none" target-height="1.4422035" target-width="2.4902" target-x="49.4065" target-y="63.3214"></path></g><g node-id="1580"><path d="M 60.27 70.66 L 59.07 71.36 L 57.38 70.38 L 58.59 69.68 Z" fill="#83a1cc" fill-rule="nonzero" group-id="2,5,11,29,87" node-id="1086" stroke="none" target-height="1.6748047" target-width="2.8927994" target-x="57.3816" target-y="69.6823"></path></g><path d="M 61.20 72.00 L 60.69 72.29 L 59.35 71.52 L 59.86 71.22 Z" fill="#83a1cc" fill-rule="nonzero" group-id="2,5,11,29,88" node-id="1091" stroke="none" target-height="1.0701065" target-width="1.8502007" target-x="59.3481" target-y="71.2234"></path></g></g></g><g node-id="1499"><path d="M 87.03 62.66 L 84.37 63.29 C 84.31 63.74 83.30 73.21 89.29 77.93 C 90.57 78.40 92.28 78.81 92.99 78.39 L 95.67 75.33 C 94.95 75.74 86.97 63.11 87.03 62.66 Z" fill="#a6c2ff" fill-rule="nonzero" group-id="2,6" node-id="1099" stroke="none" target-height="16.150799" target-width="12.373199" target-x="83.2951" target-y="62.6581"></path><g node-id="1505"><path d="M 89.52 61.87 L 90.66 61.21 C 90.00 61.59 88.22 62.25 85.32 60.57 C 84.94 60.36 84.54 60.10 84.13 59.79 L 82.99 60.46 C 83.40 60.76 83.80 61.02 84.18 61.24 C 87.08 62.91 88.86 62.26 89.52 61.87 Z" fill="#3887e5" fill-rule="nonzero" group-id="2,6,12" node-id="1103" stroke="none" target-height="3.1191025" target-width="7.666504" target-x="82.9909" target-y="59.7935"></path></g><g node-id="1506"><path d="M 90.47 63.82 C 90.40 63.88 89.07 65.01 86.48 63.51 C 86.21 63.36 85.93 63.18 85.64 62.96 C 85.58 63.41 84.44 71.93 90.43 76.65 C 96.43 78.85 95.35 69.05 95.29 68.53 C 95.00 68.41 94.72 68.27 94.45 68.12 C 91.86 66.62 90.54 63.96 90.47 63.82 Z" fill="#1e72c6" fill-rule="nonzero" group-id="2,6,13" node-id="1108" stroke="none" target-height="15.892197" target-width="11.993599" target-x="84.441" target-y="62.9608"></path></g><g node-id="1507"><path d="M 93.91 79.73 L 95.05 79.07 C 98.77 76.91 97.81 68.22 97.74 67.65 L 96.60 68.31 C 96.66 68.89 97.63 77.57 93.91 79.73 Z" fill="#3887e5" fill-rule="nonzero" group-id="2,6,14" node-id="1113" stroke="none" target-height="12.081703" target-width="4.8573" target-x="93.9124" target-y="67.6514"></path></g><g node-id="1508"><path d="M 84.18 61.24 C 87.83 63.35 89.71 61.76 89.80 61.68 C 89.90 61.87 91.76 65.62 95.42 67.73 C 95.79 67.94 96.19 68.14 96.60 68.31 C 96.68 69.04 98.22 82.87 89.75 79.76 C 81.30 73.11 82.91 61.09 82.99 60.46 C 83.40 60.76 83.80 61.02 84.18 61.24 Z M 89.76 77.32 C 95.76 79.53 94.67 69.72 94.62 69.21 C 94.32 69.08 94.04 68.94 93.78 68.79 C 91.18 67.29 89.87 64.64 89.80 64.50 C 89.73 64.56 88.40 65.68 85.80 64.19 C 85.54 64.03 85.26 63.85 84.97 63.63 C 84.91 64.08 83.77 72.60 89.76 77.32 L 89.76 77.32 Z" fill="#6b9ef9" fill-rule="nonzero" group-id="2,6,15" node-id="1118" stroke="none" target-height="22.416" target-width="16.917297" target-x="81.3" target-y="60.4563"></path></g><path d="M 89.80 61.68 C 89.90 61.87 91.76 65.62 95.41 67.73 C 95.79 67.94 96.19 68.14 96.60 68.31 L 97.74 67.65 C 97.33 67.48 96.93 67.28 96.55 67.06 C 92.90 64.95 91.04 61.21 90.94 61.01 L 89.80 61.68 Z" fill="#a6c2ff" fill-rule="nonzero" group-id="2,6,16" node-id="1123" stroke="none" target-height="7.302803" target-width="7.9385986" target-x="89.8034" target-y="61.0122"></path></g><g node-id="1500"><path d="M 72.97 27.21 L 54.78 16.70 C 54.62 16.61 54.47 16.60 54.36 16.66 L 53.67 17.06 C 53.78 17.00 54.08 17.77 54.08 17.77 C 54.08 17.77 72.77 42.50 72.66 42.56 L 73.35 42.16 C 73.46 42.10 73.52 41.97 73.52 41.79 L 73.55 28.21 C 73.55 27.85 73.29 27.39 72.97 27.21 Z" fill="#a6c2ff" fill-rule="nonzero" group-id="2,7" node-id="1129" stroke="none" target-height="25.959099" target-width="19.883598" target-x="53.6707" target-y="16.6003"></path><path d="M 53.50 18.74 L 53.47 31.01 C 53.47 31.38 53.73 31.83 54.05 32.02 L 72.25 42.52 C 72.57 42.71 72.83 42.56 72.83 42.18 L 72.86 29.92 L 53.50 18.74 Z" fill="#6b9ef9" fill-rule="nonzero" group-id="2,7" node-id="1131" stroke="none" target-height="23.967" target-width="19.389797" target-x="53.4696" target-y="18.7383"></path><path d="M 71.99 30.41 L 71.97 41.36 L 54.33 31.18 L 54.36 20.23 Z" fill="#ffffff" fill-rule="nonzero" group-id="2,7" node-id="1133" stroke="none" target-height="21.1285" target-width="17.66" target-x="54.3335" target-y="20.2338"></path><g node-id="1510"><path d="M 62.49 27.11 C 64.12 28.05 65.43 30.32 65.42 32.18 C 65.42 34.05 64.10 34.80 62.47 33.86 C 60.85 32.93 59.54 30.66 59.54 28.79 C 59.55 26.93 60.87 26.17 62.49 27.11 Z" fill="#4c4a8b" fill-rule="nonzero" group-id="2,7,17" node-id="1137" stroke="none" target-height="8.629198" target-width="5.8887978" target-x="59.5379" target-y="26.1728"></path></g><path d="M 61.53 28.25 L 61.52 32.14 L 64.36 31.67 Z" fill="#dee7f8" fill-rule="nonzero" group-id="2,7" node-id="1140" stroke="none" target-height="3.8895988" target-width="2.8426018" target-x="61.5191" target-y="28.2482"></path><path d="M 72.28 27.61 L 54.09 17.10 C 53.76 16.91 53.50 17.07 53.50 17.44 L 53.50 18.74 L 72.86 29.92 L 72.86 28.62 C 72.86 28.25 72.60 27.79 72.28 27.61 Z" fill="#1e72c6" fill-rule="nonzero" group-id="2,7,18" node-id="1144" stroke="none" target-height="13.002701" target-width="19.367397" target-x="53.4968" target-y="16.9149"></path><path d="M 71.93 28.87 C 71.74 28.76 71.58 28.49 71.58 28.26 C 71.58 28.04 71.74 27.95 71.93 28.06 C 72.13 28.18 72.28 28.45 72.28 28.67 C 72.28 28.89 72.13 28.98 71.93 28.87 Z" fill="#dee7f8" fill-rule="nonzero" group-id="2,7,19,30" node-id="1151" stroke="none" target-height="1.0331001" target-width="0.70490265" target-x="71.5797" target-y="27.9512"></path><path d="M 70.80 28.22 C 70.61 28.11 70.45 27.83 70.45 27.61 C 70.45 27.39 70.61 27.30 70.80 27.41 C 71.00 27.52 71.15 27.79 71.15 28.02 C 71.15 28.24 70.99 28.33 70.80 28.22 Z" fill="#dee7f8" fill-rule="nonzero" group-id="2,7,19,31" node-id="1156" stroke="none" target-height="1.0331001" target-width="0.70490265" target-x="70.4481" target-y="27.2979"></path><path d="M 69.67 27.57 C 69.47 27.45 69.32 27.18 69.32 26.96 C 69.32 26.73 69.48 26.64 69.67 26.76 C 69.86 26.87 70.02 27.14 70.02 27.36 C 70.02 27.59 69.86 27.68 69.67 27.57 Z" fill="#dee7f8" fill-rule="nonzero" group-id="2,7,19,32" node-id="1161" stroke="none" target-height="1.0331001" target-width="0.70490265" target-x="69.3164" target-y="26.6445"></path></g><g node-id="1501"><g node-id="1513"><path d="M 85.20 43.87 L 85.20 45.26 L 86.22 45.85 C 86.74 46.16 87.47 46.11 88.27 45.65 L 85.20 43.87 Z" fill="#6b9ef9" fill-rule="nonzero" group-id="2,8,20" node-id="1170" stroke="none" target-height="2.2845993" target-width="3.0654984" target-x="85.2002" target-y="43.8709"></path></g><g node-id="1514"><g node-id="1526"><g node-id="1582"><path d="M 95.23 44.46 C 95.23 45.20 94.97 45.72 94.54 45.97 L 92.05 47.42 C 92.47 47.17 92.73 46.65 92.73 45.91 C 92.74 44.42 91.69 42.61 90.39 41.86 C 90.18 41.74 89.98 41.65 89.78 41.60 C 89.81 41.42 89.83 41.23 89.83 41.03 C 89.83 38.62 88.14 35.68 86.04 34.47 C 85.45 34.13 84.90 33.96 84.41 33.95 C 84.55 34.11 84.67 34.28 84.78 34.47 L 82.28 35.92 C 81.93 35.34 81.45 34.84 80.93 34.55 C 80.89 34.52 80.85 34.50 80.81 34.48 L 78.93 35.57 C 78.60 35.17 78.22 34.84 77.82 34.60 C 77.17 34.23 76.58 34.19 76.15 34.44 L 78.64 32.99 C 79.07 32.74 79.66 32.77 80.32 33.15 C 80.53 33.27 80.73 33.42 80.92 33.59 L 82.01 32.95 C 82.38 32.75 82.88 32.77 83.43 33.10 C 83.71 33.25 83.96 33.46 84.19 33.71 L 85.83 32.75 C 86.52 32.35 87.48 32.41 88.54 33.02 C 90.63 34.23 92.33 37.17 92.32 39.58 C 92.32 39.78 92.31 39.97 92.28 40.15 C 92.48 40.20 92.68 40.29 92.89 40.41 C 94.19 41.16 95.23 42.97 95.23 44.46 Z" fill="#9eb5df" fill-rule="nonzero" group-id="2,8,21,33,89" node-id="1179" stroke="none" target-height="15.067902" target-width="19.084297" target-x="76.1488" target-y="32.3499"></path></g><path d="M 86.04 34.47 C 88.13 35.68 89.83 38.62 89.83 41.03 C 89.82 41.23 89.81 41.42 89.79 41.60 C 89.98 41.65 90.18 41.74 90.39 41.86 C 91.69 42.61 92.74 44.42 92.73 45.91 C 92.73 47.40 91.67 48.00 90.38 47.26 L 77.80 40.00 C 76.51 39.25 75.46 37.43 75.46 35.94 C 75.47 34.45 76.52 33.85 77.82 34.60 C 78.22 34.84 78.60 35.17 78.93 35.57 C 78.99 34.39 79.87 33.93 80.94 34.55 C 81.45 34.85 81.93 35.34 82.28 35.92 C 82.60 34.05 84.16 33.39 86.04 34.47 Z" fill="#dee7f8" fill-rule="nonzero" group-id="2,8,21,33,90" node-id="1184" stroke="none" target-height="14.619801" target-width="17.278" target-x="75.4581" target-y="33.3851"></path></g></g><path d="M 84.07 37.05 L 86.27 41.73 L 85.38 41.22 L 85.38 44.39 C 85.37 44.99 85.70 45.55 86.22 45.85 L 86.22 45.85 L 83.57 44.32 L 83.57 44.32 C 83.05 44.02 82.72 43.46 82.73 42.86 L 82.73 39.69 L 81.85 39.17 L 84.07 37.05 Z" fill="#3887e5" fill-rule="nonzero" group-id="2,8,22,34,91,159" node-id="1197" stroke="none" target-height="8.805698" target-width="4.4282" target-x="81.8451" target-y="37.0456"></path></g><g node-id="1502"><g node-id="1516"><g node-id="1528"><g node-id="1585"><g node-id="1653"><path d="M 57.88 37.45 L 57.67 38.21 L 54.13 38.77 L 53.19 42.29 L 52.40 42.77 L 53.42 38.95 L 54.19 38.37 L 54.42 38.01 Z" fill="#1e72c6" fill-rule="nonzero" group-id="2,9,23,35,92,160" node-id="1214" stroke="none" target-height="5.3226013" target-width="5.478199" target-x="52.3973" target-y="37.4506"></path></g><g node-id="1654"><g node-id="1668"><path d="M 52.60 42.47 L 53.25 42.09 L 59.55 45.71 L 59.39 46.22 L 59.25 46.30 Z" fill="#a6c2ff" fill-rule="nonzero" group-id="2,9,23,35,92,161,175" node-id="1221" stroke="none" target-height="4.210701" target-width="6.9491997" target-x="52.6024" target-y="42.0916"></path></g></g><g node-id="1655"><g node-id="1669"><g node-id="1680"><g node-id="1687"><g node-id="1695"><g node-id="1698"><g node-id="1709"><g node-id="1717"><path d="M 47.84 59.77 L 48.53 59.66 L 49.48 56.13 L 48.78 56.25 Z" fill="#1e72c6" fill-rule="nonzero" group-id="2,9,23,35,92,162,176,187,194,202,205,216,224" node-id="1241" stroke="none" target-height="3.6376" target-width="1.6411018" target-x="47.8391" target-y="56.135"></path></g><g node-id="1718"><path d="M 48.92 55.74 L 49.71 55.26 L 50.64 51.81 L 49.94 51.92 Z" fill="#1e72c6" fill-rule="nonzero" group-id="2,9,23,35,92,162,176,187,194,202,205,216,225" node-id="1246" stroke="none" target-height="3.9343033" target-width="1.7207985" target-x="48.9192" target-y="51.8099"></path></g><g node-id="1719"><path d="M 50.08 51.42 L 50.87 50.94 L 51.80 47.49 L 51.10 47.60 Z" fill="#1e72c6" fill-rule="nonzero" group-id="2,9,23,35,92,162,176,187,194,202,205,216,226" node-id="1251" stroke="none" target-height="3.9342995" target-width="1.7207985" target-x="50.0786" target-y="47.4861"></path></g><path d="M 51.24 47.10 L 52.03 46.62 L 52.96 43.16 L 52.26 43.28 Z" fill="#1e72c6" fill-rule="nonzero" group-id="2,9,23,35,92,162,176,187,194,202,205,216,227" node-id="1256" stroke="none" target-height="3.9342995" target-width="1.7208023" target-x="51.2376" target-y="43.1637"></path></g></g><g node-id="1699"><g node-id="1710"><g node-id="1721"><path d="M 49.12 55.44 L 49.77 55.06 L 56.07 58.68 L 55.91 59.19 L 55.77 59.27 Z" fill="#a6c2ff" fill-rule="nonzero" group-id="2,9,23,35,92,162,176,187,194,202,206,217,228" node-id="1267" stroke="none" target-height="4.210701" target-width="6.9491997" target-x="49.1242" target-y="55.063"></path></g></g></g><g node-id="1700"><g node-id="1711"><g node-id="1722"><path d="M 50.28 51.11 L 50.93 50.74 L 57.23 54.36 L 57.07 54.87 L 56.93 54.95 Z" fill="#a6c2ff" fill-rule="nonzero" group-id="2,9,23,35,92,162,176,187,194,202,207,218,229" node-id="1278" stroke="none" target-height="4.210701" target-width="6.9491997" target-x="50.2836" target-y="50.7392"></path></g></g></g><g node-id="1701"><g node-id="1712"><g node-id="1723"><path d="M 51.44 46.79 L 52.09 46.42 L 58.39 50.04 L 58.23 50.54 L 58.09 50.63 Z" fill="#a6c2ff" fill-rule="nonzero" group-id="2,9,23,35,92,162,176,187,194,202,208,219,230" node-id="1289" stroke="none" target-height="4.210697" target-width="6.9491997" target-x="51.443" target-y="46.4154"></path></g></g></g><path d="M 65.28 41.72 L 61.12 42.39 L 52.97 37.69 L 57.13 37.02 L 57.88 37.45 L 54.66 37.97 L 61.31 41.81 L 64.53 41.29 Z" fill="#a6c2ff" fill-rule="nonzero" group-id="2,9,23,35,92,162,176,187,194,202,209" node-id="1296" stroke="none" target-height="5.3694" target-width="12.302303" target-x="52.9734" target-y="37.0206"></path></g></g></g></g></g></g></g><g node-id="1529"><g node-id="1586"><g node-id="1656"><path d="M 48.39 57.73 L 47.86 59.70 L 48.55 59.59 L 49.05 57.73 Z" fill="#1e72c6" fill-rule="nonzero" group-id="2,9,23,36,93,163" node-id="1312" stroke="none" target-height="1.9654007" target-width="1.1917992" target-x="47.8585" target-y="57.7347"></path></g><g node-id="1657"><g node-id="1670"><path d="M 47.96 59.76 L 48.61 59.39 L 55.10 63.12 L 54.76 63.51 L 54.61 63.60 Z" fill="#a6c2ff" fill-rule="nonzero" group-id="2,9,23,36,93,164,177" node-id="1319" stroke="none" target-height="4.210701" target-width="7.1352997" target-x="47.9648" target-y="59.3868"></path></g></g><g node-id="1658"><g node-id="1671"><g node-id="1681"><g node-id="1688"><g node-id="1696"><g node-id="1703"><g node-id="1713"><g node-id="1724"><path d="M 44.38 72.67 L 45.18 72.19 L 46.00 69.11 L 45.31 69.22 Z" fill="#1e72c6" fill-rule="nonzero" group-id="2,9,23,36,93,165,178,188,195,203,210,220,231" node-id="1339" stroke="none" target-height="3.5659943" target-width="1.6218987" target-x="44.3805" target-y="69.105"></path></g><g node-id="1725"><path d="M 45.44 68.72 L 46.24 68.24 L 47.16 64.78 L 46.47 64.89 Z" fill="#1e72c6" fill-rule="nonzero" group-id="2,9,23,36,93,165,178,188,195,203,210,220,232" node-id="1344" stroke="none" target-height="3.9344025" target-width="1.7207985" target-x="45.441" target-y="64.7812"></path></g><path d="M 46.60 64.39 L 47.39 63.91 L 48.32 60.46 L 47.62 60.57 Z" fill="#1e72c6" fill-rule="nonzero" group-id="2,9,23,36,93,165,178,188,195,203,210,220,233" node-id="1349" stroke="none" target-height="3.9344025" target-width="1.7208023" target-x="46.6" target-y="60.4588"></path></g></g><g node-id="1704"><g node-id="1714"><g node-id="1727"><path d="M 45.65 68.41 L 46.29 68.03 L 52.60 71.66 L 52.44 72.16 L 52.29 72.25 Z" fill="#a6c2ff" fill-rule="nonzero" group-id="2,9,23,36,93,165,178,188,195,203,211,221,234" node-id="1360" stroke="none" target-height="4.210701" target-width="6.949299" target-x="45.6459" target-y="68.0344"></path></g></g></g><g node-id="1705"><g node-id="1715"><g node-id="1728"><path d="M 46.81 64.08 L 47.45 63.71 L 53.75 67.33 L 53.60 67.84 L 53.45 67.92 Z" fill="#a6c2ff" fill-rule="nonzero" group-id="2,9,23,36,93,165,178,188,195,203,212,222,235" node-id="1371" stroke="none" target-height="4.210701" target-width="6.949299" target-x="46.8053" target-y="63.7106"></path></g></g></g><g node-id="1706"><g node-id="1716"><g node-id="1729"><path d="M 65.28 41.72 L 65.07 42.48 L 61.61 43.04 L 52.51 76.85 L 51.81 76.96 L 61.12 42.39 Z" fill="#1e72c6" fill-rule="nonzero" group-id="2,9,23,36,93,165,178,188,195,203,213,223,236" node-id="1382" stroke="none" target-height="35.241302" target-width="13.461803" target-x="51.8148" target-y="41.7219"></path></g></g></g><g node-id="1707"><path d="M 49.02 55.38 L 55.77 59.27 L 56.70 55.82 L 49.94 51.92 Z" fill="none" group-id="2,9,23,36,93,165,178,188,195,203,214" node-id="1389" stroke="none" target-height="7.3523026" target-width="7.6772003" target-x="49.0181" target-y="51.9214"></path><path d="M 47.86 59.70 L 54.61 63.60 L 55.54 60.14 L 48.78 56.25 Z" fill="none" group-id="2,9,23,36,93,165,178,188,195,203,214" node-id="1391" stroke="none" target-height="7.3507996" target-width="7.6768" target-x="47.8587" target-y="56.2466"></path><path d="M 46.70 64.02 L 53.45 67.92 L 54.38 64.47 L 47.62 60.57 Z" fill="none" group-id="2,9,23,36,93,165,178,188,195,203,214" node-id="1393" stroke="none" target-height="7.3521996" target-width="7.6772003" target-x="46.6989" target-y="60.5705"></path><path d="M 45.54 68.35 L 52.29 72.25 L 53.22 68.79 L 46.47 64.89 Z" fill="none" group-id="2,9,23,36,93,165,178,188,195,203,214" node-id="1395" stroke="none" target-height="7.3523026" target-width="7.6771965" target-x="45.5399" target-y="64.8928"></path><path d="M 51.34 46.73 L 58.09 50.63 L 59.01 47.17 L 52.26 43.28 Z" fill="none" group-id="2,9,23,36,93,165,178,188,195,203,214" node-id="1397" stroke="none" target-height="7.3522987" target-width="7.6773033" target-x="51.3365" target-y="43.2752"></path><path d="M 50.18 51.05 L 56.93 54.95 L 57.85 51.50 L 51.10 47.60 Z" fill="none" group-id="2,9,23,36,93,165,178,188,195,203,214" node-id="1399" stroke="none" target-height="7.3524017" target-width="7.6772995" target-x="50.1775" target-y="47.5976"></path><path d="M 53.42 38.95 L 52.50 42.40 L 59.25 46.30 L 60.17 42.85 Z" fill="none" group-id="2,9,23,36,93,165,178,188,195,203,214" node-id="1401" stroke="none" target-height="7.3522987" target-width="7.6772995" target-x="52.4963" target-y="38.9499"></path><path d="M 52.97 37.69 L 43.70 72.28 L 44.38 72.67 L 45.31 69.22 L 52.06 73.11 L 51.13 76.57 L 51.81 76.96 L 61.12 42.39 L 52.97 37.69 Z M 52.29 72.25 L 45.54 68.35 L 46.47 64.89 L 53.22 68.79 L 52.29 72.25 Z M 53.45 67.92 L 46.70 64.02 L 47.62 60.57 L 54.38 64.47 L 53.45 67.92 Z M 54.61 63.60 L 47.86 59.70 L 48.78 56.25 L 55.54 60.14 L 54.61 63.60 Z M 55.77 59.27 L 49.02 55.38 L 49.94 51.92 L 56.70 55.82 L 55.77 59.27 Z M 56.93 54.95 L 50.18 51.05 L 51.10 47.60 L 57.85 51.50 L 56.93 54.95 Z M 58.09 50.63 L 51.34 46.73 L 52.26 43.28 L 59.01 47.17 L 58.09 50.63 Z M 52.50 42.40 L 53.42 38.95 L 60.17 42.85 L 59.25 46.30 L 52.50 42.40 Z" fill="#6b9ef9" fill-rule="nonzero" group-id="2,9,23,36,93,165,178,188,195,203,214" node-id="1403" stroke="none" target-height="39.276203" target-width="17.420002" target-x="43.6988" target-y="37.6871"></path></g></g></g></g></g></g></g></g></g><g node-id="1517"><g node-id="1530"><g node-id="1587"><g node-id="1659"><path d="M 51.81 55.85 C 51.14 56.55 49.53 56.78 49.53 56.78 L 49.52 56.86 C 49.52 56.96 49.44 57.08 49.36 57.11 L 48.48 57.28 C 48.39 57.32 48.35 57.25 48.34 57.15 C 48.31 56.70 48.30 56.15 48.34 55.99 C 48.40 55.79 48.77 56.41 49.64 55.41 C 50.32 55.56 51.22 55.24 51.61 55.07 C 52.04 54.89 52.48 55.14 51.81 55.85 Z" fill="#3a3a77" fill-rule="nonzero" group-id="2,9,24,37,94,166" node-id="1422" stroke="none" target-height="2.432003" target-width="4.183098" target-x="48.2961" target-y="54.8859"></path></g><path d="M 50.40 49.40 C 50.25 49.87 50.17 50.35 50.12 50.84 C 49.98 52.23 49.72 54.94 49.75 55.58 C 49.47 56.07 48.97 56.18 48.35 56.11 C 48.35 56.11 47.75 52.98 48.10 50.72 C 48.22 49.98 48.29 49.25 48.26 48.52 C 48.22 47.64 48.11 46.51 47.82 45.56 C 47.25 43.69 48.07 42.33 48.25 41.99 L 51.37 42.73 C 51.37 42.73 51.54 45.62 50.40 49.40 Z" fill="#3a3a77" fill-rule="nonzero" group-id="2,9,24,37,94,167,179,189,196,204,215" node-id="1437" stroke="none" target-height="14.196598" target-width="4.2916985" target-x="47.2512" target-y="41.9873"></path></g></g><g node-id="1531"><g node-id="1588"><path d="M 56.90 52.89 C 56.08 53.37 54.54 53.06 54.54 53.06 L 54.51 53.14 C 54.48 53.24 54.37 53.33 54.28 53.33 L 53.43 53.22 C 53.34 53.22 53.32 53.14 53.34 53.04 C 53.45 52.58 53.61 52.03 53.70 51.89 C 53.81 51.71 53.96 52.45 55.06 51.74 C 55.63 52.12 56.55 52.10 56.95 52.06 C 57.40 52.02 57.73 52.41 56.90 52.89 Z" fill="#3a3a77" fill-rule="nonzero" group-id="2,9,24,38,95" node-id="1451" stroke="none" target-height="1.6528969" target-width="4.402298" target-x="53.3227" target-y="51.7148"></path></g><path d="M 53.32 42.99 C 52.57 41.33 50.30 41.12 49.74 42.31 C 48.90 44.06 49.69 46.29 51.20 46.56 C 51.45 46.60 51.69 46.66 51.91 46.73 C 53.57 47.27 53.97 46.89 53.80 48.58 C 53.61 50.36 53.67 51.99 53.67 51.99 C 54.06 52.09 54.96 52.32 55.14 51.95 C 55.12 51.44 55.32 49.18 55.42 48.08 C 55.45 47.71 55.55 47.34 55.60 46.96 C 55.78 45.51 53.32 42.99 53.32 42.99 Z" fill="#4c4a8b" fill-rule="nonzero" group-id="2,9,24,38,96" node-id="1456" stroke="none" target-height="11.2047" target-width="6.8781013" target-x="48.9035" target-y="41.12"></path></g><g node-id="1532"><g node-id="1590"><g node-id="1661"><g node-id="1673"><path d="M 55.37 24.71 C 55.24 24.70 55.08 24.86 55.07 24.90 C 55.04 24.95 54.92 25.12 54.92 25.13 C 54.92 25.13 54.90 25.15 54.88 25.15 C 54.86 25.15 54.84 25.09 54.89 24.83 C 54.99 24.38 54.88 23.97 54.88 23.81 C 54.88 23.73 54.86 23.70 54.82 23.69 C 54.82 23.69 54.82 23.69 54.82 23.69 C 54.77 23.69 54.73 23.73 54.73 23.78 C 54.73 23.98 54.71 24.56 54.68 24.64 C 54.67 24.68 54.66 24.69 54.65 24.69 C 54.63 24.69 54.62 24.68 54.62 24.68 C 54.63 24.63 54.70 23.69 54.65 23.51 C 54.64 23.48 54.62 23.46 54.59 23.45 C 54.59 23.45 54.59 23.45 54.58 23.45 C 54.54 23.45 54.50 23.49 54.49 23.54 C 54.47 23.78 54.41 24.56 54.39 24.63 C 54.37 24.68 54.36 24.69 54.36 24.68 C 54.35 24.68 54.34 24.67 54.34 24.67 C 54.35 24.63 54.39 23.89 54.40 23.77 C 54.41 23.64 54.42 23.59 54.29 23.57 C 54.17 23.56 54.14 24.67 54.13 24.77 C 54.11 24.83 54.09 24.85 54.08 24.85 C 54.07 24.85 54.06 24.84 54.06 24.84 C 54.05 24.82 54.09 24.10 54.07 24.01 C 54.07 23.96 54.04 23.93 54.01 23.93 C 53.99 23.93 53.97 23.93 53.95 23.95 C 53.90 24.00 53.86 24.93 53.87 24.95 C 53.87 24.97 53.87 25.61 53.94 25.75 C 54.01 25.90 54.01 26.36 54.01 26.39 L 54.68 26.46 C 54.70 26.14 54.74 25.90 54.90 25.73 C 55.06 25.55 55.12 25.36 55.13 25.35 C 55.13 25.33 55.27 25.00 55.34 24.93 C 55.42 24.85 55.47 24.77 55.48 24.77 C 55.45 24.73 55.41 24.71 55.37 24.71 Z" fill="#ecb4bf" fill-rule="nonzero" group-id="2,9,24,39,97,168,180" node-id="1468" stroke="none" target-height="3.0161" target-width="1.6127014" target-x="53.8643" target-y="23.4459"></path><g node-id="1683"><path d="M 54.90 25.94 C 54.84 25.77 54.17 25.63 53.90 25.78 C 53.84 26.45 52.08 30.06 50.33 32.12 C 50.32 32.12 50.97 32.56 50.57 32.45 L 50.60 33.18 C 51.07 33.29 51.48 33.35 51.77 33.27 C 53.37 32.84 54.90 25.94 54.90 25.94 Z" fill="#a6c2ff" fill-rule="nonzero" group-id="2,9,24,39,97,168,180,190" node-id="1472" stroke="none" target-height="7.7173996" target-width="4.5797997" target-x="50.3241" target-y="25.6291"></path></g><path d="M 55.03 27.39 C 55.03 27.39 51.75 27.88 51.77 28.06 C 51.78 28.24 51.13 30.40 50.76 31.68 L 53.44 31.95 C 53.47 31.37 53.62 31.02 53.62 31.02 C 55.31 31.40 55.03 27.39 55.03 27.39 Z" fill="#ecb4bf" fill-rule="nonzero" group-id="2,9,24,39,97,168,180" node-id="1475" stroke="none" target-height="4.5524006" target-width="4.5536995" target-x="50.7556" target-y="27.3926"></path><path d="M 54.56 33.38 C 54.22 33.01 53.94 32.54 53.67 32.05 C 53.54 31.81 53.50 31.51 53.56 31.22 C 53.56 31.22 51.37 31.35 51.21 30.30 L 51.10 30.60 C 51.04 30.75 50.90 30.85 50.75 30.85 C 50.09 30.82 48.33 31.02 48.49 33.89 C 48.69 37.41 48.40 41.52 48.40 41.52 C 48.40 41.52 48.44 41.62 48.51 41.78 C 49.87 42.44 51.29 43.93 52.91 43.52 C 52.95 43.51 52.99 43.51 53.02 43.50 C 53.20 43.32 53.50 43.24 53.64 42.83 C 53.64 42.83 54.66 37.49 55.08 36.51 C 55.44 35.65 55.69 34.60 54.56 33.38 Z" fill="#a6c2ff" fill-rule="nonzero" group-id="2,9,24,39,97,168,180" node-id="1477" stroke="none" target-height="13.626499" target-width="7.3663025" target-x="48.3253" target-y="30.3008"></path></g><path d="M 53.68 42.82 C 53.69 42.78 53.65 42.77 53.62 42.79 C 52.32 44.26 49.12 41.80 48.49 41.28 C 48.43 41.24 48.35 41.28 48.33 41.35 C 48.30 41.48 48.26 41.69 48.22 41.99 C 48.22 42.02 48.23 42.05 48.25 42.07 C 48.70 42.42 52.21 45.01 53.60 43.34 C 53.61 43.32 53.62 43.30 53.63 43.28 C 53.65 43.07 53.67 42.92 53.68 42.82 Z" fill="#2a2a5e" fill-rule="nonzero" group-id="2,9,24,39,97,168" node-id="1480" stroke="none" target-height="3.7727013" target-width="5.4736023" target-x="48.2152" target-y="41.2418"></path></g></g><path d="M 55.33 27.43 C 55.03 26.48 51.24 25.84 51.03 28.61 C 51.01 28.88 50.89 30.26 50.96 30.45 C 51.31 31.36 53.16 31.22 53.16 31.22 C 53.41 30.63 53.45 30.05 53.44 29.94 C 53.43 29.77 53.43 29.58 53.53 29.42 C 53.65 29.21 53.79 29.25 53.91 29.82 L 54.15 29.74 C 54.31 29.35 54.34 28.80 54.34 28.80 C 55.53 28.52 55.44 27.78 55.33 27.43 Z" fill="#a0533f" fill-rule="nonzero" group-id="2,9,24,39" node-id="1484" stroke="none" target-height="5.524599" target-width="4.6413994" target-x="50.89" target-y="25.839"></path></g></g><g node-id="1518"><path d="M 61.64 32.79 C 61.61 32.76 61.58 32.76 61.56 32.80 C 61.52 32.86 61.32 33.44 61.31 33.44 C 61.30 33.45 61.30 33.45 61.29 33.44 C 61.27 33.43 61.26 33.40 61.27 33.34 C 61.30 33.25 61.63 32.38 61.52 32.29 C 61.41 32.20 61.39 32.25 61.36 32.35 C 61.33 32.45 61.13 33.06 61.12 33.09 C 61.12 33.09 61.12 33.10 61.11 33.09 C 61.10 33.09 61.10 33.07 61.10 33.03 C 61.10 32.95 61.30 32.31 61.36 32.11 C 61.37 32.06 61.35 32.00 61.32 31.97 C 61.31 31.96 61.31 31.96 61.30 31.96 C 61.28 31.94 61.26 31.94 61.24 31.96 C 61.14 32.06 60.90 32.83 60.89 32.87 C 60.89 32.87 60.88 32.87 60.86 32.86 C 60.85 32.85 60.85 32.84 60.85 32.79 C 60.86 32.72 61.03 32.26 61.08 32.10 C 61.10 32.06 61.08 32.00 61.04 31.96 C 61.04 31.96 61.04 31.96 61.04 31.96 C 61.01 31.94 60.98 31.94 60.95 32.00 C 60.90 32.13 60.68 32.35 60.62 32.77 C 60.58 33.02 60.54 33.04 60.52 33.03 C 60.51 33.02 60.50 32.99 60.50 32.99 C 60.50 32.97 60.46 32.75 60.45 32.69 C 60.45 32.65 60.37 32.40 60.26 32.30 C 60.23 32.27 60.19 32.26 60.15 32.26 C 60.15 32.27 60.17 32.37 60.21 32.49 C 60.25 32.61 60.26 32.97 60.26 32.99 C 60.26 33.00 60.25 33.19 60.32 33.45 C 60.40 33.71 60.36 33.93 60.27 34.19 L 60.85 34.67 C 60.86 34.65 61.01 34.29 61.11 34.24 C 61.22 34.18 61.42 33.70 61.43 33.68 C 61.44 33.67 61.70 32.93 61.68 32.86 C 61.67 32.82 61.66 32.80 61.64 32.79 Z" fill="#ecb4bf" fill-rule="nonzero" group-id="2,9,25" node-id="1490" stroke="none" target-height="2.7283993" target-width="1.5529976" target-x="60.1501" target-y="31.9401"></path><path d="M 61.19 34.31 C 61.19 34.31 58.29 38.70 56.66 38.39 C 55.73 38.20 54.17 36.31 53.21 35.36 C 52.58 34.73 52.96 33.65 53.85 33.56 C 53.85 33.56 53.86 33.56 53.86 33.55 C 54.27 33.51 54.68 33.69 54.93 34.02 C 55.65 34.95 57.44 36.45 57.44 36.47 C 57.49 35.91 60.01 34.29 60.36 33.72 C 60.67 33.71 61.21 34.13 61.19 34.31 Z" fill="#a6c2ff" fill-rule="nonzero" group-id="2,9,25" node-id="1492" stroke="none" target-height="5.1921997" target-width="8.623402" target-x="52.5837" target-y="33.509"></path></g></g></g></svg>